<?xml version="1.0" encoding="utf-8"?>
<!-- Generator: Adobe Illustrator 21.1.0, SVG Export Plug-In . SVG Version: 6.00 Build 0)  -->
<svg version="1.1" id="Layer_1" xmlns="http://www.w3.org/2000/svg" xmlns:xlink="http://www.w3.org/1999/xlink" x="0px" y="0px"
	 viewBox="0 0 316 96" style="enable-background:new 0 0 316 96;" xml:space="preserve">
<style type="text/css">
	.st0{fill:#FCFCFC;}
	.st1{fill:#C7F2FC;}
	.st2{fill:#CCF3FC;}
	.st3{fill:#3CD2F7;}
	.st4{fill:#D0F3FC;}
	.st5{fill:#AAEBFB;}
	.st6{fill:#C7F1FC;}
	.st7{fill:#B8EEFB;}
	.st8{fill:#9DB9C0;}
	.st9{fill:#43D4F7;}
	.st10{fill:#A5EAFB;}
	.st11{fill:#B2C8CD;}
	.st12{fill:#DAF6FD;}
	.st13{fill:#CEF3FC;}
	.st14{fill:#A0BCC2;}
	.st15{fill:#AAC3C9;}
	.st16{fill:#D7E2E5;}
	.st17{fill:#C1F0FC;}
	.st18{fill:#ABC4C9;}
	.st19{fill:#B8CDD1;}
	.st20{fill:#ABC3C9;}
	.st21{fill:#DFF7FD;}
	.st22{fill:#C3F1FC;}
	.st23{fill:#B1C7CD;}
	.st24{fill:#FEFEFE;}
	.st25{fill:#AEC5CB;}
	.st26{fill:#B6EEFC;}
	.st27{fill:#AFC6CB;}
	.st28{fill:#DCF6FD;}
	.st29{fill:#51D7F8;}
	.st30{fill:#B2EDFB;}
	.st31{fill:#5CD9F8;}
	.st32{fill:#D1F4FC;}
	.st33{fill:#9CE8FB;}
	.st34{fill:#69DDF9;}
	.st35{fill:#65DBF9;}
	.st36{fill:#6ADDF9;}
	.st37{fill:#04C5F5;}
	.st38{fill:#43D3F7;}
	.st39{fill:#54D7F8;}
	.st40{fill:#30CFF7;}
	.st41{fill:#095061;}
	.st42{fill:#085061;}
	.st43{fill:#598994;}
	.st44{fill:#39D1F7;}
	.st45{fill:#588894;}
	.st46{fill:#25CDF6;}
	.st47{fill:#56D8F8;}
	.st48{fill:#487D8A;}
	.st49{fill:#5B8B96;}
	.st50{fill:#A9C2C8;}
	.st51{fill:#40D3F7;}
	.st52{fill:#36D1F7;}
	.st53{fill:#64919C;}
	.st54{fill:#61DAF8;}
	.st55{fill:#588994;}
	.st56{fill:#06C6F5;}
	.st57{fill:#3DD2F7;}
	.st58{fill:#87A9B1;}
	.st59{fill:#387280;}
	.st60{fill:#C9F2FC;}
	.st61{fill:#46D4F8;}
	.st62{fill:#60DAF9;}
	.st63{fill:#3AD1F7;}
	.st64{fill:#B9CDD2;}
	.st65{fill:#9AB7BE;}
	.st66{fill:#ADC5CA;}
	.st67{fill:#22CCF6;}
	.st68{fill:#1D1D1C;}
	.st69{fill:#51D6F8;}
	.st70{fill:#A6EAFB;}
	.st71{fill:#4ED6F8;}
	.st72{fill:#ACEBFB;}
	.st73{fill:#BED0D5;}
	.st74{fill:#ACC4C9;}
	.st75{fill:#095162;}
	.st76{fill:#36A8DF;}
	.st77{fill:#1D1D1B;}
	.st78{fill:#5DB9E5;}
	.st79{fill:#5A5A59;}
	.st80{fill:#A0947F;}
	.st81{fill:#4A4A49;}
	.st82{fill:#4E4940;}
	.st83{fill:#484847;}
	.st84{fill:#539FC3;}
	.st85{fill:#27373C;}
	.st86{fill:#534F47;}
	.st87{fill:#4F4C44;}
	.st88{fill:#4B4841;}
	.st89{fill:#474745;}
	.st90{fill:#5C5C5B;}
	.st91{fill:#4D4940;}
	.st92{fill:#48453F;}
	.st93{fill:#7C7C7B;}
	.st94{fill:#35332E;}
	.st95{fill:#888887;}
	.st96{fill:#2C424B;}
	.st97{fill:#46433D;}
	.st98{fill:#A79E8D;}
	.st99{fill:#6C665C;}
	.st100{fill:#535351;}
	.st101{fill:#2D434D;}
	.st102{fill:#C3C3C3;}
	.st103{fill:#737372;}
	.st104{fill:#454543;}
	.st105{fill:#5B5B5A;}
	.st106{fill:#C6C6C6;}
	.st107{fill:#CBCBCB;}
	.st108{fill:#C0C0BF;}
	.st109{fill:#CABA9F;}
	.st110{fill:#CECECD;}
	.st111{fill:#C8C8C8;}
	.st112{fill:#C2C2C2;}
	.st113{fill:#B6B6B5;}
	.st114{fill:#5EB9E6;}
	.st115{fill:#46819D;}
	.st116{fill:#D4C8B2;}
	.st117{fill:#A9A08E;}
	.st118{fill:#B5B5B5;}
	.st119{fill:#D0D0D0;}
	.st120{fill:#C7C7C7;}
	.st121{fill:#ABA290;}
	.st122{fill:#222220;}
	.st123{fill:#2B2B29;}
	.st124{fill:#D9D9D9;}
	.st125{fill:#525250;}
	.st126{fill:#272725;}
	.st127{fill:#20201E;}
</style>
<g>
	<path class="st0" d="M14.1,20.4c0-0.3,0.3-0.5,0.4-0.7c1.3-1.7,2.8-3.2,4.4-4.6c1.9-1.6,3.8-3.1,5.9-4.5c2-1.3,4.1-2.4,6.3-3.4
		c1.4-0.6,2.8-1,4.3-1.5c1.2-0.4,2.4-0.6,3.5-1c0.5-0.2,1.1-0.3,1.6-0.3c0.9,0,1.9-0.2,2.8-0.4c3.1-0.5,6.2-0.2,9.2-0.2
		c1.1,0,2.3,0.1,3.4,0.5c0.5,0.2,1,0.2,1.6,0.3c2.3,0.4,4.5,1.1,6.7,1.9c3.3,1.2,6.3,2.8,9.3,4.7c3.3,2.1,6.2,4.8,8.8,7.7
		c2.7,3,4.9,6.5,6.7,10.2c0.9,1.9,1.7,3.8,2.2,5.7c0.4,1.3,0.9,2.6,0.9,4c0,0-0.1,0-0.1,0c-0.2-0.1-0.2-0.4-0.3-0.6
		c-0.4-1.2-0.7-2.5-1.1-3.7c-0.6-1.9-1.3-3.7-2.2-5.4c-0.4-1.3-1.1-2.4-1.8-3.5c-2.2-3.7-4.8-7-7.9-9.8c-1.3-1.2-2.7-2.4-4.2-3.4
		c-0.7-0.3-1.2-0.8-1.8-1.2c-1.1-0.7-2.1-1.4-3.3-1.9c-1-0.5-1.9-1-3-1.4c-2.6-1.2-5.2-2-8-2.6c-1.2-0.3-2.4-0.5-3.6-0.7
		c-1.3-0.2-2.6-0.4-4-0.4c-1.9,0-3.8-0.1-5.7,0.1c-3.6,0.3-7,1-10.4,2.2c-1,0.3-2,0.7-3,1.1c-1.2,0.5-2.4,1-3.5,1.6
		c-3,1.6-5.8,3.5-8.3,5.7c-1.8,1.5-3.4,3.2-4.9,5c-0.1,0.1-0.2,0.2-0.3,0.2C14.5,20.3,14.3,20.5,14.1,20.4z"/>
	<path class="st0" d="M176.5,59.3c0.1,0,0.3,0,0.4,0c0.4-0.4,1-0.5,1.5-0.5c1-0.4,1.2-0.2,1.2,0.8c0,0.3,0,0.6,0,0.9
		c0.1,0.7-0.1,1.2-0.9,1.4c-1,0.3-2,0.7-3,0.7c-0.8,0-1.6,0.3-2.5,0.3c-2.7-0.2-5.1-1-6.8-3.3c-0.6-0.8-1-1.7-1.3-2.7
		c-0.2-0.8-0.2-1.5-0.2-2.3c0-0.4-0.4-0.6-0.3-0.9c0.4-1.1,0.1-2.3,0.4-3.4c0.3-1,0.6-2,1.2-2.9c1-1.4,2.1-2.7,4-3.1
		c1.5-0.4,2.9-0.3,4.3-0.2c1.8,0.2,3.3,1.2,4.3,2.7c1.4,2,1.5,4.3,1.5,6.6c0,0.6-0.3,0.8-0.9,0.8c-3.6,0-7.1,0-10.7,0
		c-0.4,0.2-0.2,0.5-0.3,0.8c0,0.3,0,0.5,0,0.8c0.3,0.3,0.5,0.8,0.5,1.2c0,0.2,0,0.4,0.3,0.4c0.2,0.2,0.3,0.5,0.4,0.8
		c0.1,0.1,0.2,0.2,0.3,0.3c0.3,0,0.5,0.2,0.7,0.4c0.6,0.5,1.4,0.7,2.2,0.7c0.3-0.1,0.4,0.1,0.5,0.3c0.2,0,0.4,0,0.5,0
		c0.2-0.1,0.4-0.4,0.7-0.3c0.4,0,0.8,0,1.2,0C176.1,59.5,176.2,59.2,176.5,59.3z"/>
	<path class="st0" d="M155.4,59.3c0.1-0.4,0.5-0.6,0.7-0.9c0.8-0.8,1-1.8,1.2-2.8c0.5-3.6,0.2-7.2,0.3-10.8c0-0.4,0.2-0.5,0.6-0.5
		c0.7,0,1.4,0,2.1,0c0.5,0,0.6,0.2,0.6,0.6c0,2.9,0,5.7,0,8.6c0,2.7,0,5.4,0,8.1c0,0.5-0.2,0.7-0.7,0.7c-0.6,0-1.2,0-1.8,0
		c-0.4,0-0.6-0.1-0.6-0.5c0-0.3,0.1-0.6-0.2-0.8c-0.4-0.2-0.5,0.2-0.7,0.4c-1,0.8-2.1,1.1-3.3,1.3c-0.7,0.1-1.3,0.3-2,0.2
		c-1.6-0.2-3.3-0.4-4.6-1.6c-0.6-0.6-0.9-1.4-1.2-2.1c-0.3-0.6-0.3-1.2-0.3-1.8c0-4.1,0-8.2,0-12.3c0-0.6,0.1-0.8,0.7-0.7
		c0.6,0,1.2,0,1.8,0c0.6-0.1,0.8,0.1,0.8,0.8c0,3.6,0,7.1,0,10.7c0,1.4,0.3,2.6,1.4,3.5c0.1,0.1,0.2,0.2,0.2,0.3c0,0-0.1,0-0.1,0
		c-0.5-0.1-0.8-0.3-1-0.7c-0.5-0.7-0.8-1.6-0.8-2.5c0-3.6,0-7.2,0-10.8c0-1,0-1-1-1c-1.8,0-1.6-0.2-1.6,1.6c0,3.6,0,7.2,0,10.8
		c0,0.4,0,0.9,0.2,1.3c0.4,2.5,2.3,3.8,4.7,4c0.8,0.1,1.7,0.2,2.5,0c1.4-0.2,2.7-0.6,3.7-1.7c0.2-0.2,0.4-0.5,0.7-0.4
		c0.3,0.1,0.4,0.5,0.4,0.8c0.1,0.9,0.1,0.9,1,0.9c1.5,0,1.4,0.1,1.4-1.4c0-5,0-10,0-15c0-1,0-1-1-1c-1.9,0-1.6-0.2-1.6,1.6
		c0,2.6,0,5.1,0,7.7c0,1.4-0.3,2.7-0.8,3.9c-0.2,0.4-0.4,0.7-0.7,1C156.1,59.1,155.8,59.3,155.4,59.3
		C155.4,59.4,155.4,59.3,155.4,59.3z"/>
	<path class="st0" d="M123.1,40.5c0.5-0.9,1.4-1.3,2.3-1.6c2.1-0.9,4.2-1,6.4-0.8c2.2,0.2,4.2,0.8,5.9,2.4c1.2,1.1,2.2,2.4,2.8,3.9
		c0.3,0.8,0.5,1.6,0.7,2.4c0.4,1.8,0.2,3.5,0.2,5.3c0,2.3-0.7,4.5-2,6.5c-1,1.5-2.3,2.5-3.8,3.3c-0.4,0.2-0.4,0.4-0.1,0.7
		c1.5,1.5,2.8,3.1,4.3,4.6c0.2,0.2,0.4,0.5,0.3,0.8c-0.1,0.3-0.5,0.2-0.7,0.2c-1.1,0-2.1,0-3.2,0c-0.4,0-0.6-0.1-0.8-0.4
		c-1-1.2-2-2.3-3-3.5c-0.1-0.1-0.2-0.2-0.3-0.3c-0.4-1.2-1.4-1.1-2.4-1.1c-0.3,0-0.6,0.1-0.7-0.3c0,0,0.1-0.1,0.2-0.1
		c0.8,0.1,1.5-0.1,2.3,0.1c0.8,0.5,1.2,1.4,1.9,2c0.8,0.8,1.5,1.7,2.2,2.6c0.2,0.2,0.4,0.4,0.7,0.4c1.1,0,2.2,0,3.5,0
		c-0.3-0.5-0.7-0.8-1-1.2c-1.2-1.2-2.3-2.4-3.5-3.6c-0.7-0.7-0.6-1,0.3-1.4c2.8-1.4,4.4-3.7,5.2-6.6c0.7-2.6,0.7-5.3,0.2-8
		c-0.6-3.1-2.1-5.6-4.9-7.2c-0.9-0.5-1.8-0.8-2.7-1c-2.7-0.7-5.4-0.3-7.9,0.7c-0.4,0.2-0.7,0.4-1.1,0.6
		C123.8,40.1,123.6,40.6,123.1,40.5z"/>
	<path class="st0" d="M240.6,49.6c0-4,0-8,0-11.9c0-0.6,0.1-0.8,0.7-0.8c0.6,0.1,1.3,0,1.9,0c0.5,0,0.6,0.2,0.6,0.7c0,3,0,6.1,0,9.1
		c0,5,0,9.9,0,14.9c0,0.6-0.1,0.9-0.8,0.8c-0.6-0.1-1.3,0-1.9,0c-0.6,0-0.6-0.3-0.6-0.7C240.6,57.6,240.6,53.6,240.6,49.6z"/>
	<path class="st0" d="M257.8,47c-0.1-0.4,0.3-0.6,0.5-0.9c1.2-1.3,2.7-2.1,4.5-2.1c0.7,0,1.4,0,2,0c1.3,0,2.4,0.5,3.4,1.3
		c0.1,0.1,0.3,0.2,0.4,0.3c0.1,0,0.2,0.1,0.3,0.1c0-0.9,0-1.7,0-2.5c0-1.9,0-3.8,0-5.7c0-0.5,0.1-0.7,0.6-0.7c0.7,0,1.4,0,2.1,0
		c0.4,0,0.6,0.2,0.5,0.6c0,0.1,0,0.3,0,0.4c0,7.9,0,15.7,0,23.6c0,0.6-0.1,0.9-0.8,0.8c-0.5-0.1-1,0-1.4,0c-0.6,0-0.8-0.2-0.8-0.8
		c0-0.2,0-0.5,0-0.8c-0.6,0.2-0.8,0.8-1.4,0.8c-0.1-0.1-0.1-0.1,0-0.2c0.2-0.5,0.7-0.8,1-1.2c0.3-0.3,0.5-0.2,0.7,0.2
		c0.1,0.3,0.2,0.7,0.3,1.1c0.1,0.5,0.3,0.7,0.8,0.6c0.2,0,0.4,0,0.5,0c0.4,0,0.6-0.2,0.6-0.6c0-0.2,0-0.4,0-0.6c0-7.4,0-14.8,0-22.2
		c0-0.1,0-0.2,0-0.3c0-0.8-0.1-1-0.9-1c-1.4,0-1.5,0-1.5,1.5c0,1.5,0,3,0,4.5c0,0.9,0.1,1.8,0.2,2.7c0,0.3,0,0.5-0.2,0.7
		c-0.3,0.1-0.4-0.1-0.6-0.2c-1.9-2.2-5.9-2.6-8.6-1.1c-0.1,0-0.1,0.1-0.2,0.1c-0.7,0.2-1,0.8-1.6,1.2
		C258.3,46.7,258.2,47.1,257.8,47z"/>
	<path class="st0" d="M115.2,55.4c0,3.4,0.1,6.9,0,10.3c-0.1,1.7-0.7,3.3-2.4,4.1c-0.6,0.3-1.2,0.5-1.9,0.4c-0.8-0.1-1.5,0-2.3,0
		c-0.9,0-1.2-0.3-1.2-1.2c0-0.1,0-0.2,0-0.3c0.2-0.5-0.5-1.3,0.4-1.5c0.5-0.1,1.2-0.2,1.7,0.1c0.8,0.4,2.1-0.6,2.2-1.5
		c0.6-6.9,0.1-13.8,0.3-20.7c0-0.9,0-0.9,0.9-0.9c0.6,0,1.1,0,1.7,0c0.6,0,0.7,0.2,0.7,0.7C115.2,48.5,115.2,52,115.2,55.4z"/>
	<path class="st0" d="M234.9,51.4c1,0.3,1.3,1.2,1.6,2c0.6,1.5,0.5,3.1,0.1,4.7c-0.5,2.1-2.1,3.2-3.9,4c-0.8,0.4-1.7,0.5-2.7,0.6
		c-0.7,0.1-1.4,0.3-2.1,0.2c-2-0.2-4.1-0.2-6-1.1c-0.2-0.1-0.4-0.2-0.4-0.5c0-0.8,0-1.6,0-2.4c0-0.7,0.7-0.5,0.9-0.4
		c2.5,1.1,5.1,1.1,7.7,1c1.1-0.1,2.7-1,3.2-2.5c0.6-2-1-3.7-2.3-4.3c-2.1-0.9-4.3-1.5-6.2-2.7c-0.4-0.3-0.8-0.6-1.1-1.1
		c0,0,0.1,0,0.1,0c0.1,0,0.2,0,0.3,0.1c1.6,1.3,3.5,1.9,5.3,2.6c0.9,0.4,1.9,0.8,2.7,1.3c1.4,0.9,1.9,2.2,1.7,3.8
		c-0.2,1.4-1.1,2.3-2.3,2.8c-1.6,0.6-3.2,0.7-4.9,0.4c-1.4-0.2-2.8-0.5-4.1-1c-0.5-0.2-0.7,0-0.7,0.5c0,0.1,0,0,0,0.1
		c-0.1,1.8,0.3,2.1,2.1,2.5c2,0.4,4,0.3,6,0.2c1.7-0.1,3.3-0.6,4.5-1.8c2.2-1.8,2.6-5.5,1.1-7.9c-0.2-0.4-0.6-0.6-0.8-1
		C234.8,51.5,234.8,51.5,234.9,51.4z"/>
	<path class="st1" d="M194.7,45.5c0,0.3,0,0.6,0,1c-0.2,0.8-0.4,0.9-1.1,0.6c-0.7,0-1.5,0-2.2,0c-0.2,0.1-0.4,0.2-0.5,0.3
		c-0.4,0-0.8,0.3-1.1,0.6c-0.4,0.3-0.8,0.7-1.1,1.1c-0.4,0.5-0.7,1-0.8,1.6c-0.1,0.2-0.1,0.4-0.3,0.5c0,0.2,0,0.5,0,0.7
		c-0.1,0.2-0.1,0.5-0.1,0.7c0,3,0,6,0,9c0,0.3,0.1,0.6-0.3,0.7c-0.3-0.2-0.2-0.5-0.2-0.8c0-2.9,0-5.8,0-8.7c0-0.9,0.2-1.7,0.5-2.6
		c0.5-1.3,1.3-2.3,2.5-3c1.1-0.5,2.2-0.6,3.4-0.4c0.6,0.1,0.8-0.2,0.9-0.7c0.3-1.5,0.2-1.7-1.3-1.7c-0.7,0-1.5-0.1-2.2,0.3
		c-0.2,0.1-0.5,0.2-0.7,0c0.3-0.4,0.8-0.5,1.2-0.6c2.2-0.2,4.3,0.4,6.5,0.3c0.3,0,0.4,0.2,0.5,0.4c0.2,0.4,0.3,0.8,0.5,1.3
		c0.1,0.2,0.2,0.4,0.3,0.5c0,0.3,0.2,0.6,0.3,0.8c0.1,0.2,0.2,0.4,0.3,0.5c0,0.4,0.3,0.6,0.3,1c0,0.1,0,0.1,0,0.2
		c-0.1,0-0.1,0-0.2-0.1c-0.5-0.8-0.7-1.7-1.1-2.5c-0.9-2.2-0.4-1.7-2.6-1.8c-0.7,0-0.7,0.1-0.5,0.7c0.9,2.5,2,4.8,2.9,7.3
		c0.4,1,0.8,2,1.2,3c0.5,1.3,1,2.5,1.5,3.7c0.1,0.3,0.3,0.5,0.1,0.8c-0.1,0.1-0.1,0.1-0.2,0c-0.5-0.9-0.8-2-1.3-3
		c-0.6-1.3-1.1-2.6-1.6-3.9c-1-2.5-1.9-5-2.9-7.5c-0.1-0.1-0.2-0.3-0.2-0.4C194.7,45.1,194.8,45.5,194.7,45.5z"/>
	<path class="st0" d="M248.8,53.3c0-2.8,0-5.5,0-8.3c0-0.5,0.1-0.7,0.7-0.7c0.7,0,1.4,0,2,0c0.6,0,0.7,0.3,0.6,0.8
		c-0.1,0.3-0.1,0.7-0.1,1c0,4.7,0,9.5,0,14.2c0,0.5,0,0.9,0.1,1.4c0.1,0.4-0.1,0.7-0.6,0.7c-0.7,0-1.5,0-2.2,0
		c-0.5,0-0.6-0.2-0.6-0.6C248.8,58.9,248.8,56.1,248.8,53.3z"/>
	<path class="st0" d="M296,62.3c-0.5,0-0.4-0.4-0.4-0.7c0-2.6,0-5.1,0-7.7c0-2.9,0-5.7,0-8.6c0-0.8,0.1-0.9,0.9-0.9
		c0.4,0,0.9,0,1.3,0c0.6-0.1,0.9,0.1,0.8,0.7c-0.1,0.5,0.1,1,0.4,1.5c0.9-1.1,1.9-1.9,3.2-2.4c0.4-0.1,0.7-0.1,1.1-0.1
		c0.8,0,1.6,0,2.5,0c0.8,0,1.1,0.3,0.8,1.1c-0.2,0.5-0.2,1-0.2,1.5c0,0.7-0.4,0.8-1.1,0.6c-1.3-0.3-2.5-0.2-3.6,0.6
		c-0.4,0.3-0.7,0.5-1.1,0.8c-0.1-0.1-0.1-0.2-0.1-0.3c0.1-0.4,0.5-0.6,0.8-0.8c1.1-0.7,2.2-1,3.5-0.7c1,0.2,1.1,0,1.2-1
		c0.1-1.3,0.1-1.2-1.2-1.3c-2.4-0.2-4.1,0.8-5.5,2.7c-0.1,0.2-0.3,0.4-0.5,0.3c-0.3-0.1-0.3-0.3-0.4-0.5c-0.1-0.4,0-0.9-0.1-1.4
		c0-0.7-0.1-0.9-0.8-0.8c-0.4,0-1-0.2-1.3,0.2c-0.1,0.2,0,0.4,0,0.5c0,5.5,0,11,0,16.5c0,0,0,0.1,0,0.1C296,62.2,296,62.2,296,62.3z
		"/>
	<path class="st0" d="M187.2,62.2c0.4-0.1,0.3-0.5,0.3-0.8c0-2.9,0-5.9,0-8.8c0-0.3-0.1-0.5,0.1-0.8c0,3.2,0,6.5,0,9.7
		c0,0.7-0.2,0.9-0.9,0.9c-0.7,0-1.4,0-2.1,0c-0.4,0-0.6-0.2-0.6-0.6c0-5.6,0-11.2,0-16.8c0-0.3,0-0.6,0.4-0.6
		c0.1,0.1,0.1,0.1,0.1,0.2c0.1,0.3,0,0.7,0,1c0,5.1,0,10.3,0,15.4c0,1,0,1,1.1,1.1C186.2,62,186.7,61.9,187.2,62.2z"/>
	<path class="st2" d="M16.8,78.6c-1.5-1.6-2.9-3.3-4.2-5.1c-1.8-2.5-3.3-5.2-4.5-8c-1-2.3-1.8-4.7-2.4-7.2c-0.4-1.8-0.7-3.6-0.9-5.5
		c-0.3-2.6-0.2-5.2-0.2-7.7c0-1.1,0.2-2.1,0.4-3.2c0.3,0.3,0.2,0.6,0.2,0.9c0,1.5-0.3,3-0.3,4.5c0,3.7,0.4,7.3,1.2,10.9
		c1.2,4.9,3.2,9.4,5.9,13.7c1,1.6,2.2,3.1,3.4,4.5c0.3,0.6,0.9,1,1.3,1.5c0.2,0.2,0.5,0.4,0.3,0.7C17,78.6,16.9,78.6,16.8,78.6z"/>
	<path class="st3" d="M187.2,62.2c-0.7,0-1.4,0-2,0c-0.6,0-0.7-0.2-0.7-0.7c0-4.2,0-8.5,0-12.7c0-1.4-0.1-2.9,0-4.3
		c0.7-0.2,1.3-0.1,2-0.1c0.4,0,0.5,0.4,0.5,0.7c0,0.5,0.1,0.9,0.1,1.4c0,0.1,0,0.3,0.2,0.3c0.1-0.1,0.2-0.2,0.3-0.3
		c0,0,0.1-0.1,0.1-0.1c0.3-0.4,0.7-0.7,1.1-1c0.3-0.5,0.8-0.5,1.3-0.8c1.2-0.5,2.4-0.5,3.7-0.4c0.8,0,0.9,0.1,0.8,0.9
		c-0.3,2.4,0,1.8-2.1,1.7c-0.9-0.1-1.7,0.2-2.4,0.5c0-0.4,0.3-0.5,0.6-0.6c0.8-0.3,1.6-0.4,2.5-0.3c0.3,0,0.7,0.2,0.8-0.2
		c0.2-0.5,0.4-1,0.2-1.4c-0.1-0.3-0.5-0.3-0.7-0.3c-2.2-0.2-4,0.6-5.3,2.3c-0.1,0.2-0.2,0.3-0.4,0.5c-0.2,0.2-0.4,0.5-0.7,0.4
		c-0.3-0.1-0.4-0.5-0.4-0.7c-0.1-0.5,0-1.1-0.1-1.6c-0.1-0.5-0.4-0.6-1.1-0.6c-0.5,0-0.6,0.3-0.6,0.7c0,5.2,0,10.4,0,15.6
		c0,0.5,0.2,0.7,0.7,0.7c1.4,0.1,1.4,0.1,1.4-1.3c0-2.6,0-5.2,0-7.9c0-0.7,0.1-1.4,0.3-2.1c0.1-0.3,0.1-0.7,0.6-0.6
		c-1,3.4-0.4,6.9-0.5,10.3C187.2,60.9,187.2,61.5,187.2,62.2z"/>
	<path class="st0" d="M224.2,39.7c0.4-0.7,1.1-0.8,1.7-1.1c1.7-0.6,3.4-0.7,5.1-0.5c1.1,0.1,2.3,0.3,3.4,0.7
		c0.4,0.1,0.8,0.3,1.1,0.3c0.6,0.1,0.8,0.5,0.7,1c-0.2,0.6-0.4,1.3-0.7,1.9c-0.2,0.4-0.4,0.4-0.7,0.3c-1.4-0.6-2.9-0.9-4.5-1.1
		c-0.8-0.1-1.6,0.1-2.5,0.1c-1.3,0.1-2.5,1.5-2.6,2.8c-0.1,1.1,0.2,2,1.1,2.7c0.1,0.1,0.3,0.2,0.3,0.4c0,0-0.1,0-0.1,0.1
		c-0.2,0-0.3,0-0.5-0.1c-2.2-2-1.5-5.2,1.2-6.2c1.3-0.4,2.5-0.5,3.8-0.2c1.1,0.2,2.3,0.5,3.3,0.9c0.5,0.2,0.7,0,0.8-0.4
		c0.1-0.2,0.1-0.3,0.2-0.5c0.4-1.1,0.4-1.1-0.7-1.5c-1.1-0.4-2.3-0.7-3.5-0.7c-1-0.1-2.1-0.1-3.1,0c-0.1,0-0.3,0.1-0.4,0.1
		c-1,0.1-1.9,0.4-2.7,0.9c-0.1,0-0.1,0.1-0.2,0.1C224.6,39.7,224.5,39.8,224.2,39.7C224.3,39.7,224.2,39.7,224.2,39.7z"/>
	<path class="st4" d="M46.9,92.1c-0.3,0-0.5,0-0.8,0c-0.3-0.2-0.7,0-1-0.1c-0.1,0-0.2,0-0.3,0c-0.5-0.2-1,0-1.5-0.1
		c-0.4,0-0.7,0-1.1-0.1c-0.3-0.2-0.6,0-0.8-0.1c-0.3,0-0.6,0-0.8-0.1c-0.2-0.2-0.5,0-0.7-0.1c-1.2-0.1-2.3-0.5-3.4-0.8
		c-2.6-0.7-5.1-1.7-7.5-2.9c-0.5-0.2-0.9-0.5-1.4-0.8c0-0.1,0-0.1,0-0.2c0.3-0.1,0.6,0.1,0.8,0.2c2.8,1.5,5.8,2.7,8.9,3.5
		c1.7,0.4,3.3,0.9,5.1,1c1.3,0.3,2.7,0.3,4,0.4c0.8,0.1,1.6,0.2,2.4,0.1c1.9-0.2,3.7-0.2,5.6-0.5c1.2-0.2,2.4-0.4,3.7-0.6
		c0.4,0.1,0.8-0.2,1.3,0c0,0.2,0,0.2-0.5,0.3l0,0c-0.4,0.3-0.8,0.1-1.2,0.3l0,0c-0.6,0.2-1.3,0.2-2,0.4c-0.3,0-0.6,0-0.9,0.1
		c-0.4,0.1-0.7,0.3-1.1,0.2c-0.5,0-1,0-1.4,0c-0.1,0-0.1,0-0.2,0c-0.3,0-0.6-0.1-0.9,0.1c-0.3,0-0.5,0-0.8,0
		C49.3,92.2,48.1,92.2,46.9,92.1z"/>
	<path class="st1" d="M201,60.2c0.1,0,0.1,0,0.2,0c0.6,0.4,1.2,1.9,0.9,2.5c-0.5,1.3-0.9,2.5-1.6,3.7c-0.9,1-1.9,1.6-3.3,1.5
		c-0.2,0-0.4,0-0.5,0c-1.1,0-1.4,0.4-1.1,1.4c0.1,0.2,0.2,0.3,0.4,0.4c2.1,0.8,5-0.1,6.3-1.9c1.1-1.4,1.6-3,2.2-4.6
		c0.1-0.3,0.2-0.5,0.4-0.7c0.1,0,0.1-0.1,0.2,0c0.1,0,0.1,0.1,0,0.2c-0.1,0.6-0.5,1-0.6,1.6c-0.1,0.2-0.1,0.4-0.3,0.5
		c-0.5,1.2-1,2.3-1.8,3.4c-0.7,0.9-1.6,1.4-2.6,1.8c-1.3,0.5-2.6,0.1-3.9,0.3c-0.2-0.1-0.4-0.1-0.5-0.3c-0.4,0-0.4-0.2-0.4-0.5
		c0-0.6,0-1.2,0-1.8c0.1-0.2,0.2-0.3,0.4-0.4c0.1,0,0.2,0,0.3,0c0.2,0.1,0.5,0.1,0.7,0.3c1.2,0.2,2.3-0.2,3.2-0.9
		c0.8-0.6,1.1-1.5,1.5-2.4c0.1-0.3,0.3-0.6,0.4-0.9c0.2-0.6,0.5-1.2,0.2-1.8c-0.1-0.2-0.2-0.4-0.3-0.5
		C201.3,60.7,200.9,60.5,201,60.2z"/>
	<path class="st5" d="M205.1,62.5c0,0-0.1,0-0.1,0c-0.2-0.3,0-0.5,0-0.8c0.7-2,1.5-4,2.3-6.1c1.3-3.4,2.6-6.8,3.9-10.2
		c0.2-0.6,0.2-0.8-0.5-0.8c-1.9,0-1.7-0.2-2.4,1.5c-0.9,2.4-1.7,4.9-2.6,7.2c-0.1,0.1-0.2,0.2-0.3,0.2c-0.1,0-0.1-0.1-0.1-0.1
		c0-0.2,0.1-0.3,0.2-0.4c0-0.1,0-0.2,0-0.3c0.1-0.2,0.1-0.4,0.3-0.6c0,0,0-0.1,0-0.1c0.1-0.2,0.1-0.5,0.3-0.7c0,0,0-0.1,0-0.1
		c0.1-0.2,0.1-0.4,0.3-0.6c0,0,0-0.1,0-0.1c0.1-0.2,0-0.4,0.3-0.6c0-0.1,0-0.2,0-0.3c0.1-0.2,0.1-0.4,0.3-0.6c0-0.1,0-0.2,0-0.3
		c0.1-0.2,0.1-0.4,0.3-0.6c0,0,0-0.1,0-0.1c0.1-0.2,0.1-0.5,0.3-0.7c0,0,0-0.1,0-0.1c0.1-0.2,0.1-0.4,0.3-0.6c0,0,0-0.1,0-0.1
		c0.1-0.2,0-0.4,0.3-0.6c0-0.1,0-0.2,0-0.3c0.1-0.2,0.1-0.4,0.3-0.6c0,0,0-0.1,0-0.1c0.1-0.2,0.1-0.5,0.3-0.7
		c0.2-0.3,0.4-0.3,0.7-0.3c0.8,0,1.6,0,2.4,0c0.5,0.2,0.4,0.5,0.2,0.8c0,0,0,0.1,0,0.1c-0.1,0.2-0.1,0.5-0.3,0.7c0,0,0,0.1,0,0.1
		c-0.1,0.2-0.1,0.4-0.3,0.6c0,0,0,0.1,0,0.1c-0.1,0.2-0.1,0.4-0.3,0.6c0,0,0,0.1,0,0.1c-0.1,0.2-0.1,0.5-0.3,0.7l0,0
		c-0.1,0.2-0.1,0.5-0.3,0.7c0,0,0,0.1,0,0.1c-0.1,0.2-0.1,0.4-0.3,0.6c0,0,0,0.1,0,0.1c-0.1,0.2-0.1,0.5-0.3,0.7l0,0
		c-0.1,0.2,0,0.4-0.3,0.5c0,0.1,0,0.2,0,0.3c-0.1,0.2-0.1,0.4-0.3,0.6c0,0,0,0.1,0,0.1c-0.1,0.2-0.1,0.5-0.3,0.7l0,0
		c-0.1,0.2,0,0.4-0.3,0.5c0,0.1,0,0.2,0,0.3c-0.1,0.2-0.1,0.4-0.3,0.6c0,0,0,0.1,0,0.1c-0.1,0.2-0.1,0.5-0.3,0.7l0,0
		c-0.1,0.2-0.1,0.4-0.3,0.5c0,0,0,0.1,0,0.1c-0.1,0.2-0.1,0.5-0.3,0.7c0,0,0,0.1,0,0.1c-0.1,0.2-0.1,0.4-0.3,0.6c0,0,0,0.1,0,0.1
		c-0.1,0.2-0.1,0.4-0.3,0.6c0,0,0,0.1,0,0.1c-0.1,0.2-0.1,0.5-0.3,0.7c0,0,0,0.1,0,0.1c-0.1,0.2-0.1,0.4-0.3,0.6c0,0,0,0.1,0,0.1
		c-0.1,0.2-0.1,0.4-0.3,0.6c0,0,0,0.1,0,0.1c-0.1,0.2-0.1,0.5-0.3,0.7c0,0,0,0.1,0,0.1c-0.1,0.2-0.1,0.4-0.3,0.6c0,0,0,0.1,0,0.1
		c-0.1,0.2-0.1,0.4-0.3,0.6c0,0,0,0.1,0,0.1C205.3,62.1,205.3,62.4,205.1,62.5z"/>
	<path class="st6" d="M5,43c0-0.3,0-0.7,0-1c0.4-3.3,1.3-6.6,2.5-9.7c1.2-3.2,2.8-6.2,4.7-9c0.5-0.8,1.2-1.6,1.8-2.4
		c0.1-0.1,0.3-0.3,0.3-0.5c0.1-0.1,0.3-0.2,0.4-0.3c0.1,0.1,0.1,0.2,0.1,0.4c0,0.1-0.1,0.2-0.2,0.4c-0.8,0.7-1.4,1.7-2,2.6
		c-1,1.5-2,3.1-2.7,4.8c-1.1,2-1.9,4.1-2.6,6.3c-0.7,2.1-1.2,4.2-1.6,6.4c-0.1,0.5-0.1,1-0.2,1.5C5.2,42.7,5.2,42.9,5,43z"/>
	<path class="st7" d="M131.3,62.8c-0.8-0.1-1.6,0-2.5-0.1c-0.3,0-0.6,0-0.9,0c-0.2-0.1-0.5-0.1-0.7-0.3c-0.2,0-0.4,0-0.5,0
		c-0.2-0.1-0.4-0.1-0.6-0.3c-0.1,0-0.2,0-0.3,0c-0.2-0.1-0.4-0.1-0.6-0.3c-0.7-0.1-1.2-0.6-1.7-0.9c-1.5-1.1-2.6-2.5-3.2-4.3
		c-0.1-0.2-0.2-0.4-0.3-0.6c0-0.1,0-0.2,0-0.3c-0.2-0.1-0.2-0.4-0.3-0.6c0-0.1,0-0.2,0-0.3c-0.2-0.3-0.1-0.7-0.3-1
		c0-0.2,0-0.4,0-0.5c-0.3-0.4-0.1-0.9-0.3-1.4c0-1.1,0-2.3,0-3.4c0.2-0.4-0.1-1,0.3-1.4c0-0.2,0-0.5,0-0.7c0.1-0.2,0.1-0.5,0.3-0.7
		c0-0.1,0-0.3,0-0.4c0.1-0.1,0-0.5,0.4-0.2c0.1,0.9-0.3,1.7-0.4,2.5c-0.4,2.5-0.2,4.9,0.5,7.3c0.8,2.5,2.2,4.5,4.5,5.9
		c1.3,0.8,2.8,1.1,4.3,1.2c0.5,0,1.1,0,1.6,0C131,62.3,131.3,62.3,131.3,62.8z"/>
	<path class="st8" d="M283.4,44c0.6,0,1.2,0,1.9,0c0.4,0.2,0.9-0.1,1.2,0.3c0,0,0.1,0,0.1,0c0.2,0.1,0.5,0,0.7,0.3c0,0,0.1,0,0.1,0
		c0.4,0.1,0.7,0.2,1,0.5l0,0c0.8,0.5,1.5,1.1,1.9,1.9c0.1,0.1,0.2,0.3,0.2,0.4c0.2,0.1,0.2,0.4,0.3,0.5l0,0c0.2,0.2,0.1,0.5,0.3,0.7
		l0,0c0.2,0.2,0.1,0.6,0.3,0.8l0,0c0.4,0.6,0.1,1.3,0.3,1.9c0,0.8,0,1.5,0,2.3c-0.1,0.2-0.2,0.4-0.5,0.4c-3.8,0-7.7,0-11.5,0
		c0.1-0.5,0.5-0.3,0.7-0.4c1.5,0,3,0,4.4,0c1.8,0,3.6,0,5.4,0c0.3,0,0.5,0.1,0.8-0.1c0.2-0.2,0.2-0.5,0.2-0.7c0-1.3,0-2.6-0.4-3.8
		c-0.8-2.5-2.5-4.1-5.1-4.5c-0.9-0.1-1.7-0.2-2.6,0c-0.2,0.1-0.4,0.1-0.7,0c-0.1,0-0.1-0.1-0.1-0.2C282.7,44,283.1,44.2,283.4,44z"
		/>
	<path class="st9" d="M120.3,55.4c-0.5-0.9-0.5-1.9-0.7-2.9c-0.4-2.5,0-4.9,0.5-7.2c-0.1-0.6,0.3-1.1,0.5-1.6
		c0.3-0.8,0.8-1.5,1.4-2.1l0,0c0.2-0.4,0.5-0.6,0.8-0.8c0.1-0.1,0.2-0.2,0.3-0.3c0.3-0.2,0.6-0.4,0.9-0.6c0.1,0.1,0.1,0.1,0.1,0.2
		c-0.1,0.2-0.3,0.4-0.5,0.5c-1.8,1.4-2.8,3.4-3.4,5.6c-0.6,2.4-0.5,4.7-0.3,7.1c0,0.5,0.2,0.9,0.3,1.3
		C120.3,54.9,120.5,55.2,120.3,55.4z"/>
	<path class="st10" d="M75,83.5c0,0-0.1,0-0.1,0c-1.1,1-2.3,1.6-3.5,2.4c-0.2,0-0.4,0.2-0.6,0.3c-2.4,1.5-5,2.6-7.6,3.6
		c-0.3,0-0.5,0.2-0.8,0c0-0.4,0.3-0.4,0.5-0.5c2.4-0.9,4.8-1.9,7-3.2c2.1-1.2,4.1-2.6,6-4c0.1,0,0.2,0,0.3,0c0.1,0,0.1,0.1,0.1,0.1
		c-0.1,0.4-0.5,0.5-0.7,0.7C75.4,83.2,75.2,83.3,75,83.5z"/>
	<path class="st11" d="M279.4,61c-0.6-0.6-1.3-1.1-1.7-1.9c-0.4-0.4-0.6-1-0.8-1.5c0,0,0-0.1,0-0.1c-0.2-0.2-0.2-0.6-0.3-0.8
		c0,0,0-0.1,0-0.1c-0.2-0.4-0.1-0.8-0.3-1.2c0-0.4,0-0.7,0-1.1c-0.2-0.5-0.2-0.9,0-1.4c0-0.4,0-0.8,0-1.2c0.1-0.3,0-0.6,0.3-0.9
		c0.1,0,0.1,0,0.2,0.1c0.2,0.7-0.1,1.5-0.1,2.2c0,3.1,0.5,6,3.3,7.9c0.8,0.6,1.7,0.9,2.7,1.2c0.2,0.1,0.4,0.1,0.5,0.3
		c0,0.1,0,0.1-0.1,0.1c-0.3,0-0.6,0-0.9-0.2c-0.1,0-0.2,0-0.3,0c-0.2-0.1-0.5-0.1-0.7-0.3c-0.4-0.1-0.8-0.3-1.1-0.5
		C279.9,61.4,279.6,61.2,279.4,61z"/>
	<path class="st12" d="M27.6,86.6c0,0.1,0,0.1,0,0.2c-1.8-0.8-3.3-1.9-4.9-3c-2-1.5-3.9-3.1-5.7-4.9c-0.1-0.1-0.1-0.2-0.2-0.3
		c0.1,0,0.1,0,0.2,0c0.3-0.1,0.4,0.1,0.5,0.3c0.7,0.7,1.5,1.4,2.2,2.1c0.1,0.1,0.2,0.2,0.4,0.3c0.1,0,0.2,0.1,0.2,0.2
		c1.7,1.5,3.6,2.8,5.5,4c0.4,0.2,0.8,0.5,1.2,0.7C27.4,86.2,27.6,86.3,27.6,86.6z"/>
	<path class="st0" d="M111.7,39.8c0-1.5,0.5-2,1.8-2.1c1.2-0.1,2,0.8,2,2.1c-0.1,1.4-0.6,2-2.2,2C112.1,41.8,111.7,41.2,111.7,39.8z
		"/>
	<path class="st13" d="M78.9,80.4c-0.1,0.1-0.2,0.2-0.3,0.3c-0.4,0.2-0.6,0.6-1,0.8l0,0c-0.4,0.2-0.6,0.6-1,0.8l0,0
		c-0.1,0.1-0.3,0.1-0.4,0l-0.1,0c0.2-0.5,0.7-0.8,1-1.1c3.1-2.6,5.6-5.6,7.9-8.9c0,0,0.1-0.1,0.1-0.1c0.1-0.1,0.2-0.2,0.4-0.1
		c0.1,0.1,0.1,0.2,0,0.3c0,0.1-0.1,0.3-0.1,0.4c-0.4,0.5-0.7,1-1.1,1.5l0,0c-0.4,0.6-0.9,1.2-1.4,1.8l0,0c-0.2,0.4-0.6,0.6-0.8,1
		l0,0c-0.3,0.5-0.8,0.8-1.1,1.2l0,0C80.4,79,79.6,79.7,78.9,80.4z"/>
	<path class="st0" d="M299.1,51.1c0,3.5,0,7,0,10.5c0,0.3,0,0.7-0.4,0.7c0-0.1,0-0.2,0-0.3c0-3.2,0-6.4,0-9.6
		C298.6,52,298.6,51.5,299.1,51.1z"/>
	<path class="st0" d="M223.7,49c-1-0.6-1.3-1.6-1.7-2.6c-0.2-0.8-0.2-1.6-0.2-2.4c0-1.5,0.6-2.7,1.6-3.8c0.2-0.3,0.5-0.5,0.9-0.5
		c0,0,0,0,0,0c0,0.2-0.1,0.3-0.2,0.5c-0.2,0.2-0.3,0.3-0.5,0.5c-1.3,1.4-1.5,3.1-1.3,4.8c0.1,1.1,0.5,2.1,1.2,2.9
		C223.6,48.5,223.8,48.7,223.7,49L223.7,49z"/>
	<path class="st0" d="M92.5,42c0.2,0.2,0.3,0.4,0.3,0.6c0,2,0.3,4,0.3,6c0,1.6-0.4,3.2-0.3,4.9c0,0.2-0.1,0.4-0.3,0.6
		c0,0-0.1-0.1-0.1-0.1c-0.3-0.8,0-1.5,0.1-2.3c0.1-1.1,0.1-2.2,0.1-3.3c0-1.8,0-3.7-0.2-5.5C92.3,42.6,92.3,42.3,92.5,42
		C92.5,42,92.5,42,92.5,42z"/>
	<path class="st0" d="M63.2,89.7c2.7-1,5.2-2.1,7.7-3.5c0.1-0.1,0.2-0.1,0.3-0.1c0,0,0,0,0.1,0.1c-1,0.8-2.2,1.3-3.3,1.9
		c-1.4,0.8-3,1.2-4.4,1.9c-0.2,0.1-0.4,0-0.6,0.1c0,0,0-0.1,0-0.1C62.9,89.7,63.1,89.8,63.2,89.7z"/>
	<path class="st14" d="M267.9,61.4c0,0,0,0.1,0,0.1c0,0,0,0,0,0c-0.3,0.3-0.6,0.4-1,0.5l0,0c-0.2,0.2-0.5,0.2-0.7,0.3l0,0
		c-0.3,0.2-0.7,0.1-1,0.3c-0.2,0-0.3,0-0.5,0c-0.6,0.2-1.3,0.2-1.9,0c-0.2,0-0.4,0-0.5,0c-0.3-0.1-0.7,0-1-0.3l-0.1,0l-0.1,0
		c-0.2-0.1-0.5-0.1-0.7-0.3l0,0c-0.2-0.1-0.4-0.1-0.5-0.3l0,0c-0.3-0.1-0.6-0.3-0.8-0.5c-0.4-0.3-0.8-0.7-1.1-1.1
		c-0.2-0.2-0.4-0.5-0.5-0.8l0,0c-0.1-0.1-0.1-0.2,0-0.3c0.1,0,0.1,0,0.2,0c0.4,0.3,0.7,0.8,1,1.2c1.8,1.9,4,2.4,6.5,1.9
		c0.7-0.1,1.4-0.4,2-0.7C267.5,61.3,267.7,61.2,267.9,61.4z"/>
	<path class="st15" d="M299.1,51.1c-0.2,0.5-0.3,0.9-0.3,1.5c0,3,0,5.9,0,8.9c0,0.3,0.1,0.5-0.1,0.8c0,0-0.1-0.1-0.1-0.1
		c-0.1-0.2-0.1-0.5-0.1-0.7c0-3.2,0-6.4,0-9.6c0.2-0.9,0.3-1.8,1-2.5c0.1,0,0.2,0,0.2,0.1c0,0.1-0.1,0.2-0.1,0.3
		c-0.1,0.2-0.1,0.5-0.3,0.7l0,0c-0.1,0.2-0.1,0.5-0.3,0.7C299.1,51,299.1,51.1,299.1,51.1z"/>
	<path class="st16" d="M256.7,49.5c0-0.1,0-0.2,0-0.3c0.1,0,0.1,0,0.2,0c0.1,0.1,0.1,0.3,0.1,0.5c0,0.8-0.2,1.5-0.3,2.3
		c-0.1,1.7,0,3.3,0.3,4.9c0,0.2,0,0.4-0.1,0.6c-0.1,0.1-0.1,0.1-0.2,0c0-0.1,0-0.2,0-0.3c-0.2-0.2-0.1-0.5-0.3-0.7
		c0-0.2,0-0.5,0-0.7c-0.3-0.6-0.1-1.3-0.3-1.9c0-0.4,0-0.8,0-1.2c0.2-0.6-0.1-1.3,0.3-1.9c0-0.2,0-0.5,0-0.7
		C256.6,50,256.6,49.7,256.7,49.5z"/>
	<path class="st0" d="M290.4,58.8c0.4-0.3,0.8-0.1,0.8,0.4c0.1,0.7,0.1,1.4,0,2c0,0.6-0.6,0.6-1,0.7c-1,0.4-1.9,0.7-3,0.7
		c0-0.1,0-0.1,0-0.2c0.9-0.4,1.9-0.5,2.8-0.9c0.2-0.1,0.4-0.1,0.6-0.3c0.3-0.7,0.1-1.3,0.1-2c0-0.1,0-0.1-0.1-0.2
		C290.6,58.9,290.4,58.9,290.4,58.8z"/>
	<path class="st17" d="M205.2,53.4c0,0.1,0,0.1,0,0.2c0.2,0.2,0.1,0.4,0,0.6c-0.5,1.4-1,2.8-1.5,4.2c-0.1,0.2-0.1,0.4-0.3,0.5
		c-0.3,0-0.4-0.2-0.4-0.4c-0.3-1.2-0.9-2.4-1-3.6c0.2-0.2,0.2,0,0.3,0.1c0,0.1,0,0.2,0,0.3c0.1,0.2,0.2,0.4,0.3,0.5
		c0,0.1,0,0.2,0,0.3c0.2,0.1,0.1,0.4,0.3,0.5c0,0.1,0,0.2,0,0.3c0.1,0.2,0.2,0.4,0.3,0.5c0,0.1,0,0.2,0,0.3c0.2,0.5,0.4,0.2,0.5,0
		c0-0.1,0-0.2,0-0.3c0.1-0.2,0.1-0.4,0.3-0.5c0-0.1,0-0.2,0-0.3c0.1-0.2,0.1-0.4,0.3-0.5c0-0.1,0-0.2,0-0.3c0.1-0.2,0.1-0.4,0.3-0.6
		c0-0.4,0.3-0.6,0.3-1c0.1-0.2,0.1-0.4,0.3-0.5c0-0.1,0-0.2,0-0.3C205.1,53.4,205.2,53.4,205.2,53.4z"/>
	<path class="st0" d="M248.8,38.8c0-0.5,0.3-0.6,0.7-0.8c1.2-0.7,3-0.1,2.9,1.5c0,0.7,0.1,1.5-0.6,2c-0.1,0.1-0.2,0.1-0.3,0.1
		c0,0,0-0.1-0.1-0.1c0-0.1,0-0.1,0-0.2c0.4-0.6,0.7-1.2,0.5-1.9c-0.3-1-1-1.5-2-1.1c-0.2,0.1-0.4,0.1-0.5,0.3
		C249.2,38.6,249.1,38.8,248.8,38.8C248.9,38.9,248.8,38.9,248.8,38.8z"/>
	<path class="st0" d="M279.7,54c3.8,0,7.6,0,11.4,0c0.3,0,0.5-0.1,0.6-0.3c0.1,0.5-0.3,0.4-0.6,0.4c-3,0-5.9,0-8.9,0
		c-0.8,0-1.7,0-2.5,0C279.7,54.1,279.7,54.1,279.7,54C279.7,54.1,279.7,54,279.7,54z"/>
	<path class="st18" d="M234.9,51.4c0,0,0,0.1,0,0.1c-0.2,0.2-0.4,0-0.5-0.1c-1.3-1-2.9-1.6-4.4-2.2c-0.6-0.2-1.2-0.4-1.8-0.8
		c-0.2-0.1-0.5-0.2-0.4-0.5c0.3-0.1,0.5,0,0.7,0.2l0,0c0.2,0.1,0.4,0.1,0.6,0.3l0,0c0.2,0.1,0.4,0.1,0.5,0.3c0,0,0.1,0,0.1,0
		c0.2,0.1,0.5,0,0.7,0.3c0,0,0.1,0,0.1,0c0.2,0.1,0.5,0.1,0.7,0.3l0,0c0.2,0.1,0.4,0.1,0.5,0.3c0,0,0.1,0,0.1,0
		c0.2,0.1,0.4,0.1,0.6,0.3c0,0,0.1,0,0.1,0c0.2,0.1,0.4,0.1,0.6,0.3l0,0c0.2,0.1,0.4,0.1,0.5,0.3c0.1,0.1,0.2,0.3,0.4,0.2
		c0.1,0.1,0.3,0.1,0.4,0.3C234.5,51.1,234.7,51.3,234.9,51.4z"/>
	<path class="st19" d="M290.4,58.8c0.1,0,0.3,0,0.4,0.1c-0.1,0.2-0.3,0.2-0.5,0.3c-2,0.9-4.2,1.1-6.4,0.9c-0.3,0-0.6-0.1-0.7-0.4
		c0.4-0.2,0.8,0,1.3,0.1c0.5,0,1,0,1.5,0c0.4-0.2,0.9-0.1,1.4-0.3c0.1,0,0.3,0,0.4,0c0.2-0.2,0.6-0.1,0.8-0.3c0.1,0,0.2,0,0.3,0
		c0.2-0.2,0.5-0.1,0.7-0.3c0,0,0.1,0,0.1,0c0.2-0.1,0.4-0.2,0.6-0.3C290.3,58.8,290.3,58.8,290.4,58.8z"/>
	<path class="st0" d="M71.4,85.8c1.2-0.8,2.4-1.5,3.5-2.3c0,0.2-0.2,0.4-0.3,0.5c-1,0.7-2,1.4-3,2c-0.1,0.1-0.2,0-0.3,0c0,0,0,0,0,0
		C71.1,86,71.3,85.9,71.4,85.8z"/>
	<path class="st20" d="M256.9,49.7c0-0.1,0-0.3,0-0.4c-0.1-0.2,0-0.4,0.1-0.5l0,0c0.1-0.2,0.1-0.4,0.3-0.6c0,0,0-0.1,0-0.1
		c0.1-0.2,0.1-0.4,0.3-0.6c0-0.2,0.1-0.3,0.3-0.4c0.6-0.6,1.1-1.4,1.9-1.7c0,0.3-0.2,0.5-0.4,0.7c-1,0.8-1.6,1.9-2,3
		C257.3,49.3,257.3,49.6,256.9,49.7z"/>
	<path class="st0" d="M122,41.6c-0.8,1.1-1.5,2.3-1.9,3.7c-0.1,0.1-0.2,0.2-0.3,0.3c0.2-1,0.6-1.9,1.1-2.7
		C121.2,42.4,121.4,41.8,122,41.6z"/>
	<path class="st0" d="M53.9,91.9c0.4,0.1,0.7-0.1,1.1-0.1c0.3-0.2,0.6,0,0.8-0.1c0.7-0.1,1.4-0.2,2-0.3c-0.1,0.1-0.2,0.2-0.2,0.2
		c-0.7-0.1-1.4,0.3-2.1,0.3c-1.1,0.1-2.2,0.4-3.3,0.3c0,0-0.1-0.1,0-0.1c0,0,0,0,0,0c0,0,0.1,0,0.1,0C52.8,91.8,53.4,92,53.9,91.9z"
		/>
	<path class="st21" d="M85.6,72.3c0-0.1,0-0.2,0-0.3c-0.1-0.1-0.1-0.3,0-0.4c0.4-0.7,0.8-1.4,1.2-2.1c0.1-0.1,0.2-0.2,0.4-0.3
		c0.1,0,0.1,0,0.2,0.1c0.1,0.1,0,0.2,0,0.3c-0.1,0.1-0.2,0.3-0.3,0.4c-0.1,0.2-0.1,0.4-0.3,0.5c-0.1,0.2-0.1,0.4-0.3,0.5
		C86.1,71.4,86,72,85.6,72.3z"/>
	<path class="st0" d="M279.7,54.2c0.3,1.1,0.3,2.4,1,3.4c0.1,0.1,0.1,0.3,0.1,0.5c0,0-0.1,0-0.1,0c-0.2-0.1-0.3-0.2-0.4-0.4
		c-0.5-0.8-0.7-1.7-0.9-2.6C279.4,54.7,279.3,54.3,279.7,54.2L279.7,54.2z"/>
	<path class="st0" d="M150.5,59.6c0.6-0.1,1.1,0.3,1.7,0.3c1.1,0.1,2.1-0.3,3.2-0.6c0,0,0,0,0,0c-0.1,0.6-0.7,0.6-1.1,0.7
		c-1.1,0.3-2.1,0.3-3.2,0C150.8,60,150.5,60,150.5,59.6L150.5,59.6z"/>
	<path class="st22" d="M187.5,46.9c0,0.2-0.1,0.3-0.2,0.3c-0.2,0-0.2-0.2-0.2-0.3c-0.1-0.6-0.1-1.1-0.1-1.7c0-0.6-0.2-0.9-0.9-0.8
		c-0.5,0-1,0-1.6,0c0-0.1,0-0.1,0-0.2c0.4,0,0.9,0,1.3,0c1.2,0,1.2,0,1.3,1.2C187.2,46,187.2,46.5,187.5,46.9z"/>
	<path class="st0" d="M91.2,60.4c-0.2,1.4-0.7,2.7-1.4,4c0,0,0-0.1-0.1-0.1c-0.1-0.4,0.1-0.7,0.2-1c0.3-0.8,0.6-1.6,0.8-2.4
		C90.8,60.7,90.9,60.5,91.2,60.4C91.1,60.4,91.1,60.4,91.2,60.4z"/>
	<path class="st0" d="M202.4,55c-0.1,0-0.2-0.1-0.3-0.1c-0.1,0-0.2,0-0.2-0.1c-0.3-0.8-0.7-1.6-0.9-2.4c0-0.2-0.1-0.4,0-0.6
		c0.4,0.4,0.5,0.9,0.7,1.4C201.9,53.7,202.3,54.3,202.4,55z"/>
	<path class="st0" d="M87.3,69.6c0-0.1,0-0.2,0-0.3c0.2-0.9,0.8-1.7,1.1-2.5c0.1-0.2,0.2-0.4,0.4-0.5c0,0,0.1,0,0.1,0
		c-0.1,0.9-0.6,1.5-1,2.2C87.9,68.9,87.7,69.3,87.3,69.6z"/>
	<path class="st23" d="M282.4,44.3c0,0,0,0.1,0,0.1c-1,0.5-1.9,0.9-2.9,1.4c-0.1,0-0.2-0.1-0.2-0.2c0.1-0.1,0.2-0.2,0.3-0.3
		c0.1-0.1,0.3-0.2,0.4-0.3c0.1-0.1,0.3-0.2,0.4-0.3c0.2-0.1,0.4-0.2,0.6-0.3c0,0,0.1,0,0.1,0c0.2-0.2,0.5-0.2,0.7-0.3
		c0,0,0.1,0,0.1,0C282.2,44.2,282.3,44.2,282.4,44.3z"/>
	<path class="st11" d="M276.8,50.7c0,0-0.1,0-0.1,0c-0.1-0.1-0.1-0.3,0-0.4c0,0,0-0.1,0-0.1c0.1-0.3,0.1-0.6,0.3-0.8l0,0
		c0.1-0.2,0.1-0.5,0.3-0.7l0,0c0.1-0.2,0.1-0.4,0.3-0.5c0,0,0-0.1,0-0.1c0.1-0.1,0.1-0.3,0.3-0.4l0,0c0.1-0.1,0-0.4,0.3-0.2
		c0,0,0.1,0.1,0,0.1C277.7,48.6,277.4,49.7,276.8,50.7z"/>
	<path class="st0" d="M284.5,59.9c-0.4,0.1-0.8-0.2-1.2-0.1c-0.1,0.1-0.2,0.1-0.4,0.1c-0.5-0.3-1.1-0.4-1.3-1c0,0,0-0.1,0-0.1
		c0.6,0.1,1,0.5,1.6,0.7C283.6,59.7,284.2,59.3,284.5,59.9z"/>
	<path class="st0" d="M286.4,62.6c-0.5,0.4-2,0.4-2.5,0C284.7,62.3,285.6,62.3,286.4,62.6z"/>
	<path class="st0" d="M92.5,54c0.2,1-0.3,1.9-0.3,2.8c0,0.1-0.1,0.2-0.2,0.3c0,0-0.1-0.1-0.1-0.1c-0.2-0.8,0.1-1.5,0.3-2.3
		C92.2,54.5,92.1,54.1,92.5,54L92.5,54z"/>
	<path class="st0" d="M78.9,80.4c0.7-0.8,1.4-1.5,2.2-2.2C80.5,79.1,79.8,79.8,78.9,80.4z"/>
	<path class="st0" d="M290.3,47c-0.6-0.7-1.2-1.3-1.9-1.9C289.2,45.3,290.2,46.3,290.3,47z"/>
	<path class="st11" d="M286.4,62.6c-0.8,0-1.6,0-2.5,0c-0.2,0-0.4,0-0.7,0l-0.1,0l0-0.1c0,0,0,0,0.1-0.1c0.2-0.2,0.4-0.2,0.6-0.2
		c0.9,0,1.7,0,2.6,0c0.2,0,0.5,0,0.7,0.2c0,0,0,0.1,0,0.1C286.9,62.6,286.7,62.6,286.4,62.6z"/>
	<path class="st24" d="M178.5,58.8c-0.5,0.3-1,0.4-1.5,0.5C177.2,58.8,178.1,58.5,178.5,58.8z"/>
	<path class="st25" d="M279.4,45.7c0,0,0.1,0.1,0.1,0.1c-0.2,0.7-0.7,1.2-1.4,1.4c-0.1-0.2,0-0.3,0.1-0.4
		C278.6,46.4,279,46,279.4,45.7z"/>
	<path class="st12" d="M46.9,92.1c1.2,0,2.4,0,3.6,0C49.3,92.3,48.1,92.3,46.9,92.1z"/>
	<path class="st0" d="M262.9,62.6c0.6,0,1.3,0,1.9,0C264.3,63,263.4,63,262.9,62.6z"/>
	<path class="st0" d="M248.8,40.8c-0.4-0.5-0.4-1.5,0-1.9c0,0,0,0,0,0C249.1,39.4,249,40.1,248.8,40.8
		C248.9,40.7,248.8,40.7,248.8,40.8z"/>
	<path class="st26" d="M199.8,49c0,0,0.1,0,0.1,0c0.2,0.1,0.2,0.3,0.3,0.4c0,0,0,0.1,0,0.1c0.1,0.2,0.2,0.4,0.3,0.6
		c0,0.3,0.2,0.6,0.3,0.8c0.1,0.2,0.2,0.4,0.2,0.7c0,0.1-0.1,0.1-0.2,0.1C200.2,50.8,199.8,49.9,199.8,49z"/>
	<path class="st0" d="M256.7,57.6c0.1,0,0.1,0,0.2,0c0.5,0.4,0.6,0.9,0.7,1.5c0,0.1,0,0.2,0,0.3C257.1,58.9,256.9,58.2,256.7,57.6z"
		/>
	<path class="st0" d="M62.9,89.9c-0.5,0.4-1.1,0.6-1.8,0.5c0,0,0-0.1,0-0.1c0.1-0.2,0.3-0.2,0.5-0.3c0.3-0.1,0.5-0.3,0.8-0.2
		C62.6,89.9,62.7,89.8,62.9,89.9L62.9,89.9z"/>
	<path class="st0" d="M76.3,82.3c0.1,0,0.3,0,0.4,0c-0.4,0.5-0.8,0.8-1.4,1.1c-0.1-0.3,0.2-0.3,0.3-0.4
		C75.7,82.7,76.1,82.6,76.3,82.3z"/>
	<path class="st0" d="M89.8,64.4c-0.1,0.7-0.4,1.4-0.8,1.9c0,0,0,0,0,0C88.8,65.7,89.3,64.7,89.8,64.4L89.8,64.4z"/>
	<path class="st0" d="M83,76c0.3-0.7,0.8-1.2,1.4-1.8C84,74.9,83.5,75.5,83,76z"/>
	<path class="st0" d="M84.3,74.2c0.3-0.6,0.5-1.2,1.1-1.5C85.2,73.3,84.9,73.9,84.3,74.2z"/>
	<path class="st24" d="M169,57c-0.4-0.3-0.3-0.8-0.5-1.2C169,56.1,169.3,56.4,169,57z"/>
	<path class="st15" d="M298.7,62.2c0,0,0,0.1,0,0.1c-0.9,0-1.8,0-2.7,0c0,0,0-0.1,0-0.1C296.9,61.9,297.8,61.9,298.7,62.2
		C298.7,62.2,298.7,62.2,298.7,62.2z"/>
	<path class="st0" d="M250.1,41.8c-0.7,0-1.2-0.4-1.2-1.1c0,0,0,0,0,0c0,0,0.1-0.1,0.2,0c0.2,0.2,0.4,0.5,0.6,0.6
		C249.8,41.5,250.1,41.5,250.1,41.8z"/>
	<path class="st0" d="M187.5,46.9c-0.1,0-0.3,0.1-0.3-0.1c0-0.4-0.2-0.8-0.1-1.2c0.3,0.2,0,0.8,0.6,1
		C187.6,46.6,187.5,46.8,187.5,46.9z"/>
	<path class="st0" d="M276.4,52.8c0,0.5,0,0.9,0,1.4C276,53.7,276,53.2,276.4,52.8z"/>
	<path class="st0" d="M277,57.5c0.3,0.5,0.5,1,0.8,1.5C277.2,58.7,277,58.2,277,57.5z"/>
	<path class="st0" d="M92.3,40.2c0.4,0.3,0.2,0.7,0.3,1c0,0.2,0,0.5,0,0.7c0,0,0,0,0,0C92,41.5,92.1,40.9,92.3,40.2
		C92.2,40.3,92.2,40.2,92.3,40.2z"/>
	<path class="st24" d="M168.5,55c0-0.3-0.7-0.8,0.3-0.8C168.7,54.4,168.9,54.8,168.5,55z"/>
	<path class="st0" d="M291.7,51.4c-0.1-0.6-0.2-1.3-0.3-1.9c0.4,0.2,0.3,0.6,0.3,0.9C291.7,50.8,291.7,51.1,291.7,51.4z"/>
	<path class="st24" d="M169.7,58.2c-0.2-0.2-0.4-0.5-0.4-0.8C170,57.4,169.9,57.8,169.7,58.2z"/>
	<path class="st22" d="M188.8,45.4c-0.3,0.4-0.6,0.8-1.1,1C188,45.9,188.3,45.5,188.8,45.4z"/>
	<path class="st0" d="M256.5,50.9c-0.2,0.6,0,1.3-0.3,1.9c0-0.4,0-0.9,0-1.3C256.2,51.3,256.2,51,256.5,50.9z"/>
	<path class="st0" d="M256.2,54c0.2,0.6,0.1,1.3,0.3,1.9c-0.4-0.3-0.2-0.7-0.3-1.1C256.2,54.5,256.2,54.3,256.2,54z"/>
	<path class="st24" d="M176.5,59.3c-0.2,0.1-0.4,0.3-0.7,0.3c0-0.2,0-0.5,0.3-0.5C176.4,59,176.5,59.1,176.5,59.3z"/>
	<path class="st24" d="M174.6,59.6c-0.2,0.1-0.4,0.3-0.7,0.3c0-0.2,0-0.5,0.3-0.5C174.5,59.3,174.6,59.4,174.6,59.6z"/>
	<path class="st0" d="M81,78.2c0.2-0.6,0.7-0.9,1.1-1.2C82,77.5,81.5,77.8,81,78.2z"/>
	<path class="st0" d="M122.9,40.8c-0.2,0.3-0.5,0.6-0.8,0.8C122,41.1,122.3,40.8,122.9,40.8z"/>
	<path class="st0" d="M188.7,49c0.2-0.5,0.6-0.9,1.1-1.1C189.5,48.3,189.1,48.7,188.7,49z"/>
	<path class="st0" d="M228.3,48.1c-0.2,0-0.5-0.1-0.7-0.1c-0.1,0-0.1,0-0.2,0c-0.1-0.1-0.2-0.2-0.3-0.4c0,0,0-0.1,0-0.1
		C227.7,47.7,228,47.8,228.3,48.1z"/>
	<path class="st0" d="M193.6,47.1c0.6,0.3,0.9-0.1,1.1-0.6c0,0.3,0,0.7-0.4,0.8C194.1,47.4,193.8,47.4,193.6,47.1z"/>
	<path class="st0" d="M282.4,44.3c-0.1,0-0.3,0-0.4,0c0.4-0.5,0.9-0.2,1.4-0.3C283.1,44.1,282.8,44.2,282.4,44.3z"/>
	<path class="st0" d="M287.4,59.6c-0.4,0.2-0.9,0.3-1.4,0.3C286.4,59.5,286.9,59.7,287.4,59.6z"/>
	<path class="st0" d="M92,38.8c0.5,0.4,0.2,0.9,0.3,1.4c0,0,0,0,0,0C91.8,39.8,91.7,39.4,92,38.8L92,38.8z"/>
	<path class="st0" d="M203.7,57.7c0,0.2-0.1,0.4-0.3,0.6c-0.2-0.2-0.3-0.4-0.3-0.6C203.4,57.8,203.5,57.7,203.7,57.7z"/>
	<path class="st0" d="M280.8,58c0.4,0.2,0.6,0.4,0.8,0.8c0,0,0,0,0,0C281.1,58.8,280.7,58.6,280.8,58L280.8,58z"/>
	<path class="st24" d="M170.7,58.9c-0.2-0.1-0.5-0.2-0.7-0.4C170.5,58.2,170.7,58.4,170.7,58.9z"/>
	<path class="st0" d="M276.4,55.2c0.2,0.4,0.3,0.8,0.3,1.2C276.2,56.1,276.5,55.6,276.4,55.2z"/>
	<path class="st27" d="M250.1,41.8c-0.2-0.1-0.4-0.3-0.6-0.4c0.5-0.2,1,0.1,1.4,0.2c0.1,0.1,0.1,0.1,0.1,0.2
		C250.7,41.8,250.4,41.8,250.1,41.8z"/>
	<path class="st20" d="M299.8,49.4c0-0.1-0.1-0.1-0.1-0.2c0-0.5,0.3-0.9,0.8-0.9c0,0.1,0,0.2,0,0.3c-0.1,0.1-0.2,0.2-0.2,0.3
		c-0.1,0.1-0.1,0.3-0.3,0.4C299.8,49.3,299.8,49.3,299.8,49.4z"/>
	<path class="st0" d="M276.7,50.3c0,0.1,0,0.3,0,0.4c0,0.3-0.1,0.6-0.3,0.8C276.4,51.1,276.3,50.7,276.7,50.3z"/>
	<path class="st0" d="M92,57.2c-0.1,0.4,0.2,0.9-0.3,1.2c0,0-0.1-0.1-0.1-0.1C91.6,57.9,91.5,57.4,92,57.2L92,57.2z"/>
	<path class="st0" d="M119.3,52.1c0.2,0.4,0.1,0.9,0.3,1.4C119.1,53.1,119.4,52.5,119.3,52.1z"/>
	<path class="st0" d="M286.5,44.3c-0.4-0.1-0.8-0.2-1.2-0.3C285.7,44.2,286.2,43.8,286.5,44.3z"/>
	<path class="st0" d="M82.1,77c0.1-0.5,0.5-0.7,0.8-1C82.9,76.5,82.5,76.7,82.1,77z"/>
	<path class="st0" d="M77.6,81.5c0.3-0.3,0.5-0.7,1-0.8C78.3,81,78.1,81.4,77.6,81.5z"/>
	<path class="st0" d="M76.7,82.3c0.3-0.3,0.5-0.7,1-0.8C77.4,81.8,77.1,82.2,76.7,82.3z"/>
	<path class="st0" d="M57.8,91.3c0.4-0.2,0.8-0.3,1.2-0.3C58.7,91.5,58.2,91.2,57.8,91.3z"/>
	<path class="st0" d="M257.6,59.3c0.3,0.2,0.4,0.5,0.5,0.8C257.7,60,257.6,59.7,257.6,59.3z"/>
	<path class="st0" d="M267,62.1c0.3-0.2,0.6-0.4,1-0.5C267.8,62,267.4,62.1,267,62.1z"/>
	<path class="st0" d="M59.1,91c0.1-0.2,0.4-0.1,0.5-0.3c0,0,0,0,0.1-0.1c0.1-0.1,0.3-0.1,0.4,0c0,0,0,0,0.1,0.1
		C59.9,91.2,59.4,91,59.1,91z"/>
	<path class="st0" d="M119.6,47.3c-0.2,0.4,0,0.9-0.3,1.4C119.4,48.2,119.1,47.7,119.6,47.3z"/>
	<path class="st12" d="M43.3,91.9c0.5,0.1,1-0.2,1.5,0.1C44.3,91.9,43.8,92.1,43.3,91.9z"/>
	<path class="st0" d="M91.7,58.4c-0.1,0.4,0.2,0.8-0.3,1.1c0,0-0.1-0.1-0.1-0.1C91.3,59,91.2,58.6,91.7,58.4L91.7,58.4z"/>
	<path class="st0" d="M288.4,45.1c-0.3-0.2-0.7-0.4-1-0.5C287.9,44.6,288.3,44.7,288.4,45.1z"/>
	<path class="st0" d="M265.3,62.6c0.3-0.2,0.6-0.3,1-0.3C266.1,62.8,265.7,62.6,265.3,62.6z"/>
	<path class="st0" d="M61.1,90.5c-0.2,0.4-0.6,0.2-1,0.3c0,0,0,0,0,0c0-0.3,0.2-0.2,0.3-0.3c0.1,0,0.1,0,0.2-0.1
		C60.8,90.3,61,90.3,61.1,90.5L61.1,90.5z"/>
	<path class="st0" d="M211.7,45.1c0.1-0.3,0.2-0.6-0.2-0.8C212,44.5,212.1,44.7,211.7,45.1z"/>
	<path class="st0" d="M259.2,61.3c0.4,0.1,0.6,0.3,0.8,0.5C259.6,61.8,259.4,61.6,259.2,61.3z"/>
	<path class="st0" d="M91.4,59.5c-0.1,0.3,0.2,0.7-0.3,1c0,0,0,0,0,0C90.9,60,91,59.7,91.4,59.5L91.4,59.5z"/>
	<path class="st0" d="M291.4,49.5c-0.2-0.3-0.3-0.5-0.3-0.8C291.7,48.8,291.4,49.2,291.4,49.5z"/>
	<path class="st24" d="M173.4,59.9c-0.2,0-0.4-0.2-0.5-0.3C173.2,59.3,173.2,59.4,173.4,59.9z"/>
	<path class="st0" d="M119.6,54c0.2,0.3,0.3,0.6,0.3,1C119.4,54.7,119.6,54.3,119.6,54z"/>
	<path class="st0" d="M278.3,46.8c0,0.1-0.1,0.3-0.1,0.4c0,0.1-0.1,0.1-0.1,0.2c-0.1,0.1-0.2,0.2-0.3,0.3
		C277.8,47.2,278,46.9,278.3,46.8z"/>
	<path class="st0" d="M279.4,61c0.3,0.1,0.6,0.3,0.8,0.5C279.8,61.5,279.6,61.3,279.4,61z"/>
	<path class="st0" d="M261.4,62.3c0.3,0,0.7,0.1,1,0.3C262,62.6,261.6,62.8,261.4,62.3z"/>
	<path class="st0" d="M283.2,62.5C283.2,62.5,283.3,62.6,283.2,62.5c-0.3,0.1-0.7,0.3-0.9-0.2C282.6,62.4,282.9,62.5,283.2,62.5z"/>
	<path class="st0" d="M288.6,59.3c-0.2,0.2-0.5,0.3-0.8,0.3C287.9,59.2,288.3,59.4,288.6,59.3z"/>
	<path class="st0" d="M277,49.4c0,0.3-0.1,0.6-0.3,0.8C276.7,49.9,276.6,49.5,277,49.4z"/>
	<path class="st0" d="M276.7,56.6c0.2,0.3,0.3,0.5,0.3,0.8C276.6,57.2,276.7,56.9,276.7,56.6z"/>
	<path class="st13" d="M75.6,83c-0.1,0.1-0.2,0.3-0.3,0.4c-0.1,0-0.2,0.1-0.3,0.1C75.1,83.2,75.3,83,75.6,83z"/>
	<path class="st0" d="M207.3,47.6c0,0.3-0.1,0.5-0.3,0.7C207,48,207,47.7,207.3,47.6z"/>
	<path class="st0" d="M210.6,48.1c0-0.3,0.1-0.5,0.3-0.7C210.8,47.7,210.9,48,210.6,48.1z"/>
	<path class="st0" d="M287.3,44.6c-0.2-0.1-0.5-0.2-0.7-0.3C286.9,44.4,287.2,44.1,287.3,44.6z"/>
	<path class="st0" d="M289.5,59.1c-0.2,0.2-0.4,0.3-0.7,0.3C289,59,289.3,59.1,289.5,59.1z"/>
	<path class="st0" d="M256.5,56.6c0.2,0.2,0.3,0.4,0.3,0.7C256.4,57.1,256.5,56.9,256.5,56.6z"/>
	<path class="st0" d="M256.7,49.5c0,0.3-0.1,0.5-0.3,0.7C256.5,49.9,256.4,49.6,256.7,49.5z"/>
	<path class="st0" d="M209.7,50.3c0-0.3,0.1-0.5,0.3-0.7C210,49.9,210.1,50.2,209.7,50.3z"/>
	<path class="st0" d="M299.4,50.3c0-0.3,0.1-0.5,0.3-0.7C299.6,49.9,299.7,50.2,299.4,50.3z"/>
	<path class="st0" d="M200.9,51.5c-0.1-0.2-0.1-0.4-0.2-0.7c0.3,0.1,0.3,0.4,0.3,0.7C200.9,51.6,200.9,51.6,200.9,51.5z"/>
	<path class="st0" d="M281.3,62.1c0.3,0,0.5,0.1,0.7,0.3C281.8,62.3,281.5,62.4,281.3,62.1z"/>
	<path class="st0" d="M205.9,60.4c0-0.3,0.1-0.5,0.3-0.7C206.2,60,206.2,60.3,205.9,60.4z"/>
	<path class="st0" d="M260.6,62.1c0.3,0,0.5,0.1,0.7,0.3C261,62.3,260.7,62.4,260.6,62.1z"/>
	<path class="st0" d="M205.1,62.5c0-0.2,0.1-0.4,0.3-0.6c0,0.3,0.1,0.5-0.3,0.7C205.1,62.6,205.1,62.5,205.1,62.5z"/>
	<path class="st0" d="M299.1,51c0-0.3,0.1-0.5,0.3-0.7C299.4,50.6,299.4,50.9,299.1,51z"/>
	<path class="st0" d="M291.2,48.7c-0.2-0.2-0.3-0.4-0.3-0.7C291.2,48.1,291.2,48.4,291.2,48.7z"/>
	<path class="st0" d="M208.9,52.5c0-0.3,0.1-0.5,0.3-0.7C209.2,52.1,209.2,52.4,208.9,52.5z"/>
	<path class="st0" d="M208.1,54.7c0-0.3,0.1-0.5,0.3-0.7C208.4,54.3,208.4,54.6,208.1,54.7z"/>
	<path class="st12" d="M45.1,92c0.3,0,0.7-0.1,1,0.1C45.8,92.1,45.4,92.2,45.1,92z"/>
	<path class="st0" d="M230.2,48.9c-0.3,0-0.5-0.1-0.7-0.3C229.8,48.7,230.1,48.5,230.2,48.9z"/>
	<path class="st12" d="M52.2,92c0,0,0,0.1,0,0.1c-0.3,0-0.6,0-1,0C51.6,91.9,51.9,92,52.2,92z"/>
	<path class="st0" d="M231.1,49.2c-0.3,0-0.5-0.1-0.7-0.3C230.6,49,230.9,48.9,231.1,49.2z"/>
	<path class="st0" d="M277.2,48.7c0,0.3-0.1,0.5-0.3,0.7C277,49.1,276.9,48.8,277.2,48.7z"/>
	<path class="st0" d="M211.4,45.9c0-0.3,0.1-0.5,0.3-0.7C211.7,45.5,211.7,45.8,211.4,45.9z"/>
	<path class="st0" d="M205.4,61.8c0-0.2,0.1-0.4,0.3-0.6C205.6,61.5,205.7,61.7,205.4,61.8z"/>
	<path class="st0" d="M260,61.8c0.2,0,0.4,0.1,0.5,0.3C260.4,62,260.1,62.2,260,61.8z"/>
	<path class="st0" d="M206.7,49.2c0,0.2-0.1,0.4-0.3,0.6C206.5,49.6,206.4,49.3,206.7,49.2z"/>
	<path class="st0" d="M266.3,62.3c0.2-0.1,0.4-0.2,0.7-0.3C266.9,62.4,266.6,62.3,266.3,62.3z"/>
	<path class="st0" d="M210.3,48.8c0-0.2,0.1-0.5,0.3-0.7C210.6,48.4,210.6,48.7,210.3,48.8z"/>
	<path class="st0" d="M127.2,62.4c0.2,0,0.5,0.1,0.7,0.3C127.7,62.6,127.4,62.7,127.2,62.4z"/>
	<path class="st0" d="M207.6,56.1c0-0.2,0.1-0.5,0.3-0.7C207.8,55.6,207.9,55.9,207.6,56.1z"/>
	<path class="st0" d="M277.5,48.1c0,0.2-0.1,0.4-0.3,0.5C277.3,48.5,277.1,48.2,277.5,48.1z"/>
	<path class="st28" d="M41.4,91.6c0.3,0,0.6-0.1,0.8,0.1C42,91.7,41.7,91.8,41.4,91.6z"/>
	<path class="st0" d="M257.3,48.1c0,0.2-0.1,0.4-0.3,0.6C257,48.5,256.9,48.2,257.3,48.1z"/>
	<path class="st0" d="M119.9,55.2c0.2,0.2,0.2,0.3,0.3,0.6C119.8,55.7,119.9,55.4,119.9,55.2z"/>
	<path class="st0" d="M196.4,67.5c-0.2,0-0.5-0.1-0.7-0.3C195.9,67.3,196.2,67.2,196.4,67.5z"/>
	<path class="st0" d="M231.6,49.5c-0.2,0-0.4-0.1-0.5-0.3C231.3,49.3,231.5,49.1,231.6,49.5z"/>
	<path class="st0" d="M207.8,55.2c0-0.2,0.1-0.4,0.3-0.5C208.1,54.9,208.2,55.2,207.8,55.2z"/>
	<path class="st0" d="M281.9,44.3c-0.2,0.1-0.4,0.2-0.7,0.3C281.3,44.3,281.6,44.3,281.9,44.3z"/>
	<path class="st0" d="M208.4,44.6c0,0.3-0.1,0.5-0.3,0.7C208.1,45,208.1,44.7,208.4,44.6z"/>
	<path class="st0" d="M206.2,59.6c0-0.2,0.1-0.4,0.3-0.6C206.4,59.3,206.6,59.6,206.2,59.6z"/>
	<path class="st0" d="M210.8,47.3c0-0.2,0.1-0.4,0.3-0.6C211.1,47,211.2,47.3,210.8,47.3z"/>
	<path class="st0" d="M194.7,45.5c0-0.2-0.1-0.4,0.2-0.4c0,0.1,0.1,0.2,0.1,0.3C194.9,45.4,194.8,45.5,194.7,45.5z"/>
	<path class="st0" d="M205.9,51.4c0,0.2-0.1,0.5-0.3,0.7C205.6,51.8,205.6,51.6,205.9,51.4z"/>
	<path class="st0" d="M208.1,45.4c0,0.2-0.1,0.4-0.3,0.6C207.9,45.7,207.7,45.5,208.1,45.4z"/>
	<path class="st0" d="M202.9,56.6c-0.2-0.1-0.3-0.3-0.3-0.5C203,56.1,202.9,56.4,202.9,56.6z"/>
	<path class="st26" d="M200.9,51.5c0,0,0.1,0,0.1,0c0,0,0,0.1,0,0.1c0,0.2,0.1,0.4,0.1,0.6C200.7,52.2,200.7,51.9,200.9,51.5
		C200.9,51.6,200.9,51.5,200.9,51.5z"/>
	<path class="st0" d="M257,48.7c0,0.2-0.1,0.4-0.1,0.5c0,0-0.1,0-0.1,0C256.7,49,256.8,48.8,257,48.7z"/>
	<path class="st0" d="M251,41.8c0,0,0-0.1,0-0.1c0,0,0,0,0.1-0.1c0.2-0.1,0.3-0.2,0.5-0.1c0,0,0,0,0,0
		C251.5,41.9,251.2,41.8,251,41.8z"/>
	<path class="st0" d="M229.4,48.7c-0.2,0-0.4-0.1-0.5-0.3C229.1,48.4,229.4,48.3,229.4,48.7z"/>
	<path class="st0" d="M205.6,52.2c0,0.2-0.1,0.4-0.3,0.6C205.4,52.6,205.3,52.3,205.6,52.2z"/>
	<path class="st0" d="M206.7,58.2c0-0.2,0.1-0.5,0.3-0.7C207,57.8,207.1,58.1,206.7,58.2z"/>
	<path class="st0" d="M119.8,46c0,0.2-0.1,0.5-0.3,0.7C119.6,46.4,119.5,46.1,119.8,46z"/>
	<path class="st0" d="M207,57.4c0-0.2,0.1-0.4,0.3-0.6C207.3,57.1,207.4,57.4,207,57.4z"/>
	<path class="st0" d="M290.2,58.8c-0.2,0.2-0.3,0.3-0.6,0.3C289.8,58.8,290,58.8,290.2,58.8z"/>
	<path class="st0" d="M199.1,46.5c-0.2-0.1-0.3-0.3-0.3-0.5C199.1,46.1,199.1,46.3,199.1,46.5z"/>
	<path class="st0" d="M290.9,48c-0.1-0.2-0.2-0.4-0.3-0.5C290.9,47.5,290.9,47.8,290.9,48z"/>
	<path class="st0" d="M257.6,47.4c0,0.2-0.1,0.4-0.3,0.6C257.3,47.8,257.3,47.6,257.6,47.4z"/>
	<path class="st0" d="M281.1,44.6c-0.2,0.2-0.3,0.3-0.6,0.3C280.6,44.6,280.8,44.6,281.1,44.6z"/>
	<path class="st0" d="M211.1,46.6c0-0.2,0.1-0.4,0.3-0.6C211.4,46.3,211.4,46.5,211.1,46.6z"/>
	<path class="st0" d="M200.5,50.1c-0.2-0.1-0.3-0.3-0.3-0.6C200.4,49.6,200.5,49.8,200.5,50.1z"/>
	<path class="st0" d="M207,48.4c0,0.2-0.1,0.4-0.3,0.6C206.7,48.7,206.8,48.5,207,48.4z"/>
	<path class="st0" d="M204,56.9c0,0.2-0.1,0.4-0.3,0.5C203.7,57.2,203.8,57,204,56.9z"/>
	<path class="st0" d="M280.1,45.1c-0.1,0.1-0.2,0.3-0.4,0.3C279.7,45.1,279.9,45.1,280.1,45.1z"/>
	<path class="st0" d="M203.2,57.4c-0.2-0.1-0.3-0.3-0.3-0.5C203.2,57,203.2,57.2,203.2,57.4z"/>
	<path class="st0" d="M206.5,58.9c0-0.2,0.1-0.4,0.3-0.6C206.8,58.6,206.7,58.8,206.5,58.9z"/>
	<path class="st0" d="M210,49.5c0-0.2,0.1-0.4,0.3-0.6C210.3,49.2,210.3,49.4,210,49.5z"/>
	<path class="st0" d="M228.9,48.4c-0.2,0-0.4-0.1-0.6-0.3C228.6,48.1,228.8,48.2,228.9,48.4z"/>
	<path class="st28" d="M39.9,91.3c0.2,0,0.5-0.1,0.7,0.1C40.4,91.4,40.1,91.5,39.9,91.3z"/>
	<path class="st0" d="M205.1,53.7c0,0.2-0.1,0.4-0.3,0.5C204.8,54.1,204.8,53.8,205.1,53.7z"/>
	<path class="st0" d="M277.8,47.6c0,0.2-0.1,0.3-0.3,0.4C277.5,47.8,277.5,47.6,277.8,47.6z"/>
	<path class="st0" d="M207.8,46.2c-0.1,0.2-0.2,0.4-0.3,0.6C207.6,46.6,207.5,46.3,207.8,46.2z"/>
	<path class="st0" d="M120.1,56.1c0.2,0.1,0.3,0.3,0.3,0.6C120.1,56.5,120.1,56.3,120.1,56.1z"/>
	<path class="st0" d="M208.7,53.1c0.1-0.2,0.2-0.4,0.3-0.5C208.9,52.7,209,53,208.7,53.1z"/>
	<path class="st0" d="M209.5,50.9c0.1-0.2,0.2-0.4,0.3-0.5C209.7,50.5,209.8,50.8,209.5,50.9z"/>
	<path class="st0" d="M205.2,53.4c0,0-0.1,0-0.1,0c0-0.2,0-0.4,0.3-0.4C205.3,53.2,205.3,53.3,205.2,53.4z"/>
	<path class="st0" d="M299.9,49.2c0-0.2,0.1-0.3,0.3-0.4C300.2,49,300.2,49.2,299.9,49.2z"/>
	<path class="st0" d="M126.1,62.1c0.2,0,0.4,0.1,0.6,0.3C126.5,62.4,126.2,62.3,126.1,62.1z"/>
	<path class="st0" d="M206.2,50.7c0,0.2-0.1,0.4-0.3,0.6C205.9,51,205.9,50.8,206.2,50.7z"/>
	<path class="st0" d="M125.3,61.8c0.2,0,0.4,0.1,0.6,0.3C125.6,62.1,125.4,62,125.3,61.8z"/>
	<path class="st0" d="M190.9,47.3c0.1-0.2,0.3-0.3,0.5-0.3C191.3,47.3,191.1,47.3,190.9,47.3z"/>
	<path class="st0" d="M207.6,46.9c0,0.2-0.1,0.4-0.3,0.6C207.3,47.2,207.3,47,207.6,46.9z"/>
	<path class="st0" d="M234.3,50.9c-0.2,0-0.3-0.1-0.4-0.3C234.1,50.6,234.3,50.6,234.3,50.9z"/>
	<path class="st0" d="M208.4,53.9c0-0.2,0.1-0.4,0.3-0.6C208.7,53.6,208.6,53.8,208.4,53.9z"/>
	<path class="st0" d="M201.3,61c0.2,0.1,0.3,0.3,0.3,0.5C201.3,61.4,201.3,61.2,201.3,61z"/>
	<path class="st0" d="M187.6,51.1c0-0.2,0.1-0.4,0.3-0.5C187.9,50.8,187.9,51,187.6,51.1z"/>
	<path class="st0" d="M205.6,61.1c0-0.2,0.1-0.4,0.3-0.6C205.9,60.8,205.9,61,205.6,61.1z"/>
	<path class="st0" d="M232.3,49.8c-0.2,0-0.4-0.1-0.6-0.3C232,49.5,232.2,49.5,232.3,49.8z"/>
	<path class="st0" d="M209.2,51.7c0-0.2,0.1-0.4,0.3-0.6C209.5,51.4,209.5,51.6,209.2,51.7z"/>
	<path class="st0" d="M226.7,47.3c0.2,0,0.4,0,0.5,0.3c0,0,0,0,0,0C226.9,47.7,226.7,47.7,226.7,47.3L226.7,47.3z"/>
	<path class="st0" d="M86.5,71.1c0-0.2,0.1-0.4,0.3-0.5C86.8,70.8,86.8,71,86.5,71.1z"/>
	<path class="st0" d="M195.4,70c0.2,0,0.4,0.1,0.5,0.3C195.7,70.3,195.5,70.2,195.4,70z"/>
	<path class="st0" d="M86.8,70.5c0-0.2,0.1-0.4,0.3-0.5C87.1,70.2,87,70.4,86.8,70.5z"/>
	<path class="st0" d="M199.6,47.9c-0.2-0.1-0.3-0.3-0.3-0.5C199.6,47.4,199.6,47.6,199.6,47.9z"/>
	<path class="st0" d="M195.4,67.3c-0.1,0.1-0.3,0.3-0.4,0.4C195,67.4,195.1,67.2,195.4,67.3z"/>
	<path class="st0" d="M200.2,49.4c-0.1-0.1-0.2-0.3-0.3-0.4c0,0,0-0.1,0-0.1C200.2,48.9,200.2,49.1,200.2,49.4z"/>
	<path class="st0" d="M204.3,64.8c0-0.2,0.1-0.4,0.3-0.5C204.6,64.5,204.5,64.7,204.3,64.8z"/>
	<path class="st0" d="M207.3,56.7c0-0.2,0.1-0.4,0.3-0.6C207.6,56.4,207.5,56.6,207.3,56.7z"/>
	<path class="st0" d="M204.3,56.1c0,0.2-0.1,0.4-0.3,0.5C204,56.4,204,56.2,204.3,56.1z"/>
	<path class="st0" d="M233,50.1c-0.2,0-0.4-0.1-0.6-0.3C232.6,49.8,232.9,49.8,233,50.1z"/>
	<path class="st0" d="M206.5,50c-0.1,0.2-0.2,0.4-0.3,0.6C206.2,50.4,206.1,50.1,206.5,50z"/>
	<path class="st0" d="M202.6,55.8c-0.2-0.1-0.2-0.3-0.3-0.5C202.6,55.3,202.7,55.6,202.6,55.8z"/>
	<path class="st0" d="M233.5,50.4c-0.2-0.1-0.4-0.1-0.5-0.3C233.2,50,233.4,50.1,233.5,50.4z"/>
	<path class="st0" d="M204.5,55.2c0,0.2-0.1,0.4-0.3,0.6C204.3,55.6,204.3,55.3,204.5,55.2z"/>
	<path class="st29" d="M31.4,7.5c1.6-0.8,3.4-1.4,5.2-1.9C41.2,4.3,46,3.8,50.8,4c2.5,0.1,5,0.5,7.4,1c2.7,0.6,5.3,1.4,7.8,2.5
		c0.2,0.1,0.3,0.1,0.4,0.3C66.4,8,66.2,8,66.1,8c-1-0.2-1.9-0.7-2.8-1c-1.8-0.6-3.6-1.1-5.5-1.5c-0.4-0.1-0.8-0.2-1.1-0.3
		C56.5,5,56.3,5,56,5c-0.1,0-0.1,0-0.2,0c-0.2-0.1-0.4-0.1-0.6-0.1c-0.1,0-0.2,0-0.3,0c-0.3-0.1-0.6-0.1-0.8-0.1c-0.1,0-0.1,0-0.2,0
		c-0.3-0.1-0.6,0-0.9,0c-0.2,0-0.4,0-0.5-0.1c-0.5-0.1-1.1,0-1.6-0.1c-0.1,0-0.2,0-0.2,0c-1.3-0.1-2.6-0.1-3.9,0c-0.1,0-0.2,0-0.2,0
		c-0.6,0.1-1.1,0-1.7,0.1c-0.1,0-0.3,0.1-0.4,0.1c-0.3,0-0.6,0-0.9,0c-0.1,0-0.1,0-0.2,0c-0.3,0-0.6,0-0.8,0.1c-0.1,0-0.2,0-0.3,0
		c-0.2,0-0.4,0-0.6,0.1c-0.1,0-0.1,0-0.2,0c-0.2,0-0.5,0.1-0.7,0.2c-1.9,0.5-3.9,0.8-5.7,1.5c-0.9,0.3-1.8,0.6-2.6,1
		c-0.3,0.1-0.5,0.3-0.8,0.1C31.4,7.7,31.4,7.6,31.4,7.5z"/>
	<path class="st30" d="M74.3,12.2c0.9,0.4,1.6,1.1,2.4,1.7c4,3.3,7.3,7.2,10,11.7c0.7,1.1,1.3,2.2,1.7,3.4c-0.1,0-0.1,0.1-0.2,0.1
		c-0.6-0.6-0.8-1.4-1.3-2.1c-0.2-0.2-0.3-0.5-0.4-0.8c-0.6-1.2-1.3-2.3-2.1-3.3c0,0-0.1-0.1-0.1-0.2c-0.8-1.3-1.8-2.5-2.9-3.6
		c-0.1,0-0.1-0.1-0.1-0.1c-0.9-1.3-2-2.3-3.1-3.3c-1.1-1.1-2.4-2-3.6-3C74.5,12.6,74.3,12.5,74.3,12.2z"/>
	<path class="st31" d="M14.5,20.5c0-0.1,0-0.3,0-0.4c1.2-1.4,2.4-2.8,3.8-4c2.8-2.6,5.8-4.9,9.2-6.7c0.2-0.1,0.3-0.1,0.5-0.2
		c0.1-0.1,0.2-0.1,0.3,0c0.1,0.3-0.1,0.4-0.3,0.4c-1.6,0.9-3.2,1.9-4.8,2.9c-0.2,0.1-0.4,0.2-0.6,0.4c-0.2,0.2-0.4,0.3-0.6,0.4
		c-0.2,0.1-0.4,0.3-0.5,0.4c-0.2,0.3-0.5,0.5-0.8,0.7c-0.3,0.2-0.5,0.4-0.8,0.7c-0.1,0.1-0.2,0.2-0.3,0.3c-0.3,0.1-0.5,0.4-0.7,0.6
		c-0.8,0.7-1.5,1.5-2.3,2.3c-0.2,0.2-0.4,0.4-0.6,0.7c-0.1,0.1-0.2,0.2-0.3,0.3c-0.3,0.2-0.5,0.5-0.7,0.8
		C14.9,20.2,14.9,20.6,14.5,20.5z"/>
	<path class="st32" d="M91.4,59.5c-0.2,0.3-0.3,0.6-0.3,1c-0.1,0.1-0.2,0.3-0.3,0.4c-0.1-0.1-0.2-0.3-0.2-0.4
		c0.2-0.9,0.4-1.9,0.7-2.8c0.2-0.4,0.2-0.9,0.3-1.4c0.1-0.5,0.2-1,0.3-1.6c0.5-3,0.5-6.1,0.4-9.2c0-0.7-0.1-1.4-0.2-2.2
		c-0.1-0.7-0.2-1.5-0.3-2.2c-0.1-0.5-0.2-1-0.3-1.6c0-0.4-0.4-0.9,0-1.3c0.2,0.1,0.1,0.4,0.3,0.5c0,0.5,0.1,0.9,0.3,1.4
		c0,0.6,0.1,1.2,0.3,1.8c0.3,2.7,0.4,5.3,0.3,8c0,1.3-0.2,2.7-0.3,4c-0.2,1-0.5,2.1-0.5,3.1c-0.2,0.4-0.3,0.8-0.3,1.2
		C91.5,58.7,91.4,59.1,91.4,59.5z"/>
	<path class="st33" d="M91.7,38.3c0.1,0.5,0.1,0.9,0.2,1.4c0,0-0.1,0-0.1,0c-0.5-0.6-0.4-1.4-0.6-2.1c-0.5-1.7-0.9-3.4-1.6-5
		c-0.3-1-0.8-1.9-1.2-2.8c-0.1-0.3-0.3-0.5-0.1-0.8c0.1,0,0.1,0,0.2,0C90,31.9,90.9,35.1,91.7,38.3z"/>
	<path class="st34" d="M69.3,9.2c1.2,0.5,2.3,1.1,3.3,1.9c0.1,0.1,0.1,0.1,0,0.2c-0.2,0.1-0.4,0-0.6-0.1c-0.8-0.5-1.6-1-2.5-1.4
		c-0.2-0.1-0.3-0.2-0.3-0.4C69.2,9.3,69.3,9.2,69.3,9.2z"/>
	<path class="st9" d="M69.3,9.2c0,0.1,0,0.1,0,0.2c-0.2,0.2-0.4,0.1-0.6,0c-0.8-0.4-1.6-0.8-2.5-1.2C66.1,8.1,66,8,66,7.8
		c0.1,0,0.3,0,0.4,0C67.5,8.1,68.4,8.7,69.3,9.2z"/>
	<path class="st35" d="M28.3,9.2c-0.1,0-0.2,0-0.3,0c1.1-0.7,2.2-1.2,3.4-1.6c0,0.1,0,0.1,0,0.2c-0.1,0.4-0.5,0.5-0.9,0.6
		C29.8,8.6,29.2,9.1,28.3,9.2z"/>
	<path class="st36" d="M72.6,11.3c0-0.1,0-0.1,0-0.2c0.7,0.3,1.1,0.8,1.8,1.1c0.1,0.1,0.2,0.2,0.3,0.4c0,0.1-0.1,0.1-0.2,0.1
		C73.8,12.3,73,12,72.6,11.3z"/>
	<path class="st37" d="M174,54c-1.8,0-3.6,0-5.3,0c-0.5,0-0.7,0.1-0.6,0.7c0.2,2.2,1,4.1,3.3,5c1.3,0.5,2.6,0.5,4,0.3
		c1.2-0.2,2.4-0.4,3.5-0.9c0.4-0.2,0.6,0,0.5,0.4c0,0,0,0,0,0.1c0.1,2.1-0.1,2.3-2.1,2.7c-1.8,0.4-3.6,0.5-5.4,0.2
		c-3-0.4-5.2-2.1-6.1-5c-1-3.2-0.9-6.4,0.6-9.5c0.9-1.8,2.4-3.1,4.5-3.5c2.5-0.5,4.8-0.3,6.8,1.4c1.2,1,1.9,2.4,2.2,3.9
		c0.3,1.2,0.2,2.4,0.3,3.6c0,0.5-0.2,0.7-0.7,0.7C177.6,54,175.8,54,174,54z"/>
	<path class="st38" d="M156.2,58.9c1.1-1.2,1.4-2.7,1.5-4.1c0.1-3.2,0.1-6.4,0-9.6c0-0.6,0.2-0.8,0.8-0.8c0.5,0,1.1,0,1.6,0
		c0.4,0,0.6,0.2,0.6,0.6c0,0.2,0,0.3,0,0.5c0,5.3,0,10.6,0,15.8c0,0.9,0,0.9-0.9,0.9c-0.1,0-0.1,0-0.2,0c-1.4,0-1.4,0-1.6-1.4
		c0-0.2,0-0.5-0.3-0.5c-0.2,0-0.3,0.2-0.4,0.3c-1.5,1.7-3.5,2-5.6,1.9c-1.1,0-2.2-0.2-3.2-0.7c-1.4-0.7-2.4-1.9-2.6-3.5
		c-0.1-0.2-0.1-0.3,0-0.5c0.3,0,0.3,0.3,0.3,0.4c0.6,2.3,2.2,3.4,4.4,3.7c1.4,0.2,2.7,0.2,4.1-0.3c0.9-0.3,1.7-0.7,2.3-1.4
		c0.2-0.3,0.4-0.6,0.8-0.5c0.4,0.1,0.4,0.5,0.5,0.9c0.1,1.1,0.4,1.2,1.4,1.1c0.3,0,0.5-0.2,0.5-0.5c0-0.2,0-0.4,0-0.5
		c0-4.9,0-9.9,0-14.8c0-0.2,0-0.5,0-0.7c0-0.3-0.2-0.5-0.5-0.5c-0.4,0-0.7,0-1.1,0c-0.4,0-0.5,0.2-0.5,0.6c0,0.3,0,0.6,0,1
		c0,2.8,0,5.7,0,8.5c0,1.3-0.4,2.5-1,3.6c-0.2,0.3-0.4,0.6-0.8,0.7C156.1,59,156.1,59,156.2,58.9z"/>
	<path class="st39" d="M146,58c0,0.2,0,0.3,0,0.5c-0.3-0.4-0.3-0.9-0.3-1.3c0-4,0-8,0-12c0-0.5,0.1-0.7,0.7-0.7c0.5,0,1.1,0,1.6,0
		c0.6,0,0.8,0.2,0.8,0.8c0,3.8,0,7.6,0,11.3c0,1.3,0.5,2.5,1.7,3.1c1.7,0.7,3.3,0.6,4.9-0.3c0.3-0.2,0.5-0.3,0.8-0.5
		c0,0.1,0,0.1,0,0.2c-0.1,0.5-0.5,0.7-0.9,0.8c-1.5,0.6-3,0.8-4.5,0.3c-1.5-0.5-2.5-2-2.5-3.7c0.1-3.6,0-7.1,0-10.7
		c0-0.9-0.1-0.9-1-1c-1.3,0-1.3,0-1.3,1.3c0,3.8,0,7.6,0,11.3C146,57.6,146,57.8,146,58z"/>
	<path class="st40" d="M124.1,40.1c0-0.1,0-0.1,0-0.2c1.2-0.9,2.5-1.2,3.9-1.5c1.6-0.3,3.1-0.3,4.7,0c3,0.5,5.3,2,6.8,4.5
		c1.2,1.9,1.6,4.1,1.8,6.3c0.2,2.7-0.1,5.4-1.3,7.8c-1,2.1-2.6,3.7-4.8,4.7c-0.5,0.2-0.6,0.4-0.2,0.9c1.5,1.5,3,3.1,4.5,4.6
		c0.1,0.1,0.4,0.3,0.3,0.5c-0.1,0.3-0.4,0.2-0.6,0.2c-1,0-1.9,0-2.9,0c-0.4,0-0.7-0.1-1-0.5c-1.3-1.5-2.7-3.1-4-4.6
		c-0.2-0.4-0.5-0.3-0.8-0.3c-1.8,0.1-3.5-0.2-5.1-0.9c-0.3-0.1-0.7-0.2-0.9-0.5c0.3-0.2,0.5,0,0.7,0.1c1.6,0.6,3.2,1.1,5,1
		c0.8,0,1.3,0.2,1.8,0.8c1.1,1.3,2.2,2.6,3.3,3.8c0.3,0.4,0.6,0.5,1.1,0.5c0.8,0,1.6,0,2.6,0c-0.6-0.7-1.2-1.2-1.7-1.8
		c-0.9-1-1.8-1.9-2.7-2.8c-0.7-0.7-0.6-1,0.2-1.4c3-1.4,4.7-3.8,5.5-6.9c0.6-2.3,0.5-4.7,0.2-7c-0.4-3-1.7-5.5-4.2-7.3
		c-1.2-0.9-2.6-1.2-4-1.5c-1.4-0.2-2.8-0.2-4.1,0c-1.1,0.2-2.3,0.5-3.3,1C124.7,39.9,124.4,40.2,124.1,40.1z"/>
	<path class="st41" d="M243.6,49.6c0,3.9,0,7.8,0,11.7c0,0.7-0.2,0.9-0.9,0.8c-0.4,0-0.8,0-1.2,0c-0.6,0.1-0.8-0.2-0.8-0.8
		c0-7.8,0-15.6,0-23.4c0-0.9,0-0.9,0.9-0.9c1.9,0,1.9,0,1.9,1.9C243.6,42.5,243.6,46.1,243.6,49.6z"/>
	<path class="st42" d="M256.9,49.7c0.4-0.6,0.5-1.2,0.8-1.9c0.5-1.1,1.4-1.7,2.1-2.5c2.5-1.4,5-1.5,7.6-0.3c0.8,0.4,1.3,1,2,1.6
		c0.3-0.5,0.1-1,0-1.4c-0.2-2,0-4-0.1-6c0-0.5,0-0.9,0-1.4c0-0.6,0.2-0.7,0.7-0.7c2.5,0.1,2.1-0.4,2.1,2c0,7.4,0,14.7,0,22.1
		c0,0.9,0,0.9-0.9,0.9c-1.3,0-1.3,0-1.5-1.2c-0.1-0.3-0.1-0.6-0.2-1c-0.5,0.5-1,0.9-1.4,1.4c-0.8,0.2-1.5,0.7-2.3,0.9
		c-3.3,0.7-6.3-0.3-8-3.2c-0.5-0.6-0.6-1.4-0.8-2.1C256.4,54.6,256.4,52.1,256.9,49.7z"/>
	<path class="st37" d="M112.1,55.2c0-3.3,0-6.7,0-10c0-0.6,0.2-0.8,0.8-0.8c0.5,0,1,0,1.4,0c0.5,0,0.7,0.2,0.7,0.7
		c0,0.1,0,0.2,0,0.3c0,6.4,0,12.9,0,19.3c0,1-0.1,1.9-0.5,2.9c-0.7,1.6-2,2.3-3.6,2.4c-1,0.1-1.9,0.1-2.9-0.2
		c-0.4-0.1-0.5-0.3-0.5-0.7c0-0.4,0-0.8,0-1.2c-0.1-0.7,0.3-0.7,0.8-0.6c0.5,0.1,1,0.2,1.5,0.2c1.5,0,2.4-0.9,2.4-2.3
		C112.1,62,112,58.6,112.1,55.2C112.1,55.2,112.1,55.2,112.1,55.2z"/>
	<path class="st42" d="M227.5,48c0,0,0.1,0,0.1,0c0.6,0.6,1.4,0.8,2.2,1c1.7,0.6,3.5,1.2,4.9,2.5c0,0,0.1,0,0.2,0
		c2.5,2.2,2.2,7.1-0.3,9c-1.7,1.3-3.6,1.8-5.6,1.8c-1.6,0-3.2,0.1-4.8-0.3c-0.7-0.1-1.4-0.4-2-0.6c-0.1,0-0.2-0.1-0.2-0.2
		c-0.2-0.2-0.2-2.1-0.1-2.3c0.1-0.2,0.3-0.2,0.5-0.1c0.8,0.3,1.6,0.5,2.5,0.7c1.9,0.4,3.9,0.6,5.9,0.1c2.4-0.6,3.8-3.1,2.7-5.3
		c-0.4-0.7-0.9-1.3-1.6-1.7c-1.2-0.7-2.5-1.2-3.9-1.7c-1.3-0.5-2.6-1.1-3.8-2c-1.2-1-1.9-2.3-2-3.9c-0.2-1.8,0.1-3.4,1.3-4.8
		c0.1-0.1,0.3-0.3,0.4-0.4c0.3-0.2,0.6-0.3,0.8-0.6l0,0c0.9-0.5,1.9-0.9,2.9-1c1.4-0.1,2.8-0.2,4.2,0c1.2,0.1,2.4,0.5,3.5,0.9
		c0.4,0.1,0.5,0.4,0.3,0.7c-0.2,0.5-0.3,0.9-0.5,1.4c-0.1,0.3-0.3,0.4-0.6,0.3c-1.1-0.4-2.2-0.7-3.3-0.9c-1.4-0.2-2.8-0.3-4.1,0.2
		c-2.6,0.9-3.2,4.2-1.1,6.1C226.6,47.4,227.1,47.7,227.5,48z"/>
	<path class="st43" d="M223.5,40.5c-0.3,0.7-0.9,1.2-1,2c-0.7,3.4,0.1,5.9,3.2,7.6c1.9,1,4,1.5,5.9,2.6c1.8,1,2.7,2.6,2.2,4.5
		c-0.4,1.5-1.5,2.4-2.9,2.7c-2.8,0.7-5.5,0.2-8.2-0.8c-0.5-0.2-0.8-0.2-0.7,0.5c0,0.2,0,0.5,0,0.7c0,1.2,0.1,1.3,1.3,1.6
		c1.8,0.4,3.6,0.6,5.4,0.5c2,0,3.9-0.4,5.6-1.6c0.1-0.1,0.2-0.2,0.4-0.2c-0.9,1-2,1.4-3.3,1.7c-2.5,0.5-5,0.4-7.5,0
		c-0.6-0.1-1.2-0.4-1.8-0.6c-0.3-0.1-0.4-0.3-0.4-0.6c0-0.6,0-1.3,0-1.9c0-0.4,0.1-0.6,0.6-0.4c1.7,0.7,3.5,1,5.3,1.2
		c1.3,0.1,2.5,0,3.7-0.5c1.3-0.5,2.2-1.3,2.3-2.7c0.2-1.7-0.4-2.9-1.9-3.8c-1.1-0.6-2.3-1.1-3.5-1.6c-1.7-0.6-3.2-1.3-4.5-2.5
		c-1.8-2-2-4.4-1.3-6.9C222.6,41.4,223,40.9,223.5,40.5z"/>
	<path class="st37" d="M187.8,49.9c-0.6,0.7-0.7,1.6-0.7,2.5c0,3,0,6,0,8.9c0,0.6-0.2,0.7-0.7,0.7c-1.7,0-1.7,0-1.7-1.7
		c0-5,0-10,0-14.9c0-0.6,0.1-0.8,0.8-0.8c1.6,0.1,1.1-0.1,1.4,1.3c0.1,0.3,0,0.7,0,1c0,0.3,0,0.6,0.3,0.7c0.2,0.1,0.4-0.2,0.5-0.5
		c0.3-0.5,0.6-0.8,1-1.2c1.4-1.5,3.2-1.8,5.1-1.6c0.6,0.1,0.8,0.3,0.7,0.9c0,0.1,0,0.2,0,0.3c-0.3,1.2-0.3,1.1-1.5,1
		c-1-0.1-2-0.1-2.9,0.7C189,48,188.3,48.9,187.8,49.9z"/>
	<path class="st44" d="M200.8,51.6c0,0.3,0,0.5,0.3,0.7c0.2,0.9,0.6,1.7,1,2.6c0.4,1.4,0.9,2.7,1.3,4.1c0,0,0.1,0,0.1,0
		c0.3-0.8,0.5-1.5,0.8-2.3c0.3-1,0.8-1.9,1-3c0.1-0.1,0.2-0.1,0.2-0.2c0.2,0.3,0,0.6,0,0.9c-0.5,1.5-1,2.9-1.5,4.3
		c0,0.1-0.1,0.3-0.2,0.4c-0.2,0.4-0.5,0.4-0.7,0c-0.2-0.4-0.3-0.8-0.4-1.1c-0.7-2.5-1.7-4.9-2.6-7.3c-0.6-1.7-1.3-3.3-1.9-5
		c-0.2-0.6-0.6-0.9-1.2-0.8c-0.3,0-0.6,0-0.9,0c-0.3,0-0.5,0.2-0.5,0.5c0,0.1-0.1,0.1-0.1,0.2c-0.3-0.2-0.3-0.5-0.2-0.8
		c0.1-0.3,0.4-0.2,0.7-0.2c0.2,0,0.5,0,0.7,0c1.6,0,1.6,0,2.2,1.5c0.4,1,0.8,2,1.1,3C200.1,49.8,200.4,50.7,200.8,51.6z"/>
	<path class="st40" d="M200.3,66.3c0.5-1.1,1-2.2,1.5-3.3c0.2-0.5,0.3-1,0-1.5c-0.2-0.4-0.3-0.9-0.6-1.3c-0.4-1.3-1-2.6-1.5-3.9
		c-0.1-0.2-0.1-0.4-0.2-0.6c0.1,0,0.1,0,0.2,0c0.1,0.1,0.2,0.2,0.3,0.4c0.8,1.9,1.5,3.8,2.3,5.7c0.1,0.3,0.1,0.7,0,1
		c-0.4,1-0.8,2.1-1.3,3.1C200.8,66.1,200.7,66.4,200.3,66.3z"/>
	<path class="st40" d="M199.6,55.6c0,0-0.1,0-0.1,0c-0.6-1.2-1-2.5-1.6-3.7c-0.8-2-1.6-4-2.4-6c-0.1-0.1-0.1-0.3-0.1-0.5
		c0-0.1,0-0.1,0-0.2c0.3,0,0.4,0.3,0.4,0.5c1.2,3.1,2.5,6.1,3.7,9.2C199.6,55.2,199.7,55.4,199.6,55.6z"/>
	<path class="st41" d="M249.2,53.3c0-2.7,0-5.4,0-8c0-0.6,0.2-0.8,0.8-0.8c2,0,2,0,2,2c0,5,0,10,0,14.9c0,0.6-0.2,0.9-0.8,0.8
		c-0.6-0.1-1.4,0.3-1.8-0.2c-0.4-0.4-0.1-1.2-0.1-1.8C249.2,58,249.2,55.6,249.2,53.3z"/>
	<path class="st42" d="M300.5,48.3c-0.4,0.2-0.6,0.5-0.8,0.9c-0.5,0.7-0.7,1.5-0.9,2.3c-0.1,0.2-0.1,0.5-0.1,0.7c0,3.1,0,6.1,0,9.2
		c0,0.5-0.1,0.7-0.6,0.6c-0.5,0-1,0-1.5,0c-0.4,0-0.5-0.1-0.5-0.5c0-0.1,0-0.2,0-0.3c0-5.3,0-10.5,0-15.8c0-0.9,0-0.9,0.9-0.9
		c1.4,0,1.4,0,1.5,1.5c0,0.3,0,0.6,0,1c0,0.1,0,0.3,0.2,0.4c0.2,0.1,0.3-0.1,0.4-0.3c0.5-0.8,1.2-1.5,2-2.1c1.4-0.9,2.9-1,4.5-0.7
		c0.3,0.1,0.5,0.2,0.5,0.6c0,0.5-0.1,0.9-0.2,1.3c-0.1,0.5-0.3,0.6-0.7,0.5c-0.7-0.1-1.3-0.2-2-0.1c-0.7,0.1-1.4,0.4-2,0.8
		C300.9,47.8,300.7,48,300.5,48.3z"/>
	<path class="st45" d="M301.1,47.6c0.6-0.8,1.4-0.9,2.3-1c0.5-0.1,1.1-0.1,1.6,0.1c0.4,0.1,0.6,0.1,0.6-0.4c0-0.2,0.1-0.4,0.1-0.5
		c0.3-1.4,0.2-1.3-1.1-1.4c-2.3-0.2-4.1,0.8-5.4,2.6c0,0.1-0.1,0.1-0.1,0.2c-0.2,0.2-0.3,0.6-0.6,0.5c-0.3-0.1-0.2-0.5-0.2-0.7
		c0-0.2,0-0.5,0-0.7c-0.1-1.5-0.1-1.5-1.6-1.5c-0.4,0-0.6,0.1-0.6,0.6c0,5.4,0,10.8,0,16.3c0,0.4,0.1,0.5,0.5,0.6
		c1.9,0.1,1.9,0.1,1.9-1.8c0-2.6,0-5.3,0-7.9c0-0.3-0.1-0.6,0.1-0.8c0,3.4,0,6.7,0,10.1c0,0.2,0,0.4,0,0.5c-0.9,0-1.8,0-2.7,0
		c0,0,0,0,0,0c-0.1-0.2-0.1-0.3-0.1-0.5c0-5.5,0-11.1,0-16.6c0-0.2,0-0.3,0.1-0.5c0.7-0.3,1.4-0.1,2.1-0.1c0.3,0,0.4,0.4,0.4,0.7
		c0,0.6,0.1,1.2,0.1,1.8c0,0.1,0,0.3,0.2,0.3c0.2,0,0.2-0.1,0.3-0.2c0.8-1.1,1.7-2,2.9-2.5c1.2-0.5,2.5-0.5,3.8-0.3
		c0.4,0,0.6,0.2,0.5,0.7c-0.1,0.5-0.2,1.1-0.2,1.6c0,0.3-0.2,0.4-0.6,0.4c-0.7,0-1.4-0.2-2.2-0.1C302.4,47,301.8,47.3,301.1,47.6z"
		/>
	<path class="st15" d="M295.9,44.6c0,5.6,0,11.1,0,16.7c0,0.3,0,0.6,0,0.9c-0.2-0.1-0.2-0.4-0.2-0.6c0-5.5,0-11,0-16.5
		C295.8,45,295.8,44.7,295.9,44.6z"/>
	<path class="st46" d="M5,43c0.3-1.5,0.5-3,0.8-4.5c0.8-3.5,2-6.8,3.6-10c0-0.1,0.1-0.2,0.2-0.3c0.1,0,0.1,0,0.2,0
		c0.2,0.4-0.1,0.7-0.2,0.9C8.1,32,7,34.9,6.3,38c-0.1,0.6-0.2,1.2-0.4,1.7c-0.1,0.2-0.1,0.5-0.1,0.7c-0.1,0.3-0.1,0.6-0.2,0.9
		c-0.1,0.3-0.1,0.6-0.1,0.9c-0.1,0.4-0.1,0.9-0.2,1.3c-0.1,0.4-0.1,0.9-0.1,1.4c0,0.2,0,0.5-0.1,0.7c-0.1,0.4-0.1,0.8-0.1,1.2
		c0,0.8,0,1.6,0,2.4c0,0.3,0,0.7,0.1,1c0,0.2,0.1,0.5,0.1,0.7c0,0.5-0.1,0.9,0.1,1.3c0.1,0.4,0.1,0.9,0.2,1.3c0,0.3,0,0.6,0.1,0.9
		c0.1,0.3,0.1,0.6,0.2,0.9c0,0.2,0,0.5,0.1,0.7c0.9,5,2.7,9.6,5.3,13.9c1.1,1.9,2.4,3.8,3.9,5.5c0.2,0.2,0.4,0.4,0.5,0.7
		c0,0.1,0,0.1,0,0.2c-0.1,0.1-0.1,0.1-0.2,0c-2.7-3-4.8-6.4-6.5-10.1c-1.4-3.1-2.5-6.3-3.2-9.6c-0.4-2.1-0.6-4.2-0.8-6.3
		C4.6,48,4.9,45.5,5,43z"/>
	<path class="st47" d="M15.3,76.6c0,0,0.1,0,0.1,0c0.3,0.1,0.4,0.3,0.7,0.5c1.3,1.2,2.5,2.6,3.8,3.8c0.1,0.1,0.3,0.3,0.2,0.5
		c-0.4,0-0.5-0.4-0.8-0.6c-0.8-0.7-1.5-1.4-2.3-2.2c-0.3-0.6-0.8-0.9-1.2-1.4C15.6,77,15.4,76.9,15.3,76.6z"/>
	<path class="st48" d="M226.3,47.3c-1.4-0.7-2-3.1-1.1-4.6c0.8-1.3,2-1.8,3.4-1.9c2.1-0.2,4.1,0.2,6.1,1c0.3,0.1,0.4,0.1,0.5-0.2
		c0-0.2,0.1-0.3,0.2-0.4c0.5-1.5,0.5-1.5-1.1-2c-1.6-0.4-3.3-0.7-5-0.6c-0.6,0-1.1,0-1.7,0c0,0-0.1-0.1,0-0.1c0,0,0,0,0,0
		c0.1,0,0.2,0,0.4,0c1.1-0.1,2.2-0.1,3.4,0c1.5,0,2.9,0.5,4.3,1c0.3,0.1,0.4,0.3,0.3,0.6c-0.2,0.5-0.4,0.9-0.5,1.4
		c-0.2,0.6-0.5,0.6-1,0.4c-1.8-0.7-3.6-1.1-5.5-1c-0.8,0-1.6,0.2-2.3,0.7c-2.1,1.2-2.2,3.9-0.3,5.6
		C226.3,47.2,226.3,47.3,226.3,47.3z"/>
	<path class="st49" d="M227.6,38.4c0,0,0,0.1,0,0.1c-1,0.2-1.9,0.6-2.9,1C225.6,38.8,226.6,38.6,227.6,38.4z"/>
	<path class="st49" d="M231.4,38.4c-1.1,0-2.2,0-3.4,0C229.1,38.2,230.3,38.2,231.4,38.4z"/>
	<path class="st50" d="M226.3,47.3c0-0.1,0-0.1,0-0.2c0.1,0,0.3,0.1,0.4,0.1c0.1,0.2,0.3,0.3,0.5,0.3c0.1,0.1,0.2,0.3,0.3,0.4
		C227,47.9,226.6,47.6,226.3,47.3z"/>
	<path class="st49" d="M224.8,39.5c-0.2,0.3-0.5,0.5-0.8,0.6c0.1-0.1,0.2-0.3,0.3-0.4C224.4,39.7,224.6,39.5,224.8,39.5z"/>
	<path class="st44" d="M70,86.3c-1.1,0.8-2.4,1.3-3.6,1.9c-1.3,0.6-2.7,1-4,1.6c0,0-0.1,0-0.1,0.1c-0.6,0.2-1.2,0.4-1.7,0.6
		c-0.7,0.2-1.4,0.2-2.1,0.5c-1.5,0.3-3,0.6-4.6,0.7c-2.8,0.3-5.6,0.5-8.5,0.2c-1-0.1-2-0.1-3-0.3c0-0.1,0-0.1,0-0.2
		c0.3-0.2,0.6-0.1,0.9-0.1c2,0.3,3.9,0.4,5.9,0.4c5-0.1,9.8-0.9,14.5-2.7c1.8-0.7,3.6-1.5,5.4-2.4C69.3,86.3,69.6,86,70,86.3z"/>
	<path class="st51" d="M42.4,91.3c0,0,0,0.1,0,0.1c-1.7-0.1-3.3-0.5-4.9-0.9c-3.3-0.8-6.4-2.1-9.4-3.7c-0.1-0.1-0.3-0.1-0.4-0.2
		c-1.7-1.1-3.4-2-5-3.2c-0.8-0.6-1.7-1.2-2.3-1.9c0.4-0.3,0.6,0.1,0.8,0.2c2.4,2,5.1,3.7,7.9,5.1c3,1.5,6.2,2.7,9.4,3.5
		c1,0.3,2.1,0.5,3.1,0.6C41.8,91,42.2,91,42.4,91.3z"/>
	<path class="st10" d="M58.4,90.9c0.7-0.3,1.4-0.5,2.2-0.6c0,0,0,0,0.1,0c0,0.1,0,0.1,0,0.1l0,0c-0.3,0.1-0.6,0.2-1,0.3c0,0,0,0,0,0
		C59.2,90.8,58.8,90.8,58.4,90.9z"/>
	<path class="st12" d="M53.9,91.9c-0.5,0.3-1,0.1-1.5,0.1C52.8,91.7,53.4,91.9,53.9,91.9z"/>
	<path class="st12" d="M55.8,91.6c-0.2,0.2-0.5,0.1-0.8,0.1C55.2,91.5,55.5,91.6,55.8,91.6z"/>
	<path class="st37" d="M199.6,55.6c-1.3-3.2-2.5-6.3-3.8-9.5c-0.1-0.3-0.3-0.6-0.4-0.9c-0.3-0.5-0.1-0.7,0.4-0.7
		c0.4,0,0.8,0.1,1.2,0c0.8-0.1,1,0.3,1.3,1c0.8,2.3,1.7,4.5,2.6,6.7c0.7,2,1.5,3.9,2.1,5.9c0.1,0.4,0.1,1,0.5,1c0.4,0,0.4-0.6,0.5-1
		c0.5-1.6,1.2-3.2,1.6-4.8c0.5-1.4,0.9-2.8,1.4-4.2c0.5-1.4,1.1-2.8,1.6-4.3c0.1-0.4,0.4-0.5,0.7-0.5c0.6,0,1.2,0,1.8,0
		c0.5,0,0.6,0.2,0.5,0.7c-0.7,1.9-1.5,3.9-2.2,5.8c-1.4,3.7-2.8,7.5-4.2,11.2c0,0.1,0,0.2,0,0.3c-0.6,1.3-1,2.6-1.6,3.9
		c-0.9,1.9-2.3,3.2-4.3,3.6c-1.2,0.3-2.3,0.1-3.5-0.2c-0.1,0-0.2-0.1-0.2-0.3c0-0.1,0-0.2,0-0.3c0-0.5-0.1-1.1,0.1-1.5
		c0.3-0.5,0.9-0.1,1.4-0.1c1.4,0.1,2.6-0.4,3.6-1.4c0.6-0.4,0.7-1,1-1.6c0.3-0.6,0.5-1.3,0.8-1.9c0.3-0.7-0.1-1.4-0.4-2
		C201,59.1,200.3,57.4,199.6,55.6z"/>
	<path class="st37" d="M42.4,91.3c-1.7-0.4-3.3-0.6-5-1.1c-2.1-0.6-4.2-1.3-6.2-2.2c-3.3-1.5-6.4-3.3-9.3-5.5
		c-0.5-0.4-0.9-1-1.6-1.1c0,0-0.1-0.1-0.1-0.1c0-0.2-0.2-0.3-0.4-0.5c-1.3-1.2-2.6-2.4-3.7-3.8c-0.2-0.3-0.4-0.4-0.5-0.7
		c-1.7-1.9-3.1-3.9-4.4-6.1c-1.3-2.2-2.5-4.5-3.3-7c-0.8-2.3-1.6-4.7-2-7.2c-0.2-0.2,0-0.5-0.1-0.7c-0.1-0.3-0.2-0.6-0.1-1
		c-0.2-0.3,0-0.6-0.1-0.8c-0.1-0.5-0.2-0.9-0.1-1.4C5,51.9,5.3,51.4,5.1,51c0-0.2,0-0.5,0-0.7c-0.2-0.3,0-0.7-0.1-1
		c0-0.9,0-1.7,0-2.6c0.2-0.3,0-0.7,0.1-1.1c0-0.2,0-0.5,0-0.7c0.2-0.4-0.1-0.9,0.1-1.4c0-0.5,0-0.9,0.1-1.4c0.2-0.3,0-0.6,0.1-0.8
		c0-0.3,0.1-0.6,0.1-1c0.2-0.2,0-0.5,0.1-0.7c0.1-1.4,0.5-2.6,0.9-4c0.7-2.5,1.7-4.9,2.9-7.2c0.1-0.1,0.1-0.3,0.2-0.4
		c-0.1-0.5,0.2-0.8,0.4-1.1c1.2-2.2,2.6-4.4,4.2-6.3c0-0.1,0-0.2,0.1-0.3c0.2-0.2,0.4-0.4,0.6-0.5c0.2-0.3,0.5-0.5,0.7-0.8
		c0.1-0.1,0.2-0.2,0.3-0.3c0.2-0.2,0.4-0.4,0.6-0.7c0.7-0.8,1.5-1.6,2.3-2.3c0.3-0.2,0.4-0.4,0.7-0.6c0.1-0.1,0.2-0.2,0.3-0.3
		c0.3-0.2,0.5-0.5,0.8-0.7c0.3-0.2,0.6-0.5,0.8-0.7c0.2-0.1,0.4-0.3,0.5-0.4c0.2-0.1,0.4-0.3,0.6-0.4c0.2-0.1,0.4-0.3,0.5-0.4
		c1.7-1.2,3.4-2.2,5.2-3.3c1-0.5,2.1-1,3.1-1.5c1.1-0.3,2.2-0.8,3.3-1.2c2-0.7,4-1.1,6-1.6c0.2-0.2,0.5,0,0.7-0.1l0,0
		c0.2-0.2,0.5,0,0.7-0.1c0.1,0,0.2,0,0.3,0c0.3-0.2,0.7,0,1-0.1l0,0c0.3-0.2,0.7,0,1-0.1c0.1,0,0.3,0,0.4,0c0.6-0.2,1.2,0.1,1.8-0.1
		c0,0,0.1,0,0.1,0c1.4-0.1,2.7-0.1,4.1,0c0,0,0.1,0,0.1,0c0.5,0.2,1.1,0,1.6,0.1c0.2,0,0.4,0,0.5,0c0.3,0.2,0.7,0,1,0.1l0,0
		c0.3,0.2,0.7,0,1,0.1c0.1,0,0.2,0,0.3,0c0.2,0.2,0.5,0,0.7,0.1l0,0c0.2,0.2,0.5,0,0.7,0.1c1.4,0.3,2.8,0.7,4.2,1
		c1.8,0.5,3.5,1.1,5.2,1.8c1.1,0.5,2.1,1.1,3.3,1.5c1.1,0.7,2.1,1.4,3.3,1.9c0.6,0.5,1.3,0.9,1.9,1.4c2.1,1.5,4,3.2,5.8,5.1
		c0.4,0.4,0.8,0.9,1.1,1.3l0,0c1,1,1.8,2.1,2.6,3.2c0.1,0.2,0.2,0.3,0.4,0.5l0,0c0.8,1.1,1.5,2.3,2.2,3.4c0.5,1,1.1,1.9,1.6,2.9
		c0.4,1,0.8,2,1.2,3c0.1,0.2,0.1,0.4,0.2,0.6c0.8,2.2,1.4,4.4,1.9,6.6c0.8,3.4,1,6.8,0.9,10.2c-0.1,2.5-0.3,4.9-0.9,7.4
		c0,0.2-0.1,0.4-0.1,0.6c-0.7,2.8-1.4,5.5-2.5,8.1c-0.2,0.4-0.3,0.8-0.6,1.2c-0.8,1.7-1.8,3.2-2.7,4.8c-0.2,0.3-0.4,0.5-0.5,0.8
		c-0.9,1.5-2,2.9-3.2,4.3c-0.7,0.9-1.5,1.7-2.2,2.5c-1.2,1.2-2.4,2.4-3.8,3.4c-1.9,1.5-3.9,2.9-6,4c-0.3,0-0.6,0.2-0.8,0.3
		c-3.1,1.7-6.4,3-9.9,3.8c-1.9,0.5-3.8,0.8-5.8,1c-2,0.2-4,0.3-6,0.3C45.8,91.6,44.1,91.4,42.4,91.3z"/>
	<path class="st52" d="M14.4,20.8c0,0.3-0.2,0.4-0.3,0.6c-1.7,2.1-3.2,4.4-4.3,6.8c-0.1,0-0.1,0-0.2,0c0.2-0.8,0.7-1.5,1.1-2.2
		c0.9-1.6,2-3.2,3.1-4.7C13.9,21,14.1,20.8,14.4,20.8z"/>
	<path class="st37" d="M124.1,40.1c2.2-1.3,4.5-1.7,7-1.6c1.6,0.1,3.2,0.4,4.7,1.2c2,1.1,3.4,2.8,4.3,4.9c0.9,2.3,1,4.7,0.9,7.1
		c-0.1,2.5-0.7,4.9-2.3,7c-1,1.3-2.2,2.3-3.7,2.9c-0.8,0.4-0.8,0.5-0.2,1.1c1.5,1.5,2.9,3,4.4,4.6c0.1,0.1,0.1,0.2,0.3,0.4
		c-1.3,0-2.4,0.1-3.5,0c-0.6,0-0.9-0.8-1.2-1.2c-1.1-1.2-2.1-2.4-3.1-3.6c-0.2-0.2-0.3-0.4-0.6-0.4c-2.2,0.2-4.3-0.4-6.4-1.2
		c-2.3-1.3-3.7-3.2-4.4-5.7c-0.4-2-0.6-4-0.5-6.1c0.1-2.6,0.7-5.1,2.3-7.3C122.6,41.3,123.3,40.7,124.1,40.1z"/>
	<path class="st42" d="M278.1,47.3c0-0.1,0.1-0.1,0.1-0.2c0.6-0.3,0.9-0.9,1.4-1.4c0.9-0.7,1.8-1.1,2.9-1.4c1.2-0.2,2.3-0.3,3.5,0
		c2.3,0.5,3.9,1.8,4.8,3.9c0.7,1.7,0.8,3.5,0.7,5.3c-0.2,0.2-0.5,0.1-0.7,0.1c-3.5,0-6.9,0-10.4,0c-0.8,0-0.9,0.1-0.8,0.9
		c0.1,1.8,0.7,3.3,2.2,4.5c0.4,0.3,0.7,0.4,1.1,0.6c0.1,0,0.3,0,0.4,0c0.2,0.2,0.5,0.3,0.7,0.3c2.2,0.2,4.3-0.1,6.4-1
		c0.3-0.1,0.4,0.1,0.4,0.3c0,0.5,0,1,0,1.5c0,0.4-0.2,0.5-0.5,0.6c-2.1,0.9-4.4,0.9-6.7,0.9c-0.2,0-0.5-0.1-0.7-0.2
		c-2.6-0.5-4.4-2-5.4-4.3c-0.9-2.1-1-4.3-0.6-6.5c0-0.2,0-0.4,0-0.6c0.3-1,0.6-2,1.1-3C278,47.6,278.1,47.5,278.1,47.3z"/>
	<path class="st53" d="M282.8,59.7c-1.7-0.5-2.5-1.7-3.1-3.2c-0.3-0.7-0.3-1.5-0.4-2.2c-0.1-0.5,0.3-0.6,0.7-0.6c1.4,0,2.9,0,4.3,0
		c2.4,0,4.7,0,7.1,0c-0.2,0.3-0.5,0.2-0.8,0.2c-3.4,0-6.9,0-10.3,0c-0.2,0-0.5-0.1-0.7,0.1c0,0,0,0.1,0,0.1
		c-0.2,1.4,0.3,2.7,1.1,3.9c0.2,0.4,0.5,0.6,0.8,0.8C281.9,59.3,282.5,59.3,282.8,59.7z"/>
	<path class="st54" d="M76,82.3c1-0.9,1.9-1.8,2.9-2.7c1.5-1.3,2.7-2.8,3.9-4.3c0.8-1,1.5-2.1,2.3-3.1c0.1,0,0.1,0,0.1,0
		c-0.8,1.5-1.8,2.7-2.8,4c-1.8,2.3-4,4.3-6.2,6.1C76.2,82.3,76.1,82.3,76,82.3z"/>
	<path class="st4" d="M62.9,89.9c-0.2,0-0.4,0-0.5,0c0,0-0.1-0.1,0-0.1c0,0,0,0,0,0c0,0,0,0,0,0c0.3,0,0.6-0.1,0.8-0.1
		C63.1,89.8,63,89.8,62.9,89.9z"/>
	<path class="st13" d="M71.4,85.8c0,0.1-0.1,0.2-0.1,0.3c-0.1,0-0.3,0-0.4,0C70.9,85.9,71.1,85.9,71.4,85.8z"/>
	<path class="st55" d="M282.8,62.2c1,0.2,2,0.1,3,0.1c1.5,0,2.9-0.4,4.3-0.9c0.4-0.1,0.6-0.3,0.5-0.8c0-0.4,0-0.8,0-1.2
		c0-0.2,0-0.4-0.3-0.5c0.1-0.2,0.3-0.1,0.4-0.1c0,0,0,0,0,0c0.1,0.8,0.1,1.6,0,2.5c-1.1,0.6-2.3,0.8-3.5,1.1c-1.3,0-2.6,0-3.9,0
		C283.1,62.4,283,62.3,282.8,62.2z"/>
	<path class="st56" d="M111.8,39.8c0-1.1,0.7-1.9,1.7-1.9c1,0,1.7,0.7,1.7,1.9c0,1.2-0.6,1.9-1.6,1.9
		C112.5,41.7,111.8,41,111.8,39.8z"/>
	<path class="st57" d="M85.3,72.2c0,0-0.1,0-0.1,0c0.8-1.4,1.7-2.8,2.5-4.3c0.2-0.4,0.3-0.9,0.7-1.3c0.1,0.1,0.1,0.2,0.1,0.3
		c-0.3,0.9-0.7,1.7-1.2,2.4c-0.5,0.9-1.1,1.8-1.6,2.7C85.5,72.1,85.4,72.1,85.3,72.2z"/>
	<path class="st58" d="M256.9,57c0.4,0.6,0.5,1.4,0.8,2.1c0,0-0.1,0-0.1,0c-0.2-0.5-0.5-1-0.7-1.5C256.9,57.4,256.9,57.2,256.9,57z"
		/>
	<path class="st19" d="M290.8,61.4c0-0.8,0-1.6,0-2.5C291,59.7,291,60.6,290.8,61.4z"/>
	<path class="st59" d="M251,41.7c-0.5,0.1-1-0.2-1.5-0.3c-0.3-0.1-0.4-0.4-0.5-0.7c-0.1-0.6-0.1-1.2,0-1.8c0.4,0,0.3,0.3,0.3,0.5
		c0,0.2,0,0.5,0,0.7c0.1,0.6,0.6,1.1,1.2,1.1c0.6,0,1-0.4,1.2-1c0.1-0.4,0-0.8-0.1-1.2c-0.2-0.6-1.3-0.8-1.9-0.4
		c-0.2,0.1-0.3,0.4-0.6,0.3c-0.2-0.2,0-0.4,0.1-0.5c0.9-0.7,2-0.7,2.6,0.1c0.7,0.8,0.5,2.1-0.3,2.9C251.4,41.6,251.2,41.6,251,41.7
		L251,41.7z"/>
	<path class="st27" d="M249.1,39c-0.3,0.6,0,1.2-0.1,1.8l-0.1,0c0,0-0.1,0-0.1,0c0-0.6,0-1.3,0-1.9c0.2-0.1,0.2-0.4,0.4-0.4
		C249.2,38.6,249.1,38.8,249.1,39C249.1,39,249.1,39,249.1,39z"/>
	<path class="st27" d="M251,41.7c0.1-0.2,0.3-0.3,0.5-0.3c0,0.1,0,0.1,0,0.2C251.4,41.6,251.2,41.7,251,41.7z"/>
	<path class="st60" d="M87.2,69.3c0.4-0.8,0.8-1.6,1.1-2.4c0.8-1.8,1.6-3.6,2.2-5.5c0.1-0.3,0-0.7,0.4-0.9c0,0.1,0,0.3,0,0.4
		c-0.2,0.9-0.6,1.8-0.9,2.7c-0.1,0.3-0.2,0.5-0.2,0.8c-0.4,0.6-0.7,1.2-0.8,1.9c-0.5,1-1.1,2-1.6,3C87.3,69.3,87.2,69.3,87.2,69.3z"
		/>
	<path class="st10" d="M62.3,89.8c0,0,0,0.1,0,0.1c-0.3,0.1-0.5,0.2-0.8,0.3c-0.3,0-0.6,0.3-0.9,0.1c0,0,0,0,0,0
		C61.1,90,61.7,89.9,62.3,89.8z"/>
	<path class="st4" d="M60.6,90.4c0.3,0,0.6-0.2,0.9-0.1c-0.1,0.1-0.3,0.2-0.4,0.3c-0.2,0-0.4,0-0.5,0C60.6,90.4,60.6,90.4,60.6,90.4
		z"/>
	<path class="st4" d="M59.6,90.8c0.3-0.2,0.6-0.3,1-0.3c-0.1,0.1-0.3,0.2-0.4,0.3C60,90.8,59.8,90.8,59.6,90.8z"/>
	<path class="st9" d="M50.7,4.3c-1.4,0-2.7,0-4.1,0c0.7-0.3,1.5-0.1,2.3-0.1C49.5,4.2,50.1,4,50.7,4.3z"/>
	<path class="st9" d="M46.5,4.3c-0.6,0.3-1.2,0.1-1.8,0.1C45.3,4.1,45.9,4.3,46.5,4.3z"/>
	<path class="st9" d="M52.5,4.4c-0.5-0.1-1.1,0.1-1.6-0.1C51.4,4.3,52,4.1,52.5,4.4z"/>
	<path class="st9" d="M55,4.7c-0.3,0-0.7,0.1-1-0.1C54.3,4.6,54.7,4.4,55,4.7z"/>
	<path class="st9" d="M44.3,4.4c-0.3,0.2-0.6,0.1-1,0.1C43.6,4.3,44,4.5,44.3,4.4z"/>
	<path class="st9" d="M54,4.6c-0.3,0-0.7,0.1-1-0.1C53.4,4.5,53.7,4.3,54,4.6z"/>
	<path class="st9" d="M43.3,4.6c-0.3,0.3-0.6,0.1-1,0.1C42.7,4.4,43,4.6,43.3,4.6z"/>
	<path class="st9" d="M42.1,4.7c-0.2,0.2-0.5,0.1-0.7,0.1C41.6,4.6,41.9,4.7,42.1,4.7z"/>
	<path class="st9" d="M55.9,4.8c-0.2,0-0.5,0.1-0.7-0.1C55.5,4.7,55.7,4.6,55.9,4.8z"/>
	<path class="st9" d="M41.4,4.8C41.2,5,41,4.9,40.7,5C40.9,4.7,41.2,4.9,41.4,4.8z"/>
	<path class="st9" d="M56.6,5c-0.2,0-0.5,0.1-0.7-0.1C56.1,4.9,56.4,4.7,56.6,5z"/>
	<path class="st57" d="M81.5,19c-0.4-0.2-0.6-0.6-0.9-0.9c-1.7-1.8-3.5-3.5-5.5-4.9c-0.2-0.2-0.4-0.3-0.6-0.6c0.1,0,0.1,0,0.2,0
		c2.3,1.6,4.3,3.5,6.2,5.5C81.1,18.4,81.4,18.6,81.5,19z"/>
	<path class="st61" d="M84.5,22.7c-0.6-0.4-0.9-1.1-1.3-1.6c-0.6-0.7-1.1-1.4-1.7-2.1c0.5,0.1,0.7,0.6,1,1
		C83.2,20.9,84,21.7,84.5,22.7z"/>
	<path class="st61" d="M86.7,26.1c-0.8-1.1-1.6-2.2-2.2-3.4C85.4,23.7,86.1,24.9,86.7,26.1z"/>
	<path class="st52" d="M20.7,14.4c-0.2,0.3-0.4,0.6-0.8,0.7C20.1,14.8,20.3,14.5,20.7,14.4z"/>
	<path class="st52" d="M15.7,19.2c-0.1,0.4-0.4,0.6-0.7,0.8C15.1,19.6,15.5,19.4,15.7,19.2z"/>
	<path class="st52" d="M16.6,18.2c0,0.3-0.3,0.5-0.6,0.7C16.1,18.6,16.3,18.4,16.6,18.2z"/>
	<path class="st52" d="M19.6,15.3c-0.2,0.3-0.3,0.5-0.7,0.6C19.1,15.6,19.2,15.4,19.6,15.3z"/>
	<path class="st52" d="M22,13.3c-0.1,0.2-0.3,0.4-0.5,0.4C21.6,13.5,21.8,13.3,22,13.3z"/>
	<path class="st52" d="M23.1,12.5c-0.1,0.2-0.3,0.4-0.5,0.4C22.7,12.7,22.9,12.5,23.1,12.5z"/>
	<path class="st62" d="M90.9,60.4c-0.7,2-1.3,4-2.2,5.9c-0.1,0.2-0.2,0.4-0.3,0.6c0-0.1,0-0.2,0-0.3c1.4-2.9,2.4-6,3.1-9.2
		c0.1,0,0.1,0,0.2,0c0,0.1,0,0.2,0,0.3C91.3,58.6,91.1,59.5,90.9,60.4z"/>
	<path class="st33" d="M92.4,43.3c0.3,0.6,0.2,1.2,0.2,1.8c0.1,2,0.1,4,0,6c-0.1,1.1-0.2,2.2-0.3,3.2c0,0.2,0,0.4-0.1,0.5
		c0,0-0.1-0.1-0.1-0.1c0-1.6,0.3-3.2,0.4-4.7c0-1.5,0.1-3-0.1-4.6c-0.1-0.6,0-1.3-0.1-1.9C92.3,43.5,92.3,43.4,92.4,43.3z"/>
	<path class="st33" d="M92.1,41.1c0.2,0.7,0.3,1.4,0.3,2.2c0,0,0,0,0,0c-0.4-0.4-0.2-0.9-0.3-1.3c-0.1-0.2,0-0.5,0-0.7
		C92,41.3,92.1,41.2,92.1,41.1z"/>
	<path class="st33" d="M91.9,39.6c0.2,0.5,0.3,1,0.3,1.5c0,0,0,0,0,0C91.7,40.7,91.8,40.2,91.9,39.6L91.9,39.6z"/>
	<path class="st33" d="M92.1,54.8c0,0.5-0.1,1-0.3,1.5c0,0-0.1-0.1-0.1-0.1C91.8,55.8,91.7,55.2,92.1,54.8L92.1,54.8z"/>
	<path class="st33" d="M91.6,57.7c0-0.1,0-0.2,0-0.3c-0.1-0.4-0.1-0.8,0.3-1.1c0,0,0,0,0,0C91.8,56.8,91.8,57.3,91.6,57.7z"/>
	<path class="st63" d="M91.8,56.3c-0.2,0.3-0.2,0.7-0.3,1.1c0,0-0.1,0-0.1,0c-0.1-0.8,0.2-1.5,0.3-2.2c0.2-1.6,0.4-3.2,0.5-4.9
		c0.1-1.1,0.2-2.3,0.1-3.4c-0.1-2-0.2-4-0.6-6c-0.5-2.8-1.2-5.4-2.1-8.1c0-0.1,0-0.2,0-0.3c0.6,0.9,0.8,2,1.1,3
		c0.4,1.4,0.7,2.8,1.1,4.2c0,0.5,0,1,0.3,1.5c0,0.7,0.1,1.5,0.3,2.2c0.3,3.8,0.2,7.6-0.3,11.4C91.9,55.3,91.8,55.8,91.8,56.3z"/>
	<path class="st24" d="M172.6,51.6c-1.3,0-2.6,0-3.9,0c-0.5,0-0.6-0.1-0.5-0.6c0.3-1.3,0.7-2.4,1.7-3.3c1.2-1.1,2.7-1.2,4.2-0.8
		c1.6,0.5,2.5,1.7,2.7,3.3c0.2,1.5,0.2,1.5-1.2,1.5C174.6,51.6,173.6,51.6,172.6,51.6z"/>
	<path class="st37" d="M146,58c-0.2-0.3-0.1-0.6-0.1-0.9c0-3.9,0-7.8,0-11.7c0-0.6,0.2-0.8,0.7-0.7c0.4,0,0.9,0,1.3,0
		c0.5,0,0.7,0.2,0.7,0.7c0,0.7,0,1.3,0,2c0,2.9,0,5.7,0,8.6c0,0.9,0,1.8,0.5,2.6c0.9,1.6,2.3,1.8,3.9,1.8c1.2,0,2.4-0.3,3.3-1.2
		c0.5-0.3,0.8-0.9,1-1.4c0.4-1,0.6-2,0.6-3c0-3.1,0-6.1,0-9.2c0-0.6,0.2-0.8,0.8-0.8c1.9,0.1,1.8-0.3,1.8,1.8c0,5,0,10,0,15
		c0,0.6-0.2,0.8-0.8,0.8c-1.5,0-1.5,0-1.6-1.5c0-0.2,0-0.5-0.2-0.6c-0.2-0.1-0.4,0-0.5,0.2c-0.9,1.4-2.3,1.9-3.8,2.1
		c-1.6,0.2-3.2,0.2-4.7-0.4c-1.6-0.7-2.6-1.9-2.8-3.6C146.1,58.1,146,58,146,58z"/>
	<path class="st64" d="M265.6,60c-2,0.6-4.3-0.2-5.3-1.8c-0.3-0.5-0.6-1.1-0.7-1.7c-0.6-2.6-0.6-5.1,0.5-7.6
		c0.8-1.7,2.6-2.7,4.5-2.4c0.6,0.1,1.1,0,1.6,0.4c0,0.1,0,0.1,0,0.2c-0.2,0.1-0.4,0.1-0.6,0c-3-0.6-4.9,0.5-5.7,3.6
		c-0.5,2.1-0.5,4.2,0.2,6.3c0.7,2.1,2.4,3.2,4.6,2.9c0.3,0,0.5-0.1,0.8,0.1C265.7,59.9,265.7,60,265.6,60z"/>
	<path class="st65" d="M266.3,47c0,0,0-0.1,0-0.1c1.5,0.4,2.2,1.5,2.6,2.9c0.6,2.4,0.7,4.9,0,7.3c-0.2,0.6-0.4,1.3-1,1.7
		c-0.1-0.1-0.1-0.1-0.1-0.2c0.5-1.1,0.9-2.2,1.1-3.4c0.2-2,0.1-3.9-0.6-5.8c-0.3-0.8-0.8-1.5-1.6-1.9
		C266.6,47.4,266.4,47.3,266.3,47z"/>
	<path class="st66" d="M265.6,60c0,0,0-0.1,0-0.1c0.5-0.4,1.1-0.6,1.7-0.8c0.1,0,0.1,0.1,0.1,0.1C266.9,59.7,266.3,60,265.6,60z"/>
	<path class="st66" d="M267.9,58.6c0,0.1,0,0.1,0,0.2c-0.1,0.2-0.3,0.4-0.5,0.4c0,0,0-0.1-0.1-0.1C267.4,58.8,267.6,58.6,267.9,58.6
		z"/>
	<path class="st67" d="M5.2,43.6c-0.1,0.5,0.1,0.9-0.1,1.4C5.1,44.5,4.9,44.1,5.2,43.6z"/>
	<path class="st67" d="M5.1,51c0.3,0.4,0.1,0.9,0.1,1.4C4.9,51.9,5.1,51.5,5.1,51z"/>
	<path class="st67" d="M5.1,45.7C5,46,5.2,46.4,5,46.8C5,46.4,4.8,46,5.1,45.7z"/>
	<path class="st67" d="M15.5,76.4c0.3,0.2,0.5,0.3,0.5,0.7c-0.2-0.1-0.4-0.3-0.5-0.5C15.5,76.5,15.5,76.5,15.5,76.4z"/>
	<path class="st67" d="M5,49.4c0.3,0.3,0.1,0.6,0.1,1C4.8,50,5,49.7,5,49.4z"/>
	<path class="st67" d="M5.4,53.7c0.2,0.2,0.1,0.5,0.1,0.8C5.3,54.3,5.4,54,5.4,53.7z"/>
	<path class="st67" d="M5.5,41.4c0,0.3,0.1,0.6-0.1,0.8C5.4,42,5.3,41.7,5.5,41.4z"/>
	<path class="st67" d="M5.8,39.8c0,0.2,0.1,0.5-0.1,0.7C5.7,40.3,5.5,40,5.8,39.8z"/>
	<path class="st67" d="M5.6,55.5c0.2,0.2,0.1,0.5,0.1,0.7C5.5,56,5.7,55.7,5.6,55.5z"/>
	<path class="st68" d="M48.7,27.4c8.6,0,17.2,0,25.8,0c1.1,0,1.1,0,1.1,1.1c0,13,0,26,0,38.9c0,1,0,1-1,1c-17.3,0-34.6,0-51.8,0
		c-0.7,0-0.9-0.2-0.9-0.9c0-13.1,0-26.1,0-39.2c0-0.9,0-0.9,0.9-0.9C31.4,27.3,40.1,27.4,48.7,27.4z"/>
	<path class="st69" d="M124.9,42.9c1.2-1.5,2.9-2,4.8-2.1c1.9-0.1,3.7,0.1,5.3,1.2c1.8,1.2,2.6,3,3,5.1c0.6,3,0.5,5.9-0.6,8.8
		c-0.1,0.4-0.3,0.7-0.6,1c-0.1,0-0.1,0-0.2,0c0-0.8,0.5-1.4,0.7-2.1c0.5-1.6,0.5-3.2,0.5-4.8c0-1.6-0.2-3.2-0.9-4.7
		c-0.9-2.1-2.5-3.4-4.8-3.8c-2.5-0.5-4.8-0.1-6.8,1.5c-0.1,0.1-0.2,0.2-0.4,0.2C125,43,124.9,43,124.9,42.9z"/>
	<path class="st70" d="M124.9,42.9c0.1,0,0.1,0,0.2,0c0.1,0.2,0,0.4-0.1,0.5c-1.1,1.3-1.6,2.8-1.8,4.5c-0.3,2.4-0.2,4.8,0.5,7.1
		c0.1,0.3,0.3,0.6,0.3,1c0,0.1,0,0.2-0.1,0.3c-0.8-1.3-1.1-2.8-1.2-4.3c-0.2-1.8-0.1-3.6,0.4-5.4C123.3,45.2,123.9,44,124.9,42.9z"
		/>
	<path class="st71" d="M136.6,56.9c0,0,0.1,0,0.1,0c-1.6,2.8-5.1,3.7-7.9,3.1c-0.9-0.2-1.7-0.4-2.5-0.8c-0.3-0.2-0.6-0.3-0.8-0.6
		c0.1-0.1,0.1-0.1,0.2-0.1c0.2,0,0.3,0.1,0.5,0.2c2.4,1.3,4.9,1.3,7.4,0.5c1-0.3,1.7-1.1,2.4-1.8C136.2,57.1,136.3,56.8,136.6,56.9z
		"/>
	<path class="st72" d="M125.7,58.5c-0.1,0-0.1,0-0.2,0c-0.7-0.6-1.4-1.3-1.8-2.2c0-0.1,0-0.2,0-0.3c0.1,0,0.2,0,0.2,0
		c0.5,0.8,1.1,1.5,1.7,2.2C125.8,58.3,125.8,58.4,125.7,58.5z"/>
	<path class="st73" d="M283.4,46.6c3.2-0.6,5,1.4,5.2,4.3c0.1,0.7-0.3,0.7-0.8,0.7c-2.1,0-4.2,0-6.3,0c-0.5,0-1,0-1.4,0
		c-0.4,0-0.6-0.2-0.5-0.6c0.1-0.9,0.4-1.8,1-2.5c0.1-0.1,0.1,0,0.2,0c0,0.7-0.5,1.2-0.6,1.9c-0.1,0.7-0.1,0.8,0.6,0.8
		c2.3,0,4.5,0,6.8,0c0.7,0,0.7-0.1,0.6-0.7c-0.2-1-0.5-1.9-1.2-2.7c-0.6-0.6-1.3-0.9-2.2-0.9c-0.4,0-0.9,0.1-1.3-0.1
		C283.3,46.8,283.3,46.7,283.4,46.6z"/>
	<path class="st74" d="M280.7,48.6c-0.1,0-0.1,0-0.2,0c0.6-1.1,1.6-1.8,2.9-1.9c0,0,0,0.1,0,0.1c-0.1,0.1-0.2,0.2-0.3,0.3
		c-0.9,0.2-1.5,0.7-2.1,1.4C280.9,48.5,280.8,48.6,280.7,48.6z"/>
	<path class="st75" d="M249.1,39c0.4-0.5,0.9-0.8,1.6-0.7c0.8,0.1,1.2,0.2,1.3,1.4c0.1,0.9-0.3,1.5-1.2,1.8
		c-0.5,0.2-1.3-0.3-1.6-0.9C249,40.1,249.1,39.5,249.1,39C249.1,39,249.1,39,249.1,39z"/>
	<path class="st24" d="M267.9,58.6c-0.2,0.2-0.4,0.3-0.6,0.5c-0.5,0.3-1.1,0.6-1.7,0.7c-0.7-0.1-1.5,0.2-2.2,0
		c-1.8-0.3-2.8-1.3-3.3-2.9c-0.8-2.6-0.8-5.2,0.2-7.7c0.6-1.6,2-2.5,3.7-2.5c0.8,0,1.6,0.1,2.4,0.3c1.7,0.7,2.3,2.1,2.6,3.8
		c0.3,2.2,0.4,4.4-0.3,6.6C268.5,57.8,268.2,58.3,267.9,58.6z"/>
	<path class="st76" d="M48.7,29.1c8.1,0,16.2,0,24.2,0c0.9,0,1,0,1,0.9c0,11.8,0,23.6,0,35.4c0,0.9,0,0.9-0.9,0.9
		c-16.2,0-32.5,0-48.7,0c-0.6,0-0.8-0.2-0.8-0.8c0-11.9,0-23.9,0-35.8c0-0.6,0.1-0.8,0.8-0.8C32.4,29.1,40.6,29.1,48.7,29.1
		C48.7,29.1,48.7,29.1,48.7,29.1z"/>
	<path class="st24" d="M125.7,58.5c-0.7-0.8-1.5-1.5-1.9-2.5c-0.6-1.5-0.9-3.1-1-4.7c-0.1-2,0-3.9,0.7-5.7c0.3-0.8,0.7-1.6,1.3-2.2
		c0.1-0.1,0.2-0.2,0.2-0.4c2-1.9,4.4-2.3,7.1-1.8c3.4,0.6,5,3.1,5.6,5.9c0.4,1.8,0.3,3.6,0.2,5.4c-0.1,1.6-0.6,3-1.3,4.4
		c-0.8,1-1.7,2-2.9,2.4C130.9,60.2,128.2,60.2,125.7,58.5z"/>
	<path class="st24" d="M280.7,48.6c0.7-1,1.6-1.5,2.7-1.8c0.4,0,0.7,0,1.1,0c1.8-0.1,3.2,1.1,3.7,2.9c0.4,1.7,0.4,1.7-1.4,1.7
		c-2.1,0-4.3,0-6.4,0c-0.5,0-0.7-0.1-0.6-0.7C280,50,280.3,49.3,280.7,48.6z"/>
	<path class="st77" d="M48.7,64.6c-7.5,0-15,0-22.5,0c-1,0-1,0-1-1c0-10.5,0-21.1,0-31.6c0-1,0.1-1,1.1-1c15,0,30,0,45,0
		c0.9,0,0.9,0,0.9,0.9c0,10.6,0,21.3,0,31.9c0,0.6,0,0.9-0.8,0.9C63.8,64.6,56.3,64.7,48.7,64.6C48.7,64.7,48.7,64.6,48.7,64.6z"/>
	<path class="st78" d="M23.7,47.9c0-5.9,0-11.7,0-17.6c0-0.6,0.1-0.9,0.8-0.9c7.8,0,15.6,0,23.4,0c0.5,0,0.8,0,0.8,0.7
		c0,0.7-0.3,0.7-0.8,0.7c-7.3,0-14.6,0-21.9,0c-0.9,0-1,0-1,1c0,10.7,0,21.4,0,32.1c0,0.9,0.2,1.1,1.1,1.1c7.2,0,14.5,0,21.7,0
		c0.5,0,0.8,0,0.8,0.6c0,0.7-0.3,0.7-0.8,0.7c-7.8,0-15.6,0-23.4,0c-0.7,0-0.8-0.2-0.8-0.8C23.7,59.6,23.7,53.7,23.7,47.9z"/>
	<path class="st79" d="M48,43.9c-1.1,1.3-2.3,2.5-3.4,3.8c-0.3,0.4-0.6,0.4-0.9,0c-0.6-0.7-1.2-1.3-1.9-2c-0.6-0.7-0.6-0.6-1.2,0
		c-2,2.2-4,4.3-5.9,6.5c-0.6,0.7-1.2,0.9-2.1,0.9c-1.6-0.1-3.3,0-4.9,0c-0.6,0-0.9-0.2-0.9-0.9c0-6.3,0-12.5,0-18.8
		c0-0.3,0-0.6,0.3-0.7c0.2-0.1,0.5-0.1,0.7-0.1c14,0,28.1,0,42.1,0c0.2,0,0.5-0.1,0.7,0.1l0,0c0.1,0.1,0.1,0.2,0,0.3
		c-0.1,0-0.2,0-0.2,0c-0.3,0-0.6,0-1,0c-13.7,0-27.3,0-41,0c-0.1,0-0.2,0-0.3,0c-1,0-1.1,0-1.1,1c0,5.9,0,11.7,0,17.6c0,1,0,1,1,1
		c1.6,0,3.3,0,4.9,0c0.5,0,0.9-0.1,1.2-0.5C36,50,38,48,39.9,45.8c1.1-1.3,1.3-1.3,2.5-0.1c0.5,0.5,0.9,1.2,1.5,1.6
		c0.1,0,0.3,0,0.4,0c1.1-0.8,1.9-1.9,2.8-2.9c0.2-0.2,0.4-0.6,0.8-0.6C47.9,43.8,48,43.9,48,43.9z"/>
	<path class="st80" d="M48.4,45.7c0.3-0.3,0.6-0.6,0.8-0.9c0.6-0.7,1.3-1.4,2-2.1c0.3-0.3,0.6-0.3,0.9,0c1.5,1.6,3,3.2,4.4,4.9
		c0.4,0.5,1,0.9,1.4,1.5c1,1.1,2.1,2.3,3.1,3.4c0.2,0.3,0.1,0.5-0.2,0.5c-0.2,0-0.4,0-0.6,0c-7.7,0-15.3,0-23,0c-0.1,0-0.2,0-0.3,0
		c-0.2,0-0.5,0-0.6-0.2c-0.1-0.2,0.1-0.4,0.2-0.5c1.4-1.4,2.7-3,4.1-4.4c0.4-0.4,0.6-0.4,1,0c0.7,0.7,1.3,1.5,2,2.2
		c0.3,0.3,0.5,0.3,0.8,0C45.8,48.5,47.1,47.1,48.4,45.7z"/>
	<path class="st81" d="M70.5,33c0-0.1,0-0.2,0-0.3c0.3,0.3,0.3,0.7,0.3,1c0,6.1,0,12.1,0,18.2c0,1.1-0.1,1.2-1.2,1.2
		c-0.8,0-1.5,0-2.3,0c-0.6,0-0.8-0.2-0.5-0.8c0.4-1,0.8-2,0.9-3.1c0.2-2.2-0.3-4.2-1.7-6c-1.5-1.9-3.4-2.8-5.8-2.8
		c-0.3,0.1-0.6,0-0.8,0.1c-0.5,0.1-1.1,0.3-1.6,0.4c-0.1,0.1-0.2,0.1-0.3,0c0.2-0.6,0.8-0.5,1.2-0.7C59.3,40,60,40,60.7,40
		c3,0,4.9,1.6,6.3,4c0.1,0.2,0.3,0.4,0.3,0.7c1,2.4,1,4.8,0,7.2c-0.3,0.6-0.2,0.7,0.4,0.7c0.6,0,1.2,0,1.8,0c0.5,0,0.7-0.2,0.6-0.7
		c0-0.2,0-0.4,0-0.6c0-5.8,0-11.5,0-17.3C70.3,33.7,70.3,33.3,70.5,33z"/>
	<path class="st82" d="M48.4,45.7c-0.3,0.8-1.1,1.2-1.6,1.9c-0.7,0.8-1.5,1.6-2.2,2.4c-0.5,0.5-0.8,0.5-1.2,0
		c-0.6-0.7-1.3-1.4-1.9-2.1c-0.3-0.3-0.5-0.4-0.9,0c-1.4,1.5-2.8,3-4.1,4.4c-0.1,0.1-0.3,0.2-0.2,0.4c0.1,0.3,0.3,0.2,0.5,0.2
		c3.3,0,6.6,0,9.8,0c4.5,0,9.1,0,13.6,0c0.3,0,0.7,0.2,0.7-0.4c0.2,0.1,0.3,0.2,0.2,0.4c-0.1,0.2-0.2,0.3-0.4,0.3
		c-0.2,0-0.3,0-0.5,0c-7.8,0-15.6,0-23.4,0c-0.1,0-0.3,0-0.4,0c-0.2,0-0.4,0-0.5-0.3c-0.1-0.2,0-0.4,0.2-0.6c0.5-0.5,0.9-1,1.3-1.4
		c1-1.1,2.1-2.2,3.1-3.3c0.3-0.4,0.6-0.3,0.9,0c0.7,0.8,1.4,1.5,2.1,2.3c0.3,0.3,0.5,0.3,0.7,0c1.2-1.3,2.3-2.5,3.5-3.8
		C48.1,45.9,48.3,45.8,48.4,45.7z"/>
	<path class="st83" d="M66.6,61.9c0.3,0.2,0.6,0.3,1,0.5c0.2,0.1,0.3,0.2,0.2,0.4c0,0.2-0.2,0.2-0.3,0.3c-0.2,0.1-0.5,0.1-0.7,0.1
		c-5.4,0-10.8,0-16.2,0c-1,0-1.1-0.1-1.1-1.1c0-1,0-1.9,0-2.9c0-0.4-0.1-0.6-0.6-0.6c-0.5,0-0.7,0.1-0.7,0.6c0,1,0,2,0,3
		c0,0.3,0,0.6-0.3,0.9c-0.1-0.1-0.1-0.2-0.2-0.3c0-1.2,0-2.3,0-3.5c0-0.8,0.3-1,1.1-1c0.8,0,0.9,0.2,0.9,1c0,0.9,0,1.8,0,2.7
		c0,0.7,0.1,0.8,0.8,0.8c4.1,0,8.1,0,12.2,0c1.4,0,2.8,0,4.2,0c-0.2-0.4-0.6-0.4-0.6-0.7C66.3,61.8,66.5,61.9,66.6,61.9z"/>
	<path class="st84" d="M59.9,48.8c-0.1-0.2-0.3-0.4-0.5-0.5c-0.4-0.5-0.8-0.9-1.2-1.3c-0.7-0.7-1.3-1.4-1.9-2.1
		c-0.4-0.3-0.3-0.7-0.1-1.1c0.3-0.4,0.8-0.7,1.2-1c3.1-2,6.8-0.7,8.4,2.4c0.9,1.9,1.1,3.8,0.3,5.8c-0.3,0.6-0.5,1.3-1.1,1.7
		c-0.1,0-0.1,0-0.2-0.1c0-0.3,0.2-0.5,0.4-0.8c1.7-2.6,1.1-7.1-2.1-8.7c-1.8-1-4.5-0.7-6,0.8c-0.4,0.4-0.3,0.6,0,1
		c0.6,0.8,1.4,1.5,2,2.2c0.8,0.9,1.6,1.8,2.5,2.7c0.3,0.2,0.5,0.5,0.6,0.9c0,0.1-0.1,0.1-0.1,0.1c-0.6-0.2-0.9-0.8-1.3-1.2
		C60.3,49.2,60.1,49,59.9,48.8z"/>
	<path class="st81" d="M70.5,32.7c-14.5,0-29.1,0-43.6,0c0.2-0.2,0.5-0.1,0.7-0.1c14.1,0,28.1,0,42.2,0
		C70.1,32.6,70.3,32.5,70.5,32.7z"/>
	<path class="st85" d="M65.9,51c0.4-1.4,0.6-2.8,0.3-4.2c-0.5-2.5-2.9-4.8-5.4-4.9c-1.2-0.1-2.4,0.3-3.5,0.9c-0.1,0.1-0.2,0.1-0.3,0
		c1.9-1.5,4.8-1.6,6.9,0c2.2,1.7,2.8,4,2.6,6.6c-0.1,0.6-0.2,1.3-0.6,1.9C65.8,51.2,65.8,51.1,65.9,51z"/>
	<path class="st86" d="M57.4,55.4c-0.2,0-0.4-0.1-0.5-0.3c-0.2-0.2-0.3-0.3-0.1-0.6c4.5,0,8.9,0,13.4,0c0.4,0,0.6,0.2,0.6,0.6
		c0,2.3,0,4.5,0,6.8c0,0.5-0.2,0.6-0.6,0.4c-0.2-0.1-0.4-0.2-0.5-0.4c0.1-0.1,0.3-0.1,0.4,0c0.4,0.1,0.3-0.1,0.3-0.4
		c0-1.9,0-3.8,0-5.7c0-0.8-0.1-0.9-0.9-0.9c-3.7,0-7.4,0-11.1,0c-0.3,0-0.7-0.1-0.6,0.4C57.6,55.5,57.5,55.4,57.4,55.4z"/>
	<path class="st87" d="M57.4,55.4c0.1,0,0.2,0,0.3,0c0.3-0.2,0.5,0,0.8,0.1c2.7,1.5,5.4,2.9,8.1,4.4c0.2,0.1,0.3,0.2,0.4,0.4
		c0,0.1,0,0.2-0.1,0.3c-1.9-0.9-3.7-2-5.5-3C60,56.9,58.7,56.2,57.4,55.4z"/>
	<path class="st88" d="M40.7,54.6c0.2,0.2,0.2,0.4-0.1,0.6c-1.1,0.5-2.1,1.3-3.3,1.6c-0.1-0.3,0.1-0.3,0.3-0.5
		c0.7-0.5,1.5-0.8,2.3-1.3c-0.3-0.1-0.5-0.1-0.7-0.1c-3.8,0-7.5,0-11.3,0c-0.3,0-0.7,0.1-1-0.2c0-0.1,0-0.2,0.1-0.2
		c4.4,0,8.8,0,13.3,0C40.4,54.5,40.6,54.5,40.7,54.6z"/>
	<path class="st89" d="M66.6,61.9c-0.1,0-0.2,0-0.3,0c-0.2,0.2-0.4,0-0.6-0.1c-0.9-0.4-1.8-1-2.7-1.4c-0.7-0.3-1.4-0.8-2.1-1.1
		c-0.8-0.5-1.6-0.9-2.5-1.4c-0.7-0.3-1.3-0.8-2-1.1c-0.3-0.2-0.7-0.2-0.9-0.6c0-0.1,0-0.1,0.1-0.2c1.3,0.5,2.5,1.3,3.7,1.9
		C61.7,59.3,64.2,60.6,66.6,61.9z"/>
	<path class="st90" d="M47.9,62.8c0,0.1,0,0.2,0,0.2c0,0-0.1,0-0.1,0c-0.2,0.1-0.4,0.1-0.5,0.1c-5.5,0-11,0-16.6,0
		c-0.2,0-0.4,0-0.5-0.1c-0.2,0-0.4-0.1-0.4-0.3c0-0.2,0.1-0.2,0.3-0.2c0.2,0.2,0.5,0.2,0.8,0.2c5.5,0,11,0,16.4,0
		C47.4,62.7,47.6,62.7,47.9,62.8z"/>
	<path class="st91" d="M58,49c-1.2-1-2.1-2.3-3.2-3.4c-0.9-0.9-1.8-1.9-2.7-2.9c-0.3-0.3-0.5-0.3-0.8,0c-0.5,0.6-1,1.1-1.5,1.6
		c-0.2,0.2-0.3,0.4-0.5,0.4c0.6-1,1.4-1.6,2.2-2.4c0.3-0.3,0.5-0.1,0.7,0.1c0.9,0.9,1.7,1.8,2.6,2.7c1,1.1,2,2.2,3,3.3
		C57.8,48.6,58,48.7,58,49z"/>
	<path class="st92" d="M26.9,54.6c0,0.1,0,0.1,0,0.2c0.1,0.5,0,1,0,1.5c0,1.7,0,3.3,0,5c0,0.6,0.1,0.7,0.7,0.4
		c0.7-0.4,1.5-0.7,2.1-1.2c0.5-0.3,1.1-0.6,1.6-0.9c0.2-0.1,0.5-0.3,0.8-0.2c0.1,0.1,0.1,0.1,0,0.2c-1.6,0.9-3.2,1.8-4.8,2.6
		c-0.3,0.2-0.8,0.3-0.8-0.3c0-2.4-0.1-4.8,0-7.3c0,0,0-0.1,0.1-0.1C26.9,54.5,26.9,54.5,26.9,54.6z"/>
	<path class="st83" d="M30.1,63c5.9,0,11.8,0,17.6,0c-0.2,0.2-0.5,0.1-0.7,0.1c-5.4,0-10.8,0-16.2,0C30.6,63.2,30.3,63.2,30.1,63z"
		/>
	<path class="st79" d="M48,43.9c-0.1,0-0.1,0-0.2,0c-0.1-0.3,0.2-0.4,0.3-0.6c0.6-0.8,1.4-1.5,2.1-2.3c0.3-0.3,0.6-0.6,0.9-0.9
		c0.5-0.5,0.7-0.5,1.1,0c0.6,0.7,1.2,1.3,1.8,2c0.5,0.7,0.5,0.7,1.2,0.1c0.2-0.1,0.3-0.3,0.5-0.2c0,0.1,0,0.1,0,0.2
		c-0.1,0.1-0.1,0.1-0.2,0.2c-1,1-1,1-1.9-0.1c-0.6-0.6-1.1-1.2-1.7-1.9c-0.3-0.3-0.5-0.3-0.7,0c-0.8,0.9-1.6,1.8-2.5,2.7
		C48.6,43.4,48.3,43.6,48,43.9z"/>
	<path class="st93" d="M30.5,62.9c-0.3,0-0.6,0.1-0.6-0.4c1.6-0.9,3.2-1.7,4.8-2.6c0.2-0.1,0.5-0.2,0.7-0.4l0,0
		c0.2-0.1,0.4-0.1,0.5-0.3c0.8-0.3,1.5-0.9,2.3-1.1c0,0.4-0.3,0.5-0.6,0.6c-0.5,0.3-1.1,0.5-1.5,0.9c-1.8,1-3.7,2.1-5.5,3
		C30.4,62.6,30.5,62.8,30.5,62.9z"/>
	<path class="st94" d="M26.9,54.6c0,0-0.1,0-0.1,0c0.2-0.2,0.4-0.1,0.6-0.1c4.2,0,8.4,0,12.7,0c0.2,0,0.5-0.1,0.6,0.1
		C36.1,54.6,31.5,54.6,26.9,54.6z"/>
	<path class="st95" d="M42.9,55.5c1.4-1.2,3-1,4.7-1c0.3,0,0.4,0.2,0.4,0.5c0,0.2,0,0.5,0,0.7c0,0.5,0.2,0.7,0.7,0.7
		c0.5,0,0.8-0.1,0.8-0.6c0-0.3,0-0.7,0-1c0.1-0.1,0.2-0.1,0.3,0c0.1,0.4,0,0.8,0,1.1c0,0.7-0.4,0.9-1.2,0.9c-0.7,0-1-0.2-1-0.9
		c0-1.2-0.3-1-1.1-1c-1,0-2,0-2.9,0.7c-0.1,0.1-0.2,0.2-0.4,0.2c-0.1,0-0.2,0-0.3,0C42.9,55.7,42.9,55.6,42.9,55.5z"/>
	<path class="st96" d="M57,42.8c0.1,0,0.2,0,0.3,0c-0.3,0.3-0.7,0.7-1,1c-0.3,0.3-0.3,0.7,0,1c0.7,0.7,1.3,1.4,1.9,2.1
		c0.1,0.1,0.1,0.1,0,0.2c-0.8-0.7-1.5-1.5-2.2-2.3c-0.3-0.4-0.3-0.7,0-1.1C56.4,43.4,56.7,43.1,57,42.8z"/>
	<path class="st97" d="M32.3,59.6c0-0.1,0-0.1,0-0.2c0.1-0.5,0.6-0.5,0.9-0.8c0.8-0.4,1.6-0.9,2.4-1.3c0.2-0.1,0.5-0.3,0.8-0.2
		c0.1,0,0.1,0.1,0.2,0.1c-0.6,0.6-1.3,0.7-2,1.1C33.8,58.9,33,59.2,32.3,59.6z"/>
	<path class="st98" d="M36.3,57.3c-1,0.5-2.1,1-3.1,1.5c0-0.1-0.1-0.1,0-0.2c0.4-0.6,1.1-0.8,1.7-1.1c0.8-0.4,1.5-1,2.4-1.2
		c0.1,0,0.2,0,0.3,0.1c-0.1,0.1-0.2,0.2-0.3,0.3c-0.1,0-0.2,0.1-0.3,0.1C36.8,57,36.6,57.2,36.3,57.3z"/>
	<path class="st99" d="M66.8,60.6c0-0.1,0-0.2,0-0.3c0.3-0.2,0.5,0,0.7,0.1c0.7,0.4,1.5,0.8,2.2,1.2c0.2,0.1,0.5,0.2,0.8,0.2
		c0,0.3,0,0.5-0.4,0.4c-0.2-0.1-0.4-0.1-0.6-0.2C68.7,61.5,67.7,61,66.8,60.6z"/>
	<path class="st100" d="M49.8,54.7c-0.1,0-0.2,0-0.3,0c0.1-0.1,0.2-0.2,0.2-0.2c1.4-0.1,2.9-0.4,4.1,0.6c-0.1,0.1-0.2,0.1-0.3,0.1
		c-0.9-0.5-1.9-0.3-2.8-0.4C50.4,54.9,50.1,55,49.8,54.7z"/>
	<path class="st101" d="M59.9,48.8c0.6,0.2,0.8,0.8,1.3,1.2c0.2,0.2,0.4,0.4,0.6,0.6c0.6,0.5,1.1,1.1,1.7,1.6c0,0.1,0.1,0.1,0.1,0.2
		c0,0.1,0,0.1,0,0.2c0,0,0,0-0.1,0.1c-1.2-1-2.1-2.3-3.3-3.4C60,49.2,60,49,59.9,48.8z"/>
	<path class="st102" d="M36.1,59.5c0.4-0.5,1-0.6,1.5-0.9c0.2-0.1,0.5-0.2,0.6-0.5c0,0,0-0.1,0-0.1c0.1-0.2,0.4-0.2,0.5-0.3
		c0.3,0,0.5-0.4,0.8-0.1c0,0.2-0.1,0.3-0.2,0.4c-1,0.5-1.9,1.1-2.9,1.5C36.4,59.6,36.2,59.6,36.1,59.5z"/>
	<path class="st101" d="M65.9,51c0,0.1,0,0.2,0,0.3c-0.3,0.5-0.5,1.1-1,1.5c-0.5,0.5-1,0.5-1.5-0.1c0,0,0,0,0,0
		c0.5,0,0.9,0.2,1.4-0.1C65.3,52.1,65.5,51.5,65.9,51z"/>
	<path class="st103" d="M42.9,55.5c0,0,0,0.1,0,0.1c0,0.1-0.1,0.3-0.2,0.3c-0.8,0.4-1.4,1-2.3,1.1c-0.1-0.2,0-0.2,0.1-0.3
		C41.3,56.3,42.1,55.9,42.9,55.5z"/>
	<path class="st104" d="M55.8,42.1c0-0.1,0-0.1,0-0.2c0.2-0.6,0.9-1.1,1.6-1.1c0.1,0,0.2,0,0.3,0C57.1,41.3,56.4,41.7,55.8,42.1z"/>
	<path class="st105" d="M53.6,55.1c0.1,0,0.2,0,0.3,0c0.6,0.3,1.2,0.6,1.8,1c0,0,0,0.1,0,0.1c-0.2,0.2-0.4,0-0.6,0
		c-0.4-0.2-0.7-0.4-1.1-0.6C53.8,55.4,53.5,55.4,53.6,55.1z"/>
	<path class="st101" d="M58.2,47.1c0-0.1,0-0.1,0-0.2c0.4,0.4,1,0.7,1.1,1.3C58.8,48,58.5,47.6,58.2,47.1z"/>
	<path class="st93" d="M39.6,57.6c-0.3,0-0.5,0.3-0.8,0.3c-0.1-0.1,0.1-0.2,0.2-0.2c0.2-0.1,0.4-0.2,0.5-0.3c0.1,0,0.2-0.1,0.3,0
		C39.8,57.4,39.8,57.4,39.6,57.6C39.7,57.5,39.7,57.5,39.6,57.6z"/>
	<path class="st89" d="M39.8,57.3c-0.1,0-0.2,0-0.3,0c0.3-0.2,0.6-0.5,1-0.5c0,0.1-0.1,0.2-0.1,0.3C40.2,57.3,40.1,57.4,39.8,57.3z"
		/>
	<path class="st89" d="M39,57.6c-0.1,0.1-0.1,0.2-0.2,0.2c-0.2,0.1-0.3,0.2-0.5,0.2C38.4,57.7,38.7,57.6,39,57.6z"/>
	<path class="st104" d="M35.4,59.5c-0.2,0.3-0.4,0.4-0.7,0.4C34.9,59.6,35.1,59.5,35.4,59.5z"/>
	<path class="st88" d="M36.3,57.3c0.2-0.2,0.4-0.4,0.7-0.4c-0.1,0.2-0.3,0.3-0.5,0.4C36.5,57.3,36.4,57.3,36.3,57.3z"/>
	<path class="st104" d="M59.3,40.5c0.2-0.2,0.6-0.1,0.8-0.1C59.9,40.6,59.6,40.4,59.3,40.5z"/>
	<path class="st87" d="M56.7,54.6c0,0.2,0.1,0.4,0.1,0.6C56.5,55,56.5,54.8,56.7,54.6z"/>
	<path class="st104" d="M36,59.2c-0.1,0.2-0.3,0.3-0.5,0.3C35.6,59.3,35.7,59.2,36,59.2z"/>
	<path class="st24" d="M44.3,47.5c0,0.1-0.2,0.1-0.3,0.2c-0.9-0.7-1.5-1.7-2.3-2.5c-0.4-0.4-0.7-0.4-1,0c-1.5,1.7-3,3.2-4.5,4.9
		c-0.7,0.8-1.5,1.5-2.1,2.3c-0.2,0.3-0.5,0.4-0.9,0.4c-1.8,0-3.6,0-5.5,0c-0.6,0-0.7-0.2-0.7-0.7c0-1.9,0-3.8,0-5.7
		c0-4.1,0-8.3,0-12.4c0-0.9,0-1,1-1c13.9,0,27.7,0,41.6,0c0.2,0,0.4,0,0.6,0c0.4,0.1,0.3,0.5,0.3,0.8c0,3.2,0,6.4,0,9.5
		c0,2.9,0,5.8,0,8.7c0,0.7-0.1,0.8-0.8,0.8c-0.7,0-1.3,0-2,0c-0.5,0-0.6-0.2-0.4-0.6c0.4-0.9,0.7-1.8,0.8-2.8
		c0.2-1.6-0.2-3.1-0.7-4.6c-0.7-1.2-1.4-2.3-2.5-3.1c-1.2-0.9-2.6-1.4-4.2-1.4c-0.7,0-1.3,0.1-2,0.2c-1.4,0.3-2.5,1.1-3.5,2.1
		c-0.5,0.5-0.5,0.5-1,0c-0.6-0.8-1.4-1.5-2-2.3c-0.3-0.4-0.6-0.4-0.9,0c-0.3,0.4-0.7,0.7-1,1c-0.5,0.8-1.2,1.3-1.8,2
		C47.1,44.5,45.8,46,44.3,47.5z"/>
	<path class="st106" d="M70.1,33c-14,0-28,0-42,0c-1,0-1,0-1,1c0,5.9,0,11.8,0,17.8c0,0.7,0.2,0.9,0.9,0.9c1.6-0.1,3.3,0,4.9,0
		c0.6,0,0.9-0.2,1.3-0.6c1.4-1.6,2.9-3.2,4.4-4.8c0.7-0.7,1.4-1.4,2-2.2c0.4-0.4,0.7-0.5,1.1,0c0.8,0.9,1.5,1.7,2.3,2.6
		c-0.3,0.1-0.3-0.2-0.4-0.3c-0.7-0.7-1.3-1.4-2-2.1c-0.4-0.4-0.6-0.4-1,0c-2,2.2-4.1,4.4-6.1,6.6c-0.6,0.6-1.2,1-2,0.9
		c-1.6-0.1-3.3,0-4.9,0c-0.6,0-0.8-0.2-0.8-0.8c0-6.1,0-12.3,0-18.4c0-0.7,0.3-0.8,0.9-0.8c6.6,0,13.1,0,19.7,0c7.4,0,14.8,0,22.2,0
		c0.3,0,0.6-0.1,0.8,0.1C70.3,33.1,70.2,33,70.1,33z"/>
	<path class="st107" d="M70.1,33c0.1,0,0.2,0,0.3,0c0,0,0.1,0,0.1,0c0,6.4,0,12.8,0,19.2c0,0.5-0.2,0.7-0.7,0.7c-0.8,0-1.6,0-2.5,0
		c-0.4,0-0.6-0.1-0.4-0.5c1.3-2.5,1.2-5,0.2-7.5c0,0,0-0.1,0-0.1c-0.1-0.1,0-0.2,0-0.2c0.9,1.8,1.2,3.6,0.8,5.6
		c-0.2,0.7-0.4,1.4-0.7,2.1c-0.2,0.4,0,0.5,0.3,0.5c0.7,0,1.5,0,2.2,0c0.5,0,0.5-0.3,0.5-0.7c0-2.5,0-5,0-7.4c0-3.6,0-7.1,0-10.7
		C70.4,33.5,70.5,33.2,70.1,33z"/>
	<path class="st108" d="M44.3,47.5c0.9-1.2,2.1-2.3,3.1-3.4c0.9-1,1.9-2,2.8-3c0.1-0.1,0.1-0.1,0.2,0c-0.8,0.9-1.7,1.9-2.5,2.8
		c-1,1-1.9,2.1-2.9,3.1C44.8,47.2,44.6,47.5,44.3,47.5z"/>
	<path class="st109" d="M48.7,52.6c-3.8,0-7.5,0-11.3,0c-0.2,0-0.6,0.1-0.7-0.1c-0.1-0.3,0.2-0.4,0.4-0.6c1.1-1.2,2.3-2.4,3.4-3.7
		c0.4-0.5,0.7-0.4,1.1,0c0.6,0.7,1.3,1.4,1.9,2.1c0.3,0.4,0.6,0.4,0.9,0c1.9-2.1,3.8-4.2,5.7-6.3c0.1-0.1,0.3-0.3,0.4-0.4
		c1.1-1.1,1.1-1.1,2.1,0.1c1.2,1.4,2.5,2.8,3.8,4.2c1.3,1.4,2.6,2.8,3.9,4.2c0.1,0.1,0.4,0.2,0.3,0.4c-0.1,0.2-0.3,0.1-0.5,0.1
		c-1.9,0-3.7,0-5.6,0C52.7,52.6,50.7,52.6,48.7,52.6z"/>
	<path class="st110" d="M50.4,41c-0.1,0-0.1,0-0.2,0c0.2-0.2,0.4-0.5,0.6-0.7c0.9-0.9,0.9-0.9,1.7,0c0.6,0.7,1.2,1.4,1.8,2
		c0.2,0.3,0.4,0.3,0.6,0c1-1,2.1-1.9,3.5-2.2c0.1,0,0.1,0.1,0,0.2c-0.4,0.2-0.8,0.2-1.1,0.5c-0.7,0.2-1.2,0.6-1.6,1.1
		c-0.3,0.1-0.5,0.3-0.7,0.6c-0.3,0.4-0.6,0.4-0.9,0c-0.7-0.8-1.4-1.6-2.1-2.4c-0.3-0.4-0.6-0.4-0.9,0C50.9,40.5,50.6,40.8,50.4,41z"
		/>
	<path class="st111" d="M67.3,44.4c0,0.1,0,0.1,0,0.2c-0.3-0.5-0.6-1-1-1.5c-1.4-1.8-3.2-2.9-5.5-3c-0.1,0-0.2-0.1-0.1-0.2
		C63.5,39.8,66.2,42,67.3,44.4z"/>
	<path class="st112" d="M60.7,39.9c0,0.1,0.1,0.1,0.1,0.2c-0.8,0.1-1.5,0.2-2.3,0.2c0-0.1,0-0.1,0-0.2C59.2,40,59.9,39.9,60.7,39.9z
		"/>
	<path class="st113" d="M30.5,62.9c-0.1-0.1-0.3-0.1-0.3-0.2c0-0.1,0.2-0.2,0.3-0.2c0.4,0.1,0.9,0.1,1.3,0.1c4.8,0,9.6,0,14.5,0
		c0.2,0,0.4,0,0.5,0c0.5,0,0.7-0.2,0.7-0.7c0-0.9,0-1.8,0-2.7c0-1.1,0.3-1.3,1.4-1.3c0.7,0,1,0.3,1.1,1.1c0,0.9,0,1.8,0,2.7
		c0,0.5,0.2,0.8,0.8,0.8c5.1,0,10.2,0,15.3,0c0,0,0.1,0,0.2-0.1c-0.8-0.4-1.6-0.8-2.4-1.2c-0.3-0.2-0.7-0.3-0.8-0.6
		c0-0.1,0-0.2,0.1-0.2c1,0.4,1.9,1,2.8,1.5c0.1,0.1,0.3,0.1,0.4,0.2c0.2,0.1,0.5,0.3,0.7,0.4c0.1,0.1,0.4,0.1,0.4,0.3
		c-0.1,0.3-0.3,0.2-0.5,0.2c-0.1,0-0.3,0-0.4,0c-5.3,0-10.7,0-16,0c-0.9,0-0.9,0-0.9-0.9c0-1,0-2,0-3c0-0.6-0.3-0.6-0.7-0.6
		c-0.4,0-0.9-0.1-0.9,0.6c0,1.3,0,2.5,0,3.8c-0.3,0.2-0.6,0.1-0.9,0.1C41.5,62.9,36,62.9,30.5,62.9z"/>
	<path class="st114" d="M61.9,50.6c-0.7-1.1-1.8-2-2.7-3c-0.9-1.1-1.8-2.1-2.8-3.1c-0.2-0.3-0.2-0.4,0-0.6c1-1,2.1-1.6,3.6-1.7
		c2.8-0.2,4.8,1.5,5.6,3.7c0.8,2.3,0.5,4.6-1,6.5c-0.5,0.5-0.8,0.2-1.2-0.1l0,0c-0.3-0.5-0.8-0.8-1.2-1.2
		C62.1,51,61.9,50.9,61.9,50.6z"/>
	<path class="st115" d="M61.9,50.6c0.4,0.7,1.2,1,1.5,1.8c-0.6-0.5-1.2-1.1-1.7-1.8C61.8,50.6,61.9,50.6,61.9,50.6z"/>
	<path class="st115" d="M63.4,52.4c0.4,0.2,0.8,0.4,1.2,0.1c0.1,0,0.1,0,0.2,0c-0.4,0.6-0.9,0.3-1.4,0.1
		C63.4,52.5,63.4,52.5,63.4,52.4z"/>
	<path class="st116" d="M70.5,61.8c-0.2,0.3-0.4,0.2-0.6,0.1c-0.9-0.5-1.7-0.9-2.6-1.4c-0.2-0.1-0.3-0.2-0.5-0.2
		c-2.3-1.3-4.6-2.6-7-3.8c-0.7-0.4-1.4-0.9-2.2-1.1c-0.2-0.1-0.3-0.3-0.5-0.4c0.2-0.2,0.5-0.2,0.8-0.2c3.9,0,7.8,0,11.7,0
		c0.7,0,0.8,0.2,0.8,0.9C70.5,57.6,70.5,59.7,70.5,61.8z"/>
	<path class="st117" d="M37.6,56.5c-0.1,0-0.2,0-0.3,0c0.1-0.4,0.5-0.5,0.7-0.6c0.4-0.3,0.8-0.5,1.3-0.7C39.1,55,38.9,55,38.8,55
		c-3.5,0-7,0-10.5,0c-0.9,0-1,0.1-1,1c0,1.6,0,3.2,0,4.8c0,0.7,0.1,0.7,0.7,0.4c0.6-0.3,1.1-0.8,1.8-0.8c0.1,0,0.1,0.1,0.2,0.1
		c-0.8,0.6-1.8,1-2.7,1.5c-0.2,0.1-0.4,0-0.4-0.2c0-0.2,0-0.3,0-0.5c0-2,0-3.9,0-5.9c0-0.3,0-0.5,0.1-0.8c1.8,0,3.6,0,5.4,0
		c2.4,0,4.9,0,7.3,0c0.2,0,0.6-0.1,0.7,0.1c0.1,0.3-0.3,0.4-0.6,0.5C39.1,55.7,38.3,56.1,37.6,56.5z"/>
	<path class="st118" d="M58.5,57.8c0.9,0.4,1.7,0.8,2.5,1.4c-0.1,0.1-0.2,0.1-0.3,0.1c-0.9-0.2-1.6-0.7-2.3-1.3
		C58.4,57.9,58.5,57.9,58.5,57.8z"/>
	<path class="st119" d="M60.7,59.2c0.1,0,0.2,0,0.3,0c0.7,0.3,1.4,0.7,2,1.1c0,0.1,0,0.1,0,0.2C62,60.4,61.3,59.9,60.7,59.2z"/>
	<path class="st102" d="M58.5,57.8c0,0.1,0,0.1,0,0.2c-0.9,0-1.5-0.5-2.1-1.1c0-0.1,0-0.1,0.1-0.2C57.2,57,57.8,57.4,58.5,57.8z"/>
	<path class="st120" d="M56.5,56.7c0,0.1,0,0.1,0,0.2c-0.6,0-1.1-0.2-1.4-0.7c0-0.1,0-0.1,0.1-0.2c0.2,0.1,0.4,0.1,0.5,0.2
		C55.9,56.4,56.2,56.6,56.5,56.7z"/>
	<path class="st121" d="M30,60.6c-0.1,0-0.1,0-0.2,0c0-0.2,0.2-0.3,0.3-0.4c0.9-0.5,1.8-1,2.7-1.5c0.1-0.1,0.3-0.1,0.4,0
		c0,0.1,0,0.1,0,0.2c-0.3,0.2-0.6,0.4-1,0.6C31.4,59.7,30.8,60.3,30,60.6z"/>
	<path class="st24" d="M55.1,56.2c0.4,0.3,0.9,0.5,1.3,0.7c0.7,0.4,1.3,0.8,2.1,1.1c0.7,0.4,1.4,1,2.2,1.2c0.8,0.4,1.5,0.9,2.3,1.2
		c1.3,0.7,2.5,1.4,3.8,2.1c-0.1,0.3-0.3,0.2-0.5,0.2c-5.3,0-10.6,0-15.8,0c-0.6,0-0.8-0.2-0.7-0.7c0-1,0-2,0-3
		c0-0.8-0.2-0.9-1.2-0.9c-0.7,0-0.8,0.3-0.8,0.9c0,1,0,2,0,3.1c0,0.4-0.1,0.7-0.6,0.7c-5.3,0-10.7,0-16,0c-0.2,0-0.5,0-0.6-0.2
		c1.9-1,3.7-2,5.6-3c1.3-0.5,2.4-1.1,3.5-1.9c0,0,0,0,0,0c1.2-0.7,2.4-1.2,3.6-1.9c0.1,0,0.2-0.1,0.3-0.1c1.1-0.9,2.5-0.8,3.8-0.7
		c0.3,0,0.6,0.2,0.5,0.6c0,0.1,0,0.2,0,0.3c0,1,0,1,1,1c0.8,0,0.9-0.1,0.9-1c0-0.9,0-0.9,0.9-0.9c0.2,0,0.4,0,0.6,0
		C52.8,54.6,53.9,55.4,55.1,56.2z"/>
	<path class="st107" d="M55.1,56.2c-0.7-0.4-1.3-0.7-2-1.1c-1-0.5-2-0.3-3.1-0.3c-0.3,0-0.3,0.4-0.3,0.6c0.1,1.4-0.4,1.3-1.7,1.2
		c-0.4,0-0.4-0.4-0.4-0.7c0-1.2,0-1.1-1.2-1.2c-1.1-0.1-2,0.3-3,0.7c0.6-0.5,1.2-0.8,1.9-0.8c0.5,0,1,0,1.6,0
		c0.7-0.1,0.9,0.2,0.9,0.9c0,1,0.4,1.3,1.4,1c0.4-0.1,0.4-0.4,0.4-0.7c0-0.4-0.1-0.8,0.2-1.2c0.9,0,1.8,0,2.6,0
		c0.5,0,0.8,0.3,1.2,0.4c0.5,0.3,1,0.6,1.5,0.9C55.1,56.1,55.1,56.1,55.1,56.2z"/>
	<path class="st102" d="M43.2,55.6c-1.1,0.8-2.3,1.4-3.6,1.9c0.1-0.1,0.1-0.2,0.2-0.3c0.2-0.1,0.4-0.2,0.5-0.3
		c0.9-0.4,1.7-0.9,2.6-1.4C43,55.7,43.1,55.6,43.2,55.6z"/>
	<path class="st116" d="M33.2,58.6c-1.2,0.6-2.3,1.2-3.4,1.9c-0.8,0.2-1.4,0.8-2.2,1.1c-0.4,0.2-0.5,0.1-0.5-0.3c0-2,0-4,0-5.9
		c0-0.4,0.2-0.6,0.6-0.6c3.9,0,7.8,0,11.7,0c0.2,0,0.3,0,0.4,0.2c-0.8,0.5-1.7,1-2.5,1.4C35.9,57.1,34.6,57.9,33.2,58.6z"/>
	<path class="st122" d="M34.5,36.4c1.1,0,2.2,0,3.3,0c0.8,0,0.8,0.5,0.8,1c0,0.5,0,0.9-0.7,0.9c-2.3,0-4.6,0-6.9,0
		c-0.7,0-0.7-0.4-0.7-0.9c0-0.5-0.1-1,0.7-1C32.2,36.5,33.4,36.4,34.5,36.4z"/>
	<path class="st123" d="M33.6,41c-0.1-0.6,0-1,0.8-0.9c0.8,0.1,0.8,0,0.9,1c0,0.7-0.2,0.9-0.9,0.9C33.7,41.9,33.5,41.6,33.6,41z"/>
	<path class="st124" d="M32.1,41c0,1.1-0.1,1.3-1.1,1.3C30.2,42.3,30,42,30,41c0-1,0.2-1.2,1.1-1.2C32.1,39.8,32.1,39.9,32.1,41z"/>
	<path class="st100" d="M38.7,41c0,0.9,0,1-0.9,1c-0.9,0-0.9,0-0.9-0.9c0-1,0-1,0.9-1C38.7,40.1,38.7,40.1,38.7,41z"/>
	<path class="st125" d="M32,41c0,0.8,0,0.8-0.9,0.9c-0.7,0.1-0.8-0.3-0.8-0.9c0-0.8,0.1-0.9,0.9-0.9C31.9,40.1,32,40.2,32,41z"/>
	<path class="st126" d="M38.4,41c0.1,0.4,0,0.7-0.6,0.7c-0.5,0-0.7-0.2-0.7-0.7c0-0.5,0.2-0.6,0.7-0.7C38.4,40.3,38.5,40.6,38.4,41z
		"/>
	<path class="st127" d="M31,40.4c0.5-0.1,0.7,0.1,0.7,0.6c0,0.5-0.1,0.7-0.6,0.7c-0.5,0-0.6-0.2-0.6-0.6
		C30.5,40.7,30.4,40.2,31,40.4z"/>
</g>
</svg>
