<?xml version="1.0" standalone="no"?>
<!DOCTYPE svg PUBLIC "-//W3C//DTD SVG 20010904//EN"
 "http://www.w3.org/TR/2001/REC-SVG-20010904/DTD/svg10.dtd">
<svg version="1.0" xmlns="http://www.w3.org/2000/svg"
 width="70.000000pt" height="70.000000pt" viewBox="0 0 70.000000 70.000000"
 preserveAspectRatio="xMidYMid meet">
<metadata>
Created by potrace 1.11, written by Peter Selinger 2001-2013
</metadata>
<g transform="translate(0.000000,70.000000) scale(0.100000,-0.100000)"
fill="#000000" stroke="none">
<path d="M134 507 c-2 -7 -3 -82 -2 -167 l3 -155 215 0 215 0 0 165 0 165
-213 3 c-168 2 -214 0 -218 -11z m411 -157 l1 -145 -3 143 -4 142 -187 -2
-187 -3 0 -135 0 -135 95 -6 95 -5 -102 -2 -103 -2 0 150 0 150 198 -2 197 -3
0 -145z m-25 40 c0 -64 -3 -80 -15 -80 -10 0 -13 7 -9 28 10 48 -52 92 -84 60
-9 -9 -15 -9 -24 0 -9 9 -19 5 -45 -20 -26 -25 -35 -29 -47 -19 -11 10 -18 6
-36 -19 -17 -23 -29 -30 -56 -30 l-34 0 0 80 0 80 175 0 175 0 0 -80z m-80
-72 c0 -4 -44 -8 -97 -8 l-97 0 22 22 c16 17 25 19 33 11 9 -9 19 -4 41 19
l29 31 34 -33 c19 -19 35 -38 35 -42z m42 47 c9 -19 9 -28 0 -37 -9 -9 -19 -5
-42 17 -38 36 -38 45 0 45 23 0 33 -6 42 -25z m-202 -70 c0 -2 -18 -14 -41
-25 -23 -12 -39 -24 -36 -27 3 -2 27 8 53 23 67 39 116 40 182 2 28 -16 52
-31 52 -34 0 -2 -31 -4 -70 -4 -60 0 -70 3 -71 18 -1 16 -2 16 -6 0 -4 -15
-16 -18 -66 -18 -85 0 -107 7 -107 34 0 13 3 26 7 29 7 8 103 10 103 2z m240
-25 c0 -16 -3 -30 -6 -30 -8 0 -94 51 -94 56 0 2 23 4 50 4 49 0 50 -1 50 -30z"/>
<path d="M218 433 c12 -2 30 -2 40 0 9 3 -1 5 -23 4 -22 0 -30 -2 -17 -4z"/>
</g>
</svg>
